<?xml version="1.0" standalone="no" ?>
<!DOCTYPE svg PUBLIC "-//W3C//DTD SVG 1.1//EN" "http://www.w3.org/Graphics/SVG/1.1/DTD/svg11.dtd">
<svg width="226px" height="115px" viewBox="0 0 226 115" style="background-color: #ffffffff" xmlns="http://www.w3.org/2000/svg" xmlns:xlink="http://www.w3.org/1999/xlink" version="1.1" >
<text x="0" y="0" stroke="transparent" fill="#000000" transform="matrix(0.05 0 0 0.05 36.4382 60.7444)" style="font:normal normal normal 200px 'Arial'" >
N</text>
<path stroke="transparent" fill="#000000" transform="matrix(0.05 0 0 0.05 -50 -195)" d="M 1163.53,5330.67 L 1151.53,5330.67 L 1151.53,5042.67 L 1163.53,5042.67 L 1163.53,5330.67 Z " />
<path stroke="transparent" fill="#000000" transform="matrix(0.05 0 0 0.05 -50 -195)" d="M 1111.69,5328.18 L 1099.69,5333.15 L 1099.69,5040.18 L 1111.69,5045.15 L 1111.69,5328.18 Z " />
<path stroke="transparent" fill="#000000" transform="matrix(0.05 0 0 0.05 -50 -195)" d="M 1059.85,5330.67 L 1047.85,5330.67 L 1047.85,5042.67 L 1059.85,5042.67 L 1059.85,5330.67 Z " />
<path stroke="transparent" fill="#000000" transform="matrix(0.05 0 0 0.05 -50 -195)" d="M 1311.82,5528.31 L 1309.33,5534.31 L 1301.84,5535.3 L 1099.69,5333.15 L 1111.69,5328.18 L 1311.82,5528.31 Z " />
<path stroke="transparent" fill="#000000" transform="matrix(0.05 0 0 0.05 -50 -195)" d="M 1594.85,5528.31 L 1597.33,5534.31 L 1593.87,5540.31 L 1312.8,5540.31 L 1309.33,5534.31 L 1311.82,5528.31 L 1594.85,5528.31 Z " />
<path stroke="transparent" fill="#000000" transform="matrix(0.05 0 0 0.05 -50 -195)" d="M 1567.4,5580.15 L 1567.4,5592.15 L 1339.26,5592.15 L 1339.26,5580.15 L 1567.4,5580.15 Z " />
<path stroke="transparent" fill="#000000" transform="matrix(0.05 0 0 0.05 -50 -195)" d="M 1794.98,5328.18 L 1806.98,5333.15 L 1604.83,5535.3 L 1597.33,5534.31 L 1594.85,5528.31 L 1794.98,5328.18 Z " />
<path stroke="transparent" fill="#000000" transform="matrix(0.05 0 0 0.05 -50 -195)" d="M 1794.98,5146.22 L 1806.98,5146.22 L 1806.98,5333.15 L 1794.98,5328.18 L 1794.98,5146.22 Z " />
<path stroke="transparent" fill="#000000" transform="matrix(0.05 0 0 0.05 -50 -195)" d="M 1594.85,4845.02 L 1597.33,4839.02 L 1604.83,4838.03 L 1717.26,4950.47 L 1708.78,4958.95 L 1594.85,4845.02 Z " />
<path stroke="transparent" fill="#000000" transform="matrix(0.05 0 0 0.05 -50 -195)" d="M 1311.82,4845.02 L 1309.33,4839.02 L 1312.8,4833.02 L 1593.87,4833.02 L 1597.33,4839.02 L 1594.85,4845.02 L 1311.82,4845.02 Z " />
<path stroke="transparent" fill="#000000" transform="matrix(0.05 0 0 0.05 -50 -195)" d="M 1339.26,4793.18 L 1339.26,4781.18 L 1567.4,4781.18 L 1567.4,4793.18 L 1339.26,4793.18 Z " />
<path stroke="transparent" fill="#000000" transform="matrix(0.05 0 0 0.05 -50 -195)" d="M 1111.69,5045.15 L 1099.69,5040.18 L 1301.84,4838.03 L 1309.33,4839.02 L 1311.82,4845.02 L 1111.69,5045.15 Z " />
<path stroke="transparent" fill="#000000" transform="matrix(0.05 0 0 0.05 -50 -195)" d="M 1172.26,5783.73 L 1158.41,5783.73 L 1301.84,5535.3 L 1309.33,5534.31 L 1312.8,5540.31 L 1172.26,5783.73 Z " />
<path stroke="transparent" fill="#000000" transform="matrix(0.05 0 0 0.05 -50 -195)" d="M 1312.8,6027.14 L 1305.87,6039.14 L 1158.41,5783.73 L 1172.26,5783.73 L 1312.8,6027.14 Z " />
<path stroke="transparent" fill="#000000" transform="matrix(0.05 0 0 0.05 -50 -195)" d="M 1344.46,5978.3 L 1334.07,5984.3 L 1220,5786.73 L 1230.39,5780.73 L 1344.46,5978.3 Z " />
<path stroke="transparent" fill="#000000" transform="matrix(0.05 0 0 0.05 -50 -195)" d="M 1593.87,6027.14 L 1600.8,6039.14 L 1305.87,6039.14 L 1312.8,6027.14 L 1593.87,6027.14 Z " />
<path stroke="transparent" fill="#000000" transform="matrix(0.05 0 0 0.05 -50 -195)" d="M 1734.41,5783.73 L 1748.26,5783.73 L 1600.8,6039.14 L 1593.87,6027.14 L 1734.41,5783.73 Z " />
<path stroke="transparent" fill="#000000" transform="matrix(0.05 0 0 0.05 -50 -195)" d="M 1676.28,5780.73 L 1686.67,5786.73 L 1572.6,5984.3 L 1562.21,5978.3 L 1676.28,5780.73 Z " />
<path stroke="transparent" fill="#000000" transform="matrix(0.05 0 0 0.05 -50 -195)" d="M 1593.87,5540.31 L 1597.33,5534.31 L 1604.83,5535.3 L 1748.26,5783.73 L 1734.41,5783.73 L 1593.87,5540.31 Z " />
<path stroke="transparent" fill="#000000" transform="matrix(0.05 0 0 0.05 -50 -195)" d="M 1734.41,4589.6 L 1748.26,4589.6 L 1604.83,4838.03 L 1597.33,4839.02 L 1593.87,4833.02 L 1734.41,4589.6 Z " />
<path stroke="transparent" fill="#000000" transform="matrix(0.05 0 0 0.05 -50 -195)" d="M 1593.87,4346.19 L 1600.8,4334.19 L 1748.26,4589.6 L 1734.41,4589.6 L 1593.87,4346.19 Z " />
<path stroke="transparent" fill="#000000" transform="matrix(0.05 0 0 0.05 -50 -195)" d="M 1562.21,4395.03 L 1572.6,4389.03 L 1686.67,4586.6 L 1676.28,4592.6 L 1562.21,4395.03 Z " />
<path stroke="transparent" fill="#000000" transform="matrix(0.05 0 0 0.05 -50 -195)" d="M 1312.8,4346.19 L 1305.87,4334.19 L 1600.8,4334.19 L 1593.87,4346.19 L 1312.8,4346.19 Z " />
<path stroke="transparent" fill="#000000" transform="matrix(0.05 0 0 0.05 -50 -195)" d="M 1172.26,4589.6 L 1158.41,4589.6 L 1305.87,4334.19 L 1312.8,4346.19 L 1172.26,4589.6 Z " />
<path stroke="transparent" fill="#000000" transform="matrix(0.05 0 0 0.05 -50 -195)" d="M 1230.39,4592.6 L 1220,4586.6 L 1334.07,4389.03 L 1344.46,4395.03 L 1230.39,4592.6 Z " />
<path stroke="transparent" fill="#000000" transform="matrix(0.05 0 0 0.05 -50 -195)" d="M 1312.8,4833.02 L 1309.33,4839.02 L 1301.84,4838.03 L 1158.41,4589.6 L 1172.26,4589.6 L 1312.8,4833.02 Z " />
<path stroke="transparent" fill="#000000" transform="matrix(0.05 0 0 0.05 -50 -195)" d="M 2050.4,4891.74 L 2050.4,4905.59 L 1904.9,4989.6 L 1898.9,4979.2 L 2050.4,4891.74 Z " />
<path stroke="transparent" fill="#000000" transform="matrix(0.05 0 0 0.05 -50 -195)" d="M 2299.81,5035.74 L 2299.81,5049.59 L 2050.4,4905.59 L 2050.4,4891.74 L 2299.81,5035.74 Z " />
<path stroke="transparent" fill="#000000" transform="matrix(0.05 0 0 0.05 -50 -195)" d="M 2549.23,4891.74 L 2549.23,4905.59 L 2299.81,5049.59 L 2299.81,5035.74 L 2549.23,4891.74 Z " />
<text x="0" y="0" stroke="transparent" fill="#000000" transform="matrix(0.05 0 0 0.05 86.3212 60.7444)" style="font:normal normal normal 200px 'Arial'" >
N</text>
<text x="0" y="0" stroke="transparent" fill="#000000" transform="matrix(0.05 0 0 0.05 86.3212 69.5778)" style="font:normal normal normal 200px 'Arial'" >
H</text>
<path stroke="transparent" fill="#000000" transform="matrix(0.05 0 0 0.05 -50 -195)" d="M 2698.9,4978.15 L 2692.9,4988.54 L 2549.23,4905.59 L 2549.23,4891.74 L 2698.9,4978.15 Z " />
<path stroke="transparent" fill="#000000" transform="matrix(0.05 0 0 0.05 -50 -195)" d="M 3048.06,4891.74 L 3048.06,4905.59 L 2902.56,4989.6 L 2896.56,4979.2 L 3048.06,4891.74 Z " />
<text x="0" y="0" stroke="transparent" fill="#000000" transform="matrix(0.05 0 0 0.05 98.5136 39.1445)" style="font:normal normal normal 200px 'Arial'" >
O</text>
<path stroke="transparent" fill="#000000" transform="matrix(0.05 0 0 0.05 -50 -195)" d="M 3016.14,4714.22 L 3028.14,4714.22 L 3028.14,4913.63 L 3016.14,4913.63 L 3016.14,4714.22 Z " />
<path stroke="transparent" fill="#000000" transform="matrix(0.05 0 0 0.05 -50 -195)" d="M 3067.98,4714.22 L 3079.98,4714.22 L 3079.98,4913.63 L 3067.98,4913.63 L 3067.98,4714.22 Z " />
<path stroke="transparent" fill="#000000" transform="matrix(0.05 0 0 0.05 -50 -195)" d="M 3295.28,5034.47 L 3297.47,5042.67 L 3293.08,5047.06 L 3048.06,4905.59 L 3048.06,4891.74 L 3295.28,5034.47 Z " />
<path stroke="transparent" fill="#000000" transform="matrix(0.05 0 0 0.05 -50 -195)" d="M 3444.94,5286.08 L 3438.01,5298.08 L 3293.08,5047.06 L 3297.47,5042.67 L 3304.4,5042.67 L 3444.94,5286.08 Z " />
<path stroke="transparent" fill="#000000" transform="matrix(0.05 0 0 0.05 -50 -195)" d="M 3726.01,5286.08 L 3729.47,5292.08 L 3726.01,5298.08 L 3438.01,5298.08 L 3444.94,5286.08 L 3726.01,5286.08 Z " />
<path stroke="transparent" fill="#000000" transform="matrix(0.05 0 0 0.05 -50 -195)" d="M 3699.54,5234.24 L 3699.54,5246.24 L 3471.4,5246.24 L 3471.4,5234.24 L 3699.54,5234.24 Z " />
<path stroke="transparent" fill="#000000" transform="matrix(0.05 0 0 0.05 -50 -195)" d="M 3866.54,5042.67 L 3873.47,5042.67 L 3876.94,5048.67 L 3736.4,5292.08 L 3729.47,5292.08 L 3726.01,5286.08 L 3866.54,5042.67 Z " />
<path stroke="transparent" fill="#000000" transform="matrix(0.05 0 0 0.05 -50 -195)" d="M 3726.01,4799.25 L 3732.94,4787.25 L 3876.94,5036.67 L 3873.47,5042.67 L 3866.54,5042.67 L 3726.01,4799.25 Z " />
<path stroke="transparent" fill="#000000" transform="matrix(0.05 0 0 0.05 -50 -195)" d="M 3694.35,4848.09 L 3704.74,4842.09 L 3818.81,5039.67 L 3808.42,5045.67 L 3694.35,4848.09 Z " />
<path stroke="transparent" fill="#000000" transform="matrix(0.05 0 0 0.05 -50 -195)" d="M 3444.94,4799.25 L 3438.01,4787.25 L 3732.94,4787.25 L 3726.01,4799.25 L 3444.94,4799.25 Z " />
<path stroke="transparent" fill="#000000" transform="matrix(0.05 0 0 0.05 -50 -195)" d="M 3304.4,5042.67 L 3297.47,5042.67 L 3295.28,5034.47 L 3438.01,4787.25 L 3444.94,4799.25 L 3304.4,5042.67 Z " />
<path stroke="transparent" fill="#000000" transform="matrix(0.05 0 0 0.05 -50 -195)" d="M 3362.53,5045.67 L 3352.13,5039.67 L 3466.2,4842.09 L 3476.6,4848.09 L 3362.53,5045.67 Z " />
<path stroke="transparent" fill="#000000" transform="matrix(0.05 0 0 0.05 -50 -195)" d="M 4158.01,5036.67 L 4161.47,5042.67 L 4158.01,5048.67 L 3876.94,5048.67 L 3873.47,5042.67 L 3876.94,5036.67 L 4158.01,5036.67 Z " />
<text x="0" y="0" stroke="transparent" fill="#000000" transform="matrix(0.05 0 0 0.05 182.984 60.7444)" style="font:normal normal normal 200px 'Arial'" >
O</text>
<path stroke="transparent" fill="#000000" transform="matrix(0.05 0 0 0.05 -50 -195)" d="M 4308.93,5286.08 L 4305.47,5292.08 L 4298.54,5292.08 L 4158.01,5048.67 L 4161.47,5042.67 L 4168.4,5042.67 L 4308.93,5286.08 Z " />
<path stroke="transparent" fill="#000000" transform="matrix(0.05 0 0 0.05 -50 -195)" d="M 4340.6,5237.24 L 4330.2,5243.24 L 4216.13,5045.67 L 4226.53,5039.67 L 4340.6,5237.24 Z " />
<path stroke="transparent" fill="#000000" transform="matrix(0.05 0 0 0.05 -50 -195)" d="M 4590.01,5286.08 L 4593.47,5292.08 L 4590.01,5298.08 L 4308.93,5298.08 L 4305.47,5292.08 L 4308.93,5286.08 L 4590.01,5286.08 Z " />
<path stroke="transparent" fill="#000000" transform="matrix(0.05 0 0 0.05 -50 -195)" d="M 4678.94,5132.04 L 4689.33,5138.04 L 4600.4,5292.08 L 4593.47,5292.08 L 4590.01,5286.08 L 4678.94,5132.04 Z " />
<path stroke="transparent" fill="#000000" transform="matrix(0.05 0 0 0.05 -50 -195)" d="M 4590.01,4799.25 L 4593.47,4793.25 L 4600.4,4793.25 L 4689.07,4946.83 L 4678.67,4952.83 L 4590.01,4799.25 Z " />
<path stroke="transparent" fill="#000000" transform="matrix(0.05 0 0 0.05 -50 -195)" d="M 4308.93,4799.25 L 4305.47,4793.25 L 4308.93,4787.25 L 4590.01,4787.25 L 4593.47,4793.25 L 4590.01,4799.25 L 4308.93,4799.25 Z " />
<path stroke="transparent" fill="#000000" transform="matrix(0.05 0 0 0.05 -50 -195)" d="M 4168.4,5042.67 L 4161.47,5042.67 L 4158.01,5036.67 L 4298.54,4793.25 L 4305.47,4793.25 L 4308.93,4799.25 L 4168.4,5042.67 Z " />
<path stroke="transparent" fill="#000000" transform="matrix(0.05 0 0 0.05 -50 -195)" d="M 4730.54,4543.84 L 4737.47,4543.84 L 4740.93,4549.84 L 4600.4,4793.25 L 4593.47,4793.25 L 4590.01,4787.25 L 4730.54,4543.84 Z " />
<path stroke="transparent" fill="#000000" transform="matrix(0.05 0 0 0.05 -50 -195)" d="M 4590.01,4300.42 L 4593.47,4294.42 L 4600.4,4294.42 L 4740.93,4537.84 L 4737.47,4543.84 L 4730.54,4543.84 L 4590.01,4300.42 Z " />
<path stroke="transparent" fill="#000000" transform="matrix(0.05 0 0 0.05 -50 -195)" d="M 4558.34,4349.26 L 4568.74,4343.26 L 4682.81,4540.84 L 4672.41,4546.84 L 4558.34,4349.26 Z " />
<path stroke="transparent" fill="#000000" transform="matrix(0.05 0 0 0.05 -50 -195)" d="M 4308.93,4300.42 L 4302.01,4288.42 L 4590.01,4288.42 L 4593.47,4294.42 L 4590.01,4300.42 L 4308.93,4300.42 Z " />
<path stroke="transparent" fill="#000000" transform="matrix(0.05 0 0 0.05 -50 -195)" d="M 4168.4,4543.84 L 4154.54,4543.84 L 4302.01,4288.42 L 4308.93,4300.42 L 4168.4,4543.84 Z " />
<path stroke="transparent" fill="#000000" transform="matrix(0.05 0 0 0.05 -50 -195)" d="M 4308.93,4787.25 L 4305.47,4793.25 L 4298.54,4793.25 L 4154.54,4543.84 L 4168.4,4543.84 L 4308.93,4787.25 Z " />
<path stroke="transparent" fill="#000000" transform="matrix(0.05 0 0 0.05 -50 -195)" d="M 4340.6,4738.41 L 4330.2,4744.41 L 4216.13,4546.84 L 4226.53,4540.84 L 4340.6,4738.41 Z " />
<path stroke="transparent" fill="#000000" transform="matrix(0.05 0 0 0.05 -50 -195)" d="M 4168.4,5541.5 L 4154.54,5541.5 L 4298.54,5292.08 L 4305.47,5292.08 L 4308.93,5298.08 L 4168.4,5541.5 Z " />
<path stroke="transparent" fill="#000000" transform="matrix(0.05 0 0 0.05 -50 -195)" d="M 4308.93,5784.91 L 4302.01,5796.91 L 4154.54,5541.5 L 4168.4,5541.5 L 4308.93,5784.91 Z " />
<path stroke="transparent" fill="#000000" transform="matrix(0.05 0 0 0.05 -50 -195)" d="M 4340.6,5736.07 L 4330.2,5742.07 L 4216.13,5544.5 L 4226.53,5538.5 L 4340.6,5736.07 Z " />
<path stroke="transparent" fill="#000000" transform="matrix(0.05 0 0 0.05 -50 -195)" d="M 4590.01,5784.91 L 4596.93,5796.91 L 4302.01,5796.91 L 4308.93,5784.91 L 4590.01,5784.91 Z " />
<path stroke="transparent" fill="#000000" transform="matrix(0.05 0 0 0.05 -50 -195)" d="M 4730.54,5541.5 L 4737.47,5541.5 L 4740.93,5547.5 L 4596.93,5796.91 L 4590.01,5784.91 L 4730.54,5541.5 Z " />
<path stroke="transparent" fill="#000000" transform="matrix(0.05 0 0 0.05 -50 -195)" d="M 4590.01,5298.08 L 4593.47,5292.08 L 4600.4,5292.08 L 4740.93,5535.5 L 4737.47,5541.5 L 4730.54,5541.5 L 4590.01,5298.08 Z " />
<path stroke="transparent" fill="#000000" transform="matrix(0.05 0 0 0.05 -50 -195)" d="M 4558.34,5346.92 L 4568.74,5340.92 L 4682.81,5538.5 L 4672.41,5544.5 L 4558.34,5346.92 Z " />
<text x="0" y="0" stroke="transparent" fill="#000000" transform="matrix(0.05 0 0 0.05 48.6306 39.1445)" style="font:normal normal normal 200px 'Arial'" >
O</text>
<path stroke="transparent" fill="#000000" transform="matrix(0.05 0 0 0.05 -50 -195)" d="M 2018.48,4714.22 L 2030.48,4714.22 L 2030.48,4913.63 L 2018.48,4913.63 L 2018.48,4714.22 Z " />
<path stroke="transparent" fill="#000000" transform="matrix(0.05 0 0 0.05 -50 -195)" d="M 2070.32,4714.22 L 2082.32,4714.22 L 2082.32,4913.63 L 2070.32,4913.63 L 2070.32,4714.22 Z " />
<path stroke="transparent" fill="#000000" transform="matrix(0.05 0 0 0.05 -50 -195)" d="M 3880.4,5541.5 L 3866.54,5541.5 L 3726.01,5298.08 L 3729.47,5292.08 L 3736.4,5292.08 L 3880.4,5541.5 Z " />
<text x="0" y="0" stroke="transparent" fill="#000000" transform="matrix(0.05 0 0 0.05 125.363 98.1567)" style="font:normal normal normal 200px 'Arial'" >
HO</text>
<path stroke="transparent" fill="#000000" transform="matrix(0.05 0 0 0.05 -50 -195)" d="M 3788.2,5701.19 L 3777.81,5695.19 L 3866.54,5541.5 L 3880.4,5541.5 L 3788.2,5701.19 Z " />
<text x="0" y="0" stroke="transparent" fill="#000000" transform="matrix(0.05 0 0 0.05 197.939 35.8029)" style="font:normal normal normal 200px 'Arial'" >
SO</text>
<text x="0" y="0" stroke="transparent" fill="#000000" transform="matrix(0.05 0 0 0.05 212.387 37.6363)" style="font:normal normal normal 150px 'Arial'" >
3</text>
<text x="0" y="0" stroke="transparent" fill="#000000" transform="matrix(0.05 0 0 0.05 216.558 35.8029)" style="font:normal normal normal 200px 'Arial'" >
H</text>
<path stroke="transparent" fill="#000000" transform="matrix(0.05 0 0 0.05 -50 -195)" d="M 4934.77,4537.84 L 4934.77,4549.84 L 4740.93,4549.84 L 4737.47,4543.84 L 4740.93,4537.84 L 4934.77,4537.84 Z " />
<text x="0" y="0" stroke="transparent" fill="#000000" transform="matrix(0.05 0 0 0.05 183.263 10.8614)" style="font:normal normal normal 200px 'Arial'" >
NH</text>
<text x="0" y="0" stroke="transparent" fill="#000000" transform="matrix(0.05 0 0 0.05 197.706 12.6947)" style="font:normal normal normal 150px 'Arial'" >
2</text>
<path stroke="transparent" fill="#000000" transform="matrix(0.05 0 0 0.05 -50 -195)" d="M 4670.74,4148.59 L 4681.13,4154.59 L 4600.4,4294.42 L 4593.47,4294.42 L 4590.01,4288.42 L 4670.74,4148.59 Z " />
<text x="0" y="0" stroke="transparent" fill="#000000" transform="matrix(0.05 0 0 0.05 197.939 85.686)" style="font:normal normal normal 200px 'Arial'" >
SO</text>
<text x="0" y="0" stroke="transparent" fill="#000000" transform="matrix(0.05 0 0 0.05 212.387 87.5193)" style="font:normal normal normal 150px 'Arial'" >
3</text>
<text x="0" y="0" stroke="transparent" fill="#000000" transform="matrix(0.05 0 0 0.05 216.558 82.0749)" style="font:normal normal normal 150px 'Arial'" >
-</text>
<path stroke="transparent" fill="#000000" transform="matrix(0.05 0 0 0.05 -50 -195)" d="M 4934.77,5535.5 L 4934.77,5547.5 L 4740.93,5547.5 L 4737.47,5541.5 L 4740.93,5535.5 L 4934.77,5535.5 Z " />
<text x="0" y="0" stroke="transparent" fill="#000000" transform="matrix(0.05 0 0 0.05 183.263 110.627)" style="font:normal normal normal 200px 'Arial'" >
NH</text>
<text x="0" y="0" stroke="transparent" fill="#000000" transform="matrix(0.05 0 0 0.05 197.706 112.461)" style="font:normal normal normal 150px 'Arial'" >
2</text>
<text x="0" y="0" stroke="transparent" fill="#000000" transform="matrix(0.05 0 0 0.05 201.877 107.016)" style="font:normal normal normal 150px 'Arial'" >
+</text>
<path stroke="transparent" fill="#000000" transform="matrix(0.05 0 0 0.05 -50 -195)" d="M 4703.19,5917.11 L 4692.8,5923.11 L 4603.24,5767.99 L 4613.63,5761.99 L 4703.19,5917.11 Z " />
<path stroke="transparent" fill="#000000" transform="matrix(0.05 0 0 0.05 -50 -195)" d="M 4658.3,5943.03 L 4647.9,5949.03 L 4558.34,5793.91 L 4568.74,5787.91 L 4658.3,5943.03 Z " />
<text x="0" y="0" stroke="transparent" fill="#000000" transform="matrix(0.05 0 0 0.05 148.922 85.8193)" style="font:normal normal normal 200px 'Arial'" >
O</text>
<path stroke="transparent" fill="#000000" transform="matrix(0.05 0 0 0.05 -50 -195)" d="M 3955.78,5520.25 L 3955.61,5532.25 L 3863.8,5530.91 L 3863.98,5518.91 L 3955.78,5520.25 Z " />
<path stroke="transparent" fill="#000000" transform="matrix(0.05 0 0 0.05 -50 -195)" d="M 3955.3,5553.14 L 3955.13,5565.14 L 3863.96,5563.81 L 3864.14,5551.81 L 3955.3,5553.14 Z " />
</svg>
