<?xml version="1.0" standalone="no" ?>
<!DOCTYPE svg PUBLIC "-//W3C//DTD SVG 1.1//EN" "http://www.w3.org/Graphics/SVG/1.1/DTD/svg11.dtd">
<svg width="204px" height="156px" viewBox="0 0 204 156" style="background-color: #ffffffff" xmlns="http://www.w3.org/2000/svg" xmlns:xlink="http://www.w3.org/1999/xlink" version="1.1" >
<text x="0" y="0" stroke="transparent" fill="#000000" transform="matrix(0.05 0 0 0.05 36.7725 81.0744)" style="font:normal normal normal 200px 'Arial'" >
N</text>
<path stroke="transparent" fill="#000000" transform="matrix(0.05 0 0 0.05 -355 -184)" d="M 7270.11,5517.27 L 7258.11,5517.27 L 7258.11,5229.27 L 7270.11,5229.27 L 7270.11,5517.27 Z " />
<path stroke="transparent" fill="#000000" transform="matrix(0.05 0 0 0.05 -355 -184)" d="M 7218.27,5514.78 L 7206.27,5519.75 L 7206.27,5226.78 L 7218.27,5231.75 L 7218.27,5514.78 Z " />
<path stroke="transparent" fill="#000000" transform="matrix(0.05 0 0 0.05 -355 -184)" d="M 7166.43,5517.27 L 7154.43,5517.27 L 7154.43,5229.27 L 7166.43,5229.27 L 7166.43,5517.27 Z " />
<path stroke="transparent" fill="#000000" transform="matrix(0.05 0 0 0.05 -355 -184)" d="M 7418.55,5715.07 L 7416.07,5721.07 L 7408.57,5722.05 L 7206.27,5519.75 L 7218.27,5514.78 L 7418.55,5715.07 Z " />
<path stroke="transparent" fill="#000000" transform="matrix(0.05 0 0 0.05 -355 -184)" d="M 7701.58,5715.07 L 7704.07,5721.07 L 7700.6,5727.07 L 7419.53,5727.07 L 7416.07,5721.07 L 7418.55,5715.07 L 7701.58,5715.07 Z " />
<path stroke="transparent" fill="#000000" transform="matrix(0.05 0 0 0.05 -355 -184)" d="M 7674.14,5766.91 L 7674.14,5778.91 L 7446,5778.91 L 7446,5766.91 L 7674.14,5766.91 Z " />
<path stroke="transparent" fill="#000000" transform="matrix(0.05 0 0 0.05 -355 -184)" d="M 7901.67,5514.78 L 7913.67,5519.75 L 7711.56,5722.05 L 7704.07,5721.07 L 7701.58,5715.07 L 7901.67,5514.78 Z " />
<path stroke="transparent" fill="#000000" transform="matrix(0.05 0 0 0.05 -355 -184)" d="M 7901.67,5332.82 L 7913.67,5332.82 L 7913.67,5519.75 L 7901.67,5514.78 L 7901.67,5332.82 Z " />
<path stroke="transparent" fill="#000000" transform="matrix(0.05 0 0 0.05 -355 -184)" d="M 7701.58,5031.67 L 7704.07,5025.67 L 7711.56,5024.68 L 7823.95,5137.07 L 7815.47,5145.55 L 7701.58,5031.67 Z " />
<path stroke="transparent" fill="#000000" transform="matrix(0.05 0 0 0.05 -355 -184)" d="M 7418.55,5031.67 L 7416.07,5025.67 L 7419.53,5019.67 L 7700.6,5019.67 L 7704.07,5025.67 L 7701.58,5031.67 L 7418.55,5031.67 Z " />
<path stroke="transparent" fill="#000000" transform="matrix(0.05 0 0 0.05 -355 -184)" d="M 7446,4979.83 L 7446,4967.83 L 7674.14,4967.83 L 7674.14,4979.83 L 7446,4979.83 Z " />
<path stroke="transparent" fill="#000000" transform="matrix(0.05 0 0 0.05 -355 -184)" d="M 7218.27,5231.75 L 7206.27,5226.78 L 7408.57,5024.68 L 7416.07,5025.67 L 7418.55,5031.67 L 7218.27,5231.75 Z " />
<path stroke="transparent" fill="#000000" transform="matrix(0.05 0 0 0.05 -355 -184)" d="M 7278.99,5970.47 L 7265.14,5970.47 L 7408.57,5722.05 L 7416.07,5721.07 L 7419.53,5727.07 L 7278.99,5970.47 Z " />
<path stroke="transparent" fill="#000000" transform="matrix(0.05 0 0 0.05 -355 -184)" d="M 7419.53,6213.87 L 7412.6,6225.87 L 7265.14,5970.47 L 7278.99,5970.47 L 7419.53,6213.87 Z " />
<path stroke="transparent" fill="#000000" transform="matrix(0.05 0 0 0.05 -355 -184)" d="M 7451.19,6165.03 L 7440.8,6171.03 L 7326.73,5973.47 L 7337.12,5967.47 L 7451.19,6165.03 Z " />
<path stroke="transparent" fill="#000000" transform="matrix(0.05 0 0 0.05 -355 -184)" d="M 7700.6,6213.87 L 7707.53,6225.87 L 7412.6,6225.87 L 7419.53,6213.87 L 7700.6,6213.87 Z " />
<path stroke="transparent" fill="#000000" transform="matrix(0.05 0 0 0.05 -355 -184)" d="M 7841.14,5970.47 L 7854.99,5970.47 L 7707.53,6225.87 L 7700.6,6213.87 L 7841.14,5970.47 Z " />
<path stroke="transparent" fill="#000000" transform="matrix(0.05 0 0 0.05 -355 -184)" d="M 7783.01,5967.47 L 7793.4,5973.47 L 7679.34,6171.03 L 7668.94,6165.03 L 7783.01,5967.47 Z " />
<path stroke="transparent" fill="#000000" transform="matrix(0.05 0 0 0.05 -355 -184)" d="M 7700.6,5727.07 L 7704.07,5721.07 L 7711.56,5722.05 L 7854.99,5970.47 L 7841.14,5970.47 L 7700.6,5727.07 Z " />
<path stroke="transparent" fill="#000000" transform="matrix(0.05 0 0 0.05 -355 -184)" d="M 7841.14,4776.27 L 7854.99,4776.27 L 7711.56,5024.68 L 7704.07,5025.67 L 7700.6,5019.67 L 7841.14,4776.27 Z " />
<path stroke="transparent" fill="#000000" transform="matrix(0.05 0 0 0.05 -355 -184)" d="M 7700.6,4532.87 L 7707.53,4520.87 L 7854.99,4776.27 L 7841.14,4776.27 L 7700.6,4532.87 Z " />
<path stroke="transparent" fill="#000000" transform="matrix(0.05 0 0 0.05 -355 -184)" d="M 7668.94,4581.7 L 7679.34,4575.7 L 7793.4,4773.27 L 7783.01,4779.27 L 7668.94,4581.7 Z " />
<path stroke="transparent" fill="#000000" transform="matrix(0.05 0 0 0.05 -355 -184)" d="M 7419.53,4532.87 L 7412.6,4520.87 L 7707.53,4520.87 L 7700.6,4532.87 L 7419.53,4532.87 Z " />
<path stroke="transparent" fill="#000000" transform="matrix(0.05 0 0 0.05 -355 -184)" d="M 7278.99,4776.27 L 7265.14,4776.27 L 7412.6,4520.87 L 7419.53,4532.87 L 7278.99,4776.27 Z " />
<path stroke="transparent" fill="#000000" transform="matrix(0.05 0 0 0.05 -355 -184)" d="M 7337.12,4779.27 L 7326.73,4773.27 L 7440.8,4575.7 L 7451.19,4581.7 L 7337.12,4779.27 Z " />
<path stroke="transparent" fill="#000000" transform="matrix(0.05 0 0 0.05 -355 -184)" d="M 7419.53,5019.67 L 7416.07,5025.67 L 7408.57,5024.68 L 7265.14,4776.27 L 7278.99,4776.27 L 7419.53,5019.67 Z " />
<path stroke="transparent" fill="#000000" transform="matrix(0.05 0 0 0.05 -355 -184)" d="M 8157.07,5078.34 L 8157.07,5092.19 L 8011.59,5176.19 L 8005.59,5165.8 L 8157.07,5078.34 Z " />
<path stroke="transparent" fill="#000000" transform="matrix(0.05 0 0 0.05 -355 -184)" d="M 8406.47,5222.34 L 8406.47,5236.19 L 8157.07,5092.19 L 8157.07,5078.34 L 8406.47,5222.34 Z " />
<path stroke="transparent" fill="#000000" transform="matrix(0.05 0 0 0.05 -355 -184)" d="M 8655.87,5078.34 L 8655.87,5092.19 L 8406.47,5236.19 L 8406.47,5222.34 L 8655.87,5078.34 Z " />
<text x="0" y="0" stroke="transparent" fill="#000000" transform="matrix(0.05 0 0 0.05 86.6705 81.0564)" style="font:normal normal normal 199px 'Arial'" >
N</text>
<text x="0" y="0" stroke="transparent" fill="#000000" transform="matrix(0.05 0 0 0.05 86.6705 89.8897)" style="font:normal normal normal 199px 'Arial'" >
H</text>
<path stroke="transparent" fill="#000000" transform="matrix(0.05 0 0 0.05 -355 -184)" d="M 8806.07,5165.06 L 8800.07,5175.46 L 8655.87,5092.19 L 8655.87,5078.34 L 8806.07,5165.06 Z " />
<path stroke="transparent" fill="#000000" transform="matrix(0.05 0 0 0.05 -355 -184)" d="M 9154.67,5078.34 L 9154.67,5092.19 L 9008.43,5176.63 L 9002.43,5166.24 L 9154.67,5078.34 Z " />
<text x="0" y="0" stroke="transparent" fill="#000000" transform="matrix(0.05 0 0 0.05 98.8442 59.4744)" style="font:normal normal normal 200px 'Arial'" >
O</text>
<path stroke="transparent" fill="#000000" transform="matrix(0.05 0 0 0.05 -355 -184)" d="M 9122.75,4900.82 L 9134.75,4900.82 L 9134.75,5100.23 L 9122.75,5100.23 L 9122.75,4900.82 Z " />
<path stroke="transparent" fill="#000000" transform="matrix(0.05 0 0 0.05 -355 -184)" d="M 9174.59,4900.82 L 9186.59,4900.82 L 9186.59,5100.23 L 9174.59,5100.23 L 9174.59,4900.82 Z " />
<path stroke="transparent" fill="#000000" transform="matrix(0.05 0 0 0.05 -355 -184)" d="M 9401.87,5221.07 L 9404.07,5229.27 L 9399.67,5233.66 L 9154.67,5092.19 L 9154.67,5078.34 L 9401.87,5221.07 Z " />
<path stroke="transparent" fill="#000000" transform="matrix(0.05 0 0 0.05 -355 -184)" d="M 9551.53,5472.67 L 9544.6,5484.67 L 9399.67,5233.66 L 9404.07,5229.27 L 9410.99,5229.27 L 9551.53,5472.67 Z " />
<path stroke="transparent" fill="#000000" transform="matrix(0.05 0 0 0.05 -355 -184)" d="M 9832.6,5472.67 L 9836.07,5478.67 L 9832.35,5484.67 L 9544.6,5484.67 L 9551.53,5472.67 L 9832.6,5472.67 Z " />
<path stroke="transparent" fill="#000000" transform="matrix(0.05 0 0 0.05 -355 -184)" d="M 9806.14,5420.83 L 9806.14,5432.83 L 9578,5432.83 L 9578,5420.83 L 9806.14,5420.83 Z " />
<path stroke="transparent" fill="#000000" transform="matrix(0.05 0 0 0.05 -355 -184)" d="M 9973.14,5229.27 L 9980.07,5229.27 L 9983.53,5235.27 L 9842.87,5478.88 L 9836.07,5478.67 L 9832.6,5472.67 L 9973.14,5229.27 Z " />
<path stroke="transparent" fill="#000000" transform="matrix(0.05 0 0 0.05 -355 -184)" d="M 9832.6,4985.87 L 9839.53,4973.87 L 9983.53,5223.27 L 9980.07,5229.27 L 9973.14,5229.27 L 9832.6,4985.87 Z " />
<path stroke="transparent" fill="#000000" transform="matrix(0.05 0 0 0.05 -355 -184)" d="M 9800.94,5034.7 L 9811.33,5028.7 L 9925.4,5226.27 L 9915.01,5232.27 L 9800.94,5034.7 Z " />
<path stroke="transparent" fill="#000000" transform="matrix(0.05 0 0 0.05 -355 -184)" d="M 9551.53,4985.87 L 9544.6,4973.87 L 9839.53,4973.87 L 9832.6,4985.87 L 9551.53,4985.87 Z " />
<path stroke="transparent" fill="#000000" transform="matrix(0.05 0 0 0.05 -355 -184)" d="M 9410.99,5229.27 L 9404.07,5229.27 L 9401.87,5221.07 L 9544.6,4973.87 L 9551.53,4985.87 L 9410.99,5229.27 Z " />
<path stroke="transparent" fill="#000000" transform="matrix(0.05 0 0 0.05 -355 -184)" d="M 9469.12,5232.27 L 9458.73,5226.27 L 9572.8,5028.7 L 9583.19,5034.7 L 9469.12,5232.27 Z " />
<path stroke="transparent" fill="#000000" transform="matrix(0.05 0 0 0.05 -355 -184)" d="M 10264.6,5223.27 L 10268.1,5229.27 L 10264.6,5235.27 L 9983.53,5235.27 L 9980.07,5229.27 L 9983.53,5223.27 L 10264.6,5223.27 Z " />
<text x="0" y="0" stroke="transparent" fill="#000000" transform="matrix(0.05 0 0 0.05 183.314 81.0744)" style="font:normal normal normal 200px 'Arial'" >
O</text>
<path stroke="transparent" fill="#000000" transform="matrix(0.05 0 0 0.05 -355 -184)" d="M 10415.5,5472.67 L 10412.1,5478.67 L 10405.1,5478.67 L 10264.6,5235.27 L 10268.1,5229.27 L 10275,5229.27 L 10415.5,5472.67 Z " />
<path stroke="transparent" fill="#000000" transform="matrix(0.05 0 0 0.05 -355 -184)" d="M 10447.2,5423.83 L 10436.8,5429.83 L 10322.7,5232.27 L 10333.1,5226.27 L 10447.2,5423.83 Z " />
<path stroke="transparent" fill="#000000" transform="matrix(0.05 0 0 0.05 -355 -184)" d="M 10696.6,5472.67 L 10700.1,5478.67 L 10696.6,5484.67 L 10415.5,5484.67 L 10412.1,5478.67 L 10415.5,5472.67 L 10696.6,5472.67 Z " />
<path stroke="transparent" fill="#000000" transform="matrix(0.05 0 0 0.05 -355 -184)" d="M 10785.5,5318.64 L 10795.9,5324.64 L 10707,5478.67 L 10700.1,5478.67 L 10696.6,5472.67 L 10785.5,5318.64 Z " />
<path stroke="transparent" fill="#000000" transform="matrix(0.05 0 0 0.05 -355 -184)" d="M 10696.6,4985.87 L 10700.1,4979.87 L 10707,4979.87 L 10795.7,5133.43 L 10785.3,5139.43 L 10696.6,4985.87 Z " />
<path stroke="transparent" fill="#000000" transform="matrix(0.05 0 0 0.05 -355 -184)" d="M 10415.5,4985.87 L 10412.1,4979.87 L 10415.5,4973.87 L 10696.6,4973.87 L 10700.1,4979.87 L 10696.6,4985.87 L 10415.5,4985.87 Z " />
<path stroke="transparent" fill="#000000" transform="matrix(0.05 0 0 0.05 -355 -184)" d="M 10442,4934.03 L 10442,4922.03 L 10670.1,4922.03 L 10670.1,4934.03 L 10442,4934.03 Z " />
<path stroke="transparent" fill="#000000" transform="matrix(0.05 0 0 0.05 -355 -184)" d="M 10275,5229.27 L 10268.1,5229.27 L 10264.6,5223.27 L 10405.1,4979.87 L 10412.1,4979.87 L 10415.5,4985.87 L 10275,5229.27 Z " />
<path stroke="transparent" fill="#000000" transform="matrix(0.05 0 0 0.05 -355 -184)" d="M 10837.1,4730.47 L 10851,4730.47 L 10707,4979.87 L 10700.1,4979.87 L 10696.6,4973.87 L 10837.1,4730.47 Z " />
<path stroke="transparent" fill="#000000" transform="matrix(0.05 0 0 0.05 -355 -184)" d="M 10696.6,4487.07 L 10700.1,4481.07 L 10707,4481.07 L 10851,4730.47 L 10837.1,4730.47 L 10696.6,4487.07 Z " />
<path stroke="transparent" fill="#000000" transform="matrix(0.05 0 0 0.05 -355 -184)" d="M 10664.9,4535.9 L 10675.3,4529.9 L 10789.4,4727.47 L 10779,4733.47 L 10664.9,4535.9 Z " />
<path stroke="transparent" fill="#000000" transform="matrix(0.05 0 0 0.05 -355 -184)" d="M 10415.5,4487.07 L 10412.1,4481.07 L 10415.5,4475.07 L 10696.6,4475.07 L 10700.1,4481.07 L 10696.6,4487.07 L 10415.5,4487.07 Z " />
<path stroke="transparent" fill="#000000" transform="matrix(0.05 0 0 0.05 -355 -184)" d="M 10275,4730.47 L 10261.1,4730.47 L 10405.1,4481.07 L 10412.1,4481.07 L 10415.5,4487.07 L 10275,4730.47 Z " />
<path stroke="transparent" fill="#000000" transform="matrix(0.05 0 0 0.05 -355 -184)" d="M 10333.1,4733.47 L 10322.7,4727.47 L 10436.8,4529.9 L 10447.2,4535.9 L 10333.1,4733.47 Z " />
<path stroke="transparent" fill="#000000" transform="matrix(0.05 0 0 0.05 -355 -184)" d="M 10415.5,4973.87 L 10412.1,4979.87 L 10405.1,4979.87 L 10261.1,4730.47 L 10275,4730.47 L 10415.5,4973.87 Z " />
<path stroke="transparent" fill="#000000" transform="matrix(0.05 0 0 0.05 -355 -184)" d="M 10275,5728.07 L 10261.1,5728.07 L 10405.1,5478.67 L 10412.1,5478.67 L 10415.5,5484.67 L 10275,5728.07 Z " />
<path stroke="transparent" fill="#000000" transform="matrix(0.05 0 0 0.05 -355 -184)" d="M 10415.5,5971.67 L 10412.1,5977.67 L 10405.1,5977.67 L 10261.1,5728.07 L 10275,5728.07 L 10415.5,5971.67 Z " />
<path stroke="transparent" fill="#000000" transform="matrix(0.05 0 0 0.05 -355 -184)" d="M 10447.2,5922.8 L 10436.8,5928.8 L 10322.8,5731.08 L 10333.2,5725.08 L 10447.2,5922.8 Z " />
<path stroke="transparent" fill="#000000" transform="matrix(0.05 0 0 0.05 -355 -184)" d="M 10696.6,5971.67 L 10700.1,5977.67 L 10696.6,5983.67 L 10415.5,5983.67 L 10412.1,5977.67 L 10415.5,5971.67 L 10696.6,5971.67 Z " />
<path stroke="transparent" fill="#000000" transform="matrix(0.05 0 0 0.05 -355 -184)" d="M 10837.1,5728.07 L 10851,5728.07 L 10707,5977.67 L 10700.1,5977.67 L 10696.6,5971.67 L 10837.1,5728.07 Z " />
<path stroke="transparent" fill="#000000" transform="matrix(0.05 0 0 0.05 -355 -184)" d="M 10696.6,5484.67 L 10700.1,5478.67 L 10707,5478.67 L 10851,5728.07 L 10837.1,5728.07 L 10696.6,5484.67 Z " />
<path stroke="transparent" fill="#000000" transform="matrix(0.05 0 0 0.05 -355 -184)" d="M 10664.9,5533.5 L 10675.3,5527.5 L 10789.4,5725.08 L 10779,5731.08 L 10664.9,5533.5 Z " />
<text x="0" y="0" stroke="transparent" fill="#000000" transform="matrix(0.05 0 0 0.05 48.9642 59.4744)" style="font:normal normal normal 200px 'Arial'" >
O</text>
<path stroke="transparent" fill="#000000" transform="matrix(0.05 0 0 0.05 -355 -184)" d="M 8125.15,4900.82 L 8137.15,4900.82 L 8137.15,5100.23 L 8125.15,5100.23 L 8125.15,4900.82 Z " />
<path stroke="transparent" fill="#000000" transform="matrix(0.05 0 0 0.05 -355 -184)" d="M 8176.99,4900.82 L 8188.99,4900.82 L 8188.99,5100.23 L 8176.99,5100.23 L 8176.99,4900.82 Z " />
<text x="0" y="0" stroke="transparent" fill="#000000" transform="matrix(0.05 0 0 0.05 183.592 31.1937)" style="font:normal normal normal 200px 'Arial'" >
N</text>
<path stroke="transparent" fill="#000000" transform="matrix(0.05 0 0 0.05 -355 -184)" d="M 10777.3,4335.24 L 10787.7,4341.24 L 10707,4481.07 L 10700.1,4481.07 L 10696.6,4475.07 L 10777.3,4335.24 Z " />
<path stroke="transparent" fill="#000000" transform="matrix(0.05 0 0 0.05 -355 -184)" d="M 10696.6,3988.24 L 10700.1,3982.24 L 10707.6,3983.22 L 10787.3,4121.4 L 10776.9,4127.4 L 10696.6,3988.24 Z " />
<path stroke="transparent" fill="#000000" transform="matrix(0.05 0 0 0.05 -355 -184)" d="M 10415.5,3988.24 L 10408.6,3976.24 L 10689.7,3976.24 L 10700.1,3982.24 L 10696.6,3988.24 L 10415.5,3988.24 Z " />
<path stroke="transparent" fill="#000000" transform="matrix(0.05 0 0 0.05 -355 -184)" d="M 10275,4231.65 L 10268.1,4231.65 L 10264.6,4225.65 L 10408.6,3976.24 L 10415.5,3988.24 L 10275,4231.65 Z " />
<path stroke="transparent" fill="#000000" transform="matrix(0.05 0 0 0.05 -355 -184)" d="M 10333.1,4234.65 L 10322.7,4228.65 L 10436.8,4031.08 L 10447.2,4037.08 L 10333.1,4234.65 Z " />
<path stroke="transparent" fill="#000000" transform="matrix(0.05 0 0 0.05 -355 -184)" d="M 10415.5,4475.07 L 10412.1,4481.07 L 10405.1,4481.07 L 10264.6,4237.65 L 10268.1,4231.65 L 10275,4231.65 L 10415.5,4475.07 Z " />
<text x="0" y="0" stroke="transparent" fill="#000000" transform="matrix(0.05 0 0 0.05 183.592 130.965)" style="font:normal normal normal 200px 'Arial'" >
N</text>
<text x="0" y="0" stroke="transparent" fill="#000000" transform="matrix(0.05 0 0 0.05 190.814 127.354)" style="font:normal normal normal 150px 'Arial'" >
+</text>
<path stroke="transparent" fill="#000000" transform="matrix(0.05 0 0 0.05 -355 -184)" d="M 10275,6227.08 L 10268.1,6227.08 L 10264.6,6221.08 L 10405.1,5977.67 L 10412.1,5977.67 L 10415.5,5983.67 L 10275,6227.08 Z " />
<path stroke="transparent" fill="#000000" transform="matrix(0.05 0 0 0.05 -355 -184)" d="M 10415.5,6470.5 L 10408.6,6482.5 L 10264.6,6233.08 L 10268.1,6227.08 L 10275,6227.08 L 10415.5,6470.5 Z " />
<path stroke="transparent" fill="#000000" transform="matrix(0.05 0 0 0.05 -355 -184)" d="M 10447.2,6421.66 L 10436.8,6427.66 L 10322.7,6230.08 L 10333.1,6224.08 L 10447.2,6421.66 Z " />
<path stroke="transparent" fill="#000000" transform="matrix(0.05 0 0 0.05 -355 -184)" d="M 10696.6,6470.5 L 10700.1,6476.5 L 10692.2,6482.5 L 10408.6,6482.5 L 10415.5,6470.5 L 10696.6,6470.5 Z " />
<path stroke="transparent" fill="#000000" transform="matrix(0.05 0 0 0.05 -355 -184)" d="M 10777.3,6330.67 L 10787.7,6336.67 L 10708.3,6474.3 L 10700.1,6476.5 L 10696.6,6470.5 L 10777.3,6330.67 Z " />
<path stroke="transparent" fill="#000000" transform="matrix(0.05 0 0 0.05 -355 -184)" d="M 10696.6,5983.67 L 10700.1,5977.67 L 10707,5977.67 L 10787.3,6116.83 L 10776.9,6122.83 L 10696.6,5983.67 Z " />
<path stroke="transparent" fill="#000000" transform="matrix(0.05 0 0 0.05 -355 -184)" d="M 10664.9,6032.51 L 10675.3,6026.51 L 10742.4,6142.75 L 10732.1,6148.75 L 10664.9,6032.51 Z " />
<path stroke="transparent" fill="#000000" transform="matrix(0.05 0 0 0.05 -355 -184)" d="M 10550.9,3735.82 L 10561.3,3729.82 L 10701.4,3972.46 L 10700.1,3982.24 L 10689.7,3976.24 L 10550.9,3735.82 Z " />
<path stroke="transparent" fill="#000000" transform="matrix(0.05 0 0 0.05 -355 -184)" d="M 10899.5,3774.35 L 10908,3782.83 L 10707.6,3983.22 L 10700.1,3982.24 L 10701.4,3972.46 L 10899.5,3774.35 Z " />
<path stroke="transparent" fill="#000000" transform="matrix(0.05 0 0 0.05 -355 -184)" d="M 11132.1,4225.65 L 11132.1,4237.65 L 10931.8,4237.65 L 10931.8,4225.65 L 11132.1,4225.65 Z " />
<path stroke="transparent" fill="#000000" transform="matrix(0.05 0 0 0.05 -355 -184)" d="M 9976.6,4237.65 L 9983.53,4225.65 L 10264.6,4225.65 L 10268.1,4231.65 L 10264.6,4237.65 L 9976.6,4237.65 Z " />
<text x="0" y="0" stroke="transparent" fill="#000000" transform="matrix(0.05 0 0 0.05 119.021 15.1118)" style="font:normal normal normal 150px 'Arial'" >
-</text>
<text x="0" y="0" stroke="transparent" fill="#000000" transform="matrix(0.05 0 0 0.05 121.519 18.7229)" style="font:normal normal normal 200px 'Arial'" >
O</text>
<text x="0" y="0" stroke="transparent" fill="#000000" transform="matrix(0.05 0 0 0.05 129.297 20.5562)" style="font:normal normal normal 150px 'Arial'" >
3</text>
<text x="0" y="0" stroke="transparent" fill="#000000" transform="matrix(0.05 0 0 0.05 133.468 18.7229)" style="font:normal normal normal 200px 'Arial'" >
S</text>
<path stroke="transparent" fill="#000000" transform="matrix(0.05 0 0 0.05 -355 -184)" d="M 9884.78,4078.61 L 9895.17,4072.61 L 9983.53,4225.65 L 9976.6,4237.65 L 9884.78,4078.61 Z " />
<path stroke="transparent" fill="#000000" transform="matrix(0.05 0 0 0.05 -355 -184)" d="M 9960.21,5714.96 L 9946.59,5714.54 L 9832.35,5484.67 L 9836.07,5478.67 L 9842.87,5478.88 L 9960.21,5714.96 Z " />
<path stroke="transparent" fill="#000000" transform="matrix(0.05 0 0 0.05 -355 -184)" d="M 11132.1,6221.08 L 11132.1,6233.08 L 11027.8,6233.08 L 11027.8,6221.08 L 11132.1,6221.08 Z " />
<path stroke="transparent" fill="#000000" transform="matrix(0.05 0 0 0.05 -355 -184)" d="M 10952.5,6615.3 L 10946.5,6625.69 L 10703.8,6485.6 L 10700.1,6476.5 L 10708.3,6474.3 L 10952.5,6615.3 Z " />
<path stroke="transparent" fill="#000000" transform="matrix(0.05 0 0 0.05 -355 -184)" d="M 10631.3,6756.24 L 10619.7,6753.13 L 10692.2,6482.5 L 10700.1,6476.5 L 10703.8,6485.6 L 10631.3,6756.24 Z " />
<path stroke="transparent" fill="#000000" transform="matrix(0.05 0 0 0.05 -355 -184)" d="M 9983.53,6233.08 L 9976.6,6221.08 L 10264.6,6221.08 L 10268.1,6227.08 L 10264.6,6233.08 L 9983.53,6233.08 Z " />
<text x="0" y="0" stroke="transparent" fill="#000000" transform="matrix(0.05 0 0 0.05 119.021 139.825)" style="font:normal normal normal 150px 'Arial'" >
-</text>
<text x="0" y="0" stroke="transparent" fill="#000000" transform="matrix(0.05 0 0 0.05 121.519 143.436)" style="font:normal normal normal 200px 'Arial'" >
O</text>
<text x="0" y="0" stroke="transparent" fill="#000000" transform="matrix(0.05 0 0 0.05 129.297 145.269)" style="font:normal normal normal 150px 'Arial'" >
3</text>
<text x="0" y="0" stroke="transparent" fill="#000000" transform="matrix(0.05 0 0 0.05 133.468 143.436)" style="font:normal normal normal 200px 'Arial'" >
S</text>
<path stroke="transparent" fill="#000000" transform="matrix(0.05 0 0 0.05 -355 -184)" d="M 9894.26,6387.71 L 9883.87,6381.71 L 9976.6,6221.08 L 9983.53,6233.08 L 9894.26,6387.71 Z " />
<text x="0" y="0" stroke="transparent" fill="#000000" transform="matrix(0.05 0 0 0.05 124.359 117.819)" style="font:normal normal normal 200px 'Arial'" >
HO</text>
<path stroke="transparent" fill="#000000" transform="matrix(0.05 0 0 0.05 -355 -184)" d="M 9868.13,5874.44 L 9857.74,5868.44 L 9946.59,5714.54 L 9960.21,5714.96 L 9868.13,5874.44 Z " />
<text x="0" y="0" stroke="transparent" fill="#000000" transform="matrix(0.05 0 0 0.05 148.69 105.076)" style="font:normal normal normal 200px 'Arial'" >
O</text>
<path stroke="transparent" fill="#000000" transform="matrix(0.05 0 0 0.05 -355 -184)" d="M 10050.2,5688.23 L 10050.5,5700.22 L 9944.81,5703.14 L 9944.48,5691.14 L 10050.2,5688.23 Z " />
<path stroke="transparent" fill="#000000" transform="matrix(0.05 0 0 0.05 -355 -184)" d="M 10051.2,5723.9 L 10051.5,5735.9 L 9943.09,5738.88 L 9942.76,5726.89 L 10051.2,5723.9 Z " />
</svg>
