<?xml version="1.0" standalone="no" ?>
<!DOCTYPE svg PUBLIC "-//W3C//DTD SVG 1.1//EN" "http://www.w3.org/Graphics/SVG/1.1/DTD/svg11.dtd">
<svg width="562px" height="146px" viewBox="0 0 562 146" style="background-color: #ffffffff" xmlns="http://www.w3.org/2000/svg" xmlns:xlink="http://www.w3.org/1999/xlink" version="1.1" >
<text x="0" y="0" stroke="transparent" fill="#000000" transform="matrix(0.05 0 0 0.05 182.723 92.4257)" style="font:normal normal normal 200px 'Arial'" >
N</text>
<path stroke="transparent" fill="#000000" transform="matrix(0.05 0 0 0.05 -163 -408)" d="M 7676.08,9652.4 L 7682.08,9649.93 L 7688.08,9654.29 L 7688.08,9933.57 L 7682.08,9937.93 L 7676.08,9935.43 L 7676.08,9652.4 Z " />
<path stroke="transparent" fill="#000000" transform="matrix(0.05 0 0 0.05 -163 -408)" d="M 7476.93,9451.64 L 7479.44,9445.65 L 7486.94,9444.69 L 7683.74,9643.08 L 7682.08,9649.93 L 7676.08,9652.4 L 7476.93,9451.64 Z " />
<path stroke="transparent" fill="#000000" transform="matrix(0.05 0 0 0.05 -163 -408)" d="M 7193.91,9450.98 L 7191.44,9444.97 L 7194.92,9438.98 L 7475.99,9439.64 L 7479.44,9445.65 L 7476.93,9451.64 L 7193.91,9450.98 Z " />
<path stroke="transparent" fill="#000000" transform="matrix(0.05 0 0 0.05 -163 -408)" d="M 7221.48,9399.2 L 7221.5,9387.2 L 7449.65,9387.74 L 7449.62,9399.74 L 7221.48,9399.2 Z " />
<path stroke="transparent" fill="#000000" transform="matrix(0.05 0 0 0.05 -163 -408)" d="M 6993.35,9650.79 L 6981.37,9645.79 L 7183.94,9443.97 L 7191.44,9444.97 L 7193.91,9450.98 L 6993.35,9650.79 Z " />
<path stroke="transparent" fill="#000000" transform="matrix(0.05 0 0 0.05 -163 -408)" d="M 6992.93,9831.86 L 6980.93,9831.83 L 6981.37,9645.79 L 6993.35,9650.79 L 6992.93,9831.86 Z " />
<path stroke="transparent" fill="#000000" transform="matrix(0.05 0 0 0.05 -163 -408)" d="M 7192.3,10134.4 L 7189.8,10140.4 L 7182.3,10141.3 L 7068.54,10027 L 7077.05,10018.6 L 7192.3,10134.4 Z " />
<path stroke="transparent" fill="#000000" transform="matrix(0.05 0 0 0.05 -163 -408)" d="M 7475.33,10135 L 7477.8,10141 L 7474.32,10147 L 7193.25,10146.4 L 7189.8,10140.4 L 7192.3,10134.4 L 7475.33,10135 Z " />
<path stroke="transparent" fill="#000000" transform="matrix(0.05 0 0 0.05 -163 -408)" d="M 7447.76,10186.8 L 7447.74,10198.8 L 7219.59,10198.3 L 7219.62,10186.3 L 7447.76,10186.8 Z " />
<path stroke="transparent" fill="#000000" transform="matrix(0.05 0 0 0.05 -163 -408)" d="M 7676.08,9935.43 L 7682.08,9937.93 L 7683.71,9944.77 L 7485.3,10142.1 L 7477.8,10141 L 7475.33,10135 L 7676.08,9935.43 Z " />
<path stroke="transparent" fill="#000000" transform="matrix(0.05 0 0 0.05 -163 -408)" d="M 7617.1,9196.57 L 7630.95,9196.61 L 7486.94,9444.69 L 7479.44,9445.65 L 7475.99,9439.64 L 7617.1,9196.57 Z " />
<path stroke="transparent" fill="#000000" transform="matrix(0.05 0 0 0.05 -163 -408)" d="M 7477.13,8952.84 L 7484.09,8940.86 L 7630.95,9196.61 L 7617.1,9196.57 L 7477.13,8952.84 Z " />
<path stroke="transparent" fill="#000000" transform="matrix(0.05 0 0 0.05 -163 -408)" d="M 7445.36,9001.61 L 7455.77,8995.63 L 7569.37,9193.46 L 7558.96,9199.44 L 7445.36,9001.61 Z " />
<path stroke="transparent" fill="#000000" transform="matrix(0.05 0 0 0.05 -163 -408)" d="M 7196.06,8952.18 L 7189.16,8940.17 L 7484.09,8940.86 L 7477.13,8952.84 L 7196.06,8952.18 Z " />
<path stroke="transparent" fill="#000000" transform="matrix(0.05 0 0 0.05 -163 -408)" d="M 7054.96,9195.25 L 7041.1,9195.22 L 7189.16,8940.17 L 7196.06,8952.18 L 7054.96,9195.25 Z " />
<path stroke="transparent" fill="#000000" transform="matrix(0.05 0 0 0.05 -163 -408)" d="M 7113.07,9198.39 L 7102.7,9192.36 L 7217.23,8995.07 L 7227.61,9001.09 L 7113.07,9198.39 Z " />
<path stroke="transparent" fill="#000000" transform="matrix(0.05 0 0 0.05 -163 -408)" d="M 7194.92,9438.98 L 7191.44,9444.97 L 7183.94,9443.97 L 7041.1,9195.22 L 7054.96,9195.25 L 7194.92,9438.98 Z " />
<path stroke="transparent" fill="#000000" transform="matrix(0.05 0 0 0.05 -163 -408)" d="M 7052.14,10389.4 L 7038.29,10389.4 L 7182.3,10141.3 L 7189.8,10140.4 L 7193.25,10146.4 L 7052.14,10389.4 Z " />
<path stroke="transparent" fill="#000000" transform="matrix(0.05 0 0 0.05 -163 -408)" d="M 7192.11,10633.2 L 7185.15,10645.2 L 7038.29,10389.4 L 7052.14,10389.4 L 7192.11,10633.2 Z " />
<path stroke="transparent" fill="#000000" transform="matrix(0.05 0 0 0.05 -163 -408)" d="M 7223.88,10584.4 L 7213.47,10590.4 L 7099.87,10392.6 L 7110.28,10386.6 L 7223.88,10584.4 Z " />
<path stroke="transparent" fill="#000000" transform="matrix(0.05 0 0 0.05 -163 -408)" d="M 7473.18,10633.8 L 7480.08,10645.9 L 7185.15,10645.2 L 7192.11,10633.2 L 7473.18,10633.8 Z " />
<path stroke="transparent" fill="#000000" transform="matrix(0.05 0 0 0.05 -163 -408)" d="M 7614.29,10390.8 L 7628.14,10390.8 L 7480.08,10645.9 L 7473.18,10633.8 L 7614.29,10390.8 Z " />
<path stroke="transparent" fill="#000000" transform="matrix(0.05 0 0 0.05 -163 -408)" d="M 7556.17,10387.6 L 7566.55,10393.7 L 7452.01,10591 L 7441.63,10584.9 L 7556.17,10387.6 Z " />
<path stroke="transparent" fill="#000000" transform="matrix(0.05 0 0 0.05 -163 -408)" d="M 7474.32,10147 L 7477.8,10141 L 7485.3,10142.1 L 7628.14,10390.8 L 7614.29,10390.8 L 7474.32,10147 Z " />
<path stroke="transparent" fill="#000000" transform="matrix(0.05 0 0 0.05 -163 -408)" d="M 6736.93,10086.6 L 6736.96,10072.8 L 6881.26,9989.91 L 6887.24,10000.3 L 6736.93,10086.6 Z " />
<path stroke="transparent" fill="#000000" transform="matrix(0.05 0 0 0.05 -163 -408)" d="M 6487.87,9942.05 L 6487.9,9928.19 L 6736.96,10072.8 L 6736.93,10086.6 L 6487.87,9942.05 Z " />
<path stroke="transparent" fill="#000000" transform="matrix(0.05 0 0 0.05 -163 -408)" d="M 6238.13,10085.5 L 6238.16,10071.6 L 6487.9,9928.19 L 6487.87,9942.05 L 6238.13,10085.5 Z " />
<text x="0" y="0" stroke="transparent" fill="#000000" transform="matrix(0.05 0 0 0.05 132.861 83.4569)" style="font:normal normal normal 199px 'Arial'" >
H</text>
<text x="0" y="0" stroke="transparent" fill="#000000" transform="matrix(0.05 0 0 0.05 132.861 92.2902)" style="font:normal normal normal 199px 'Arial'" >
N</text>
<path stroke="transparent" fill="#000000" transform="matrix(0.05 0 0 0.05 -163 -408)" d="M 6086.05,9997.17 L 6092.07,9986.79 L 6238.16,10071.6 L 6238.13,10085.5 L 6086.05,9997.17 Z " />
<path stroke="transparent" fill="#000000" transform="matrix(0.05 0 0 0.05 -163 -408)" d="M 5739.33,10084.3 L 5739.36,10070.4 L 5883.95,9987.4 L 5889.93,9997.8 L 5739.33,10084.3 Z " />
<text x="0" y="0" stroke="transparent" fill="#000000" transform="matrix(0.05 0 0 0.05 120.044 113.879)" style="font:normal normal normal 200px 'Arial'" >
O</text>
<path stroke="transparent" fill="#000000" transform="matrix(0.05 0 0 0.05 -163 -408)" d="M 5770.84,10259 L 5758.84,10259 L 5759.3,10062.4 L 5771.3,10062.5 L 5770.84,10259 Z " />
<path stroke="transparent" fill="#000000" transform="matrix(0.05 0 0 0.05 -163 -408)" d="M 5719,10258.9 L 5707,10258.8 L 5707.46,10062.3 L 5719.46,10062.3 L 5719,10258.9 Z " />
<path stroke="transparent" fill="#000000" transform="matrix(0.05 0 0 0.05 -163 -408)" d="M 5492.46,9940.97 L 5490.29,9932.77 L 5494.69,9928.39 L 5739.36,10070.4 L 5739.33,10084.3 L 5492.46,9940.97 Z " />
<path stroke="transparent" fill="#000000" transform="matrix(0.05 0 0 0.05 -163 -408)" d="M 5343.4,9689.02 L 5350.35,9677.04 L 5494.69,9928.39 L 5490.29,9932.77 L 5483.36,9932.75 L 5343.4,9689.02 Z " />
<path stroke="transparent" fill="#000000" transform="matrix(0.05 0 0 0.05 -163 -408)" d="M 5062.32,9688.36 L 5058.87,9682.35 L 5062.35,9676.36 L 5350.35,9677.04 L 5343.4,9689.02 L 5062.32,9688.36 Z " />
<path stroke="transparent" fill="#000000" transform="matrix(0.05 0 0 0.05 -163 -408)" d="M 5088.67,9740.26 L 5088.7,9728.26 L 5316.84,9728.8 L 5316.81,9740.8 L 5088.67,9740.26 Z " />
<path stroke="transparent" fill="#000000" transform="matrix(0.05 0 0 0.05 -163 -408)" d="M 4921.22,9931.43 L 4914.29,9931.41 L 4910.84,9925.4 L 5051.95,9682.34 L 5058.87,9682.35 L 5062.32,9688.36 L 4921.22,9931.43 Z " />
<path stroke="transparent" fill="#000000" transform="matrix(0.05 0 0 0.05 -163 -408)" d="M 5061.18,10175.2 L 5054.22,10187.1 L 4910.81,9937.4 L 4914.29,9931.41 L 4921.22,9931.43 L 5061.18,10175.2 Z " />
<path stroke="transparent" fill="#000000" transform="matrix(0.05 0 0 0.05 -163 -408)" d="M 5092.95,10126.4 L 5082.55,10132.4 L 4968.94,9934.54 L 4979.35,9928.57 L 5092.95,10126.4 Z " />
<path stroke="transparent" fill="#000000" transform="matrix(0.05 0 0 0.05 -163 -408)" d="M 5342.25,10175.8 L 5349.15,10187.8 L 5054.22,10187.1 L 5061.18,10175.2 L 5342.25,10175.8 Z " />
<path stroke="transparent" fill="#000000" transform="matrix(0.05 0 0 0.05 -163 -408)" d="M 5483.36,9932.75 L 5490.29,9932.77 L 5492.46,9940.97 L 5349.15,10187.8 L 5342.25,10175.8 L 5483.36,9932.75 Z " />
<path stroke="transparent" fill="#000000" transform="matrix(0.05 0 0 0.05 -163 -408)" d="M 5425.24,9929.62 L 5435.62,9935.64 L 5321.08,10132.9 L 5310.71,10126.9 L 5425.24,9929.62 Z " />
<path stroke="transparent" fill="#000000" transform="matrix(0.05 0 0 0.05 -163 -408)" d="M 4629.74,9936.74 L 4626.29,9930.73 L 4629.77,9924.74 L 4910.84,9925.4 L 4914.29,9931.41 L 4910.81,9937.4 L 4629.74,9936.74 Z " />
<text x="0" y="0" stroke="transparent" fill="#000000" transform="matrix(0.05 0 0 0.05 35.6253 92.08)" style="font:normal normal normal 200px 'Arial'" >
O</text>
<path stroke="transparent" fill="#000000" transform="matrix(0.05 0 0 0.05 -163 -408)" d="M 4479.4,9686.99 L 4482.88,9681 L 4489.8,9681.01 L 4629.77,9924.74 L 4626.29,9930.73 L 4619.36,9930.72 L 4479.4,9686.99 Z " />
<path stroke="transparent" fill="#000000" transform="matrix(0.05 0 0 0.05 -163 -408)" d="M 4447.62,9735.75 L 4458.03,9729.78 L 4571.63,9927.61 L 4561.23,9933.58 L 4447.62,9735.75 Z " />
<path stroke="transparent" fill="#000000" transform="matrix(0.05 0 0 0.05 -163 -408)" d="M 4198.33,9686.33 L 4194.88,9680.32 L 4198.35,9674.33 L 4479.43,9674.99 L 4482.88,9681 L 4479.4,9686.99 L 4198.33,9686.33 Z " />
<path stroke="transparent" fill="#000000" transform="matrix(0.05 0 0 0.05 -163 -408)" d="M 4109.16,9839.92 L 4098.78,9833.9 L 4187.95,9680.3 L 4194.88,9680.32 L 4198.33,9686.33 L 4109.16,9839.92 Z " />
<path stroke="transparent" fill="#000000" transform="matrix(0.05 0 0 0.05 -163 -408)" d="M 4197.18,10173.1 L 4193.7,10179.1 L 4186.77,10179.1 L 4098.31,10025.1 L 4108.72,10019.1 L 4197.18,10173.1 Z " />
<path stroke="transparent" fill="#000000" transform="matrix(0.05 0 0 0.05 -163 -408)" d="M 4478.25,10173.8 L 4481.7,10179.8 L 4478.22,10185.8 L 4197.15,10185.1 L 4193.7,10179.1 L 4197.18,10173.1 L 4478.25,10173.8 Z " />
<path stroke="transparent" fill="#000000" transform="matrix(0.05 0 0 0.05 -163 -408)" d="M 4619.36,9930.72 L 4626.29,9930.73 L 4629.74,9936.74 L 4488.63,10179.8 L 4481.7,10179.8 L 4478.25,10173.8 L 4619.36,9930.72 Z " />
<path stroke="transparent" fill="#000000" transform="matrix(0.05 0 0 0.05 -163 -408)" d="M 4056.04,10428.2 L 4049.12,10428.2 L 4045.67,10422.2 L 4186.77,10179.1 L 4193.7,10179.1 L 4197.15,10185.1 L 4056.04,10428.2 Z " />
<path stroke="transparent" fill="#000000" transform="matrix(0.05 0 0 0.05 -163 -408)" d="M 4196.01,10671.9 L 4192.53,10677.9 L 4185.6,10677.9 L 4045.64,10434.2 L 4049.12,10428.2 L 4056.04,10428.2 L 4196.01,10671.9 Z " />
<path stroke="transparent" fill="#000000" transform="matrix(0.05 0 0 0.05 -163 -408)" d="M 4227.78,10623.2 L 4217.37,10629.1 L 4103.77,10431.3 L 4114.18,10425.3 L 4227.78,10623.2 Z " />
<path stroke="transparent" fill="#000000" transform="matrix(0.05 0 0 0.05 -163 -408)" d="M 4477.08,10672.6 L 4483.98,10684.6 L 4195.98,10683.9 L 4192.53,10677.9 L 4196.01,10671.9 L 4477.08,10672.6 Z " />
<path stroke="transparent" fill="#000000" transform="matrix(0.05 0 0 0.05 -163 -408)" d="M 4618.19,10429.5 L 4632.04,10429.5 L 4483.98,10684.6 L 4477.08,10672.6 L 4618.19,10429.5 Z " />
<path stroke="transparent" fill="#000000" transform="matrix(0.05 0 0 0.05 -163 -408)" d="M 4478.22,10185.8 L 4481.7,10179.8 L 4488.63,10179.8 L 4632.04,10429.5 L 4618.19,10429.5 L 4478.22,10185.8 Z " />
<path stroke="transparent" fill="#000000" transform="matrix(0.05 0 0 0.05 -163 -408)" d="M 4446.45,10234.5 L 4456.86,10228.6 L 4570.46,10426.4 L 4560.05,10432.4 L 4446.45,10234.5 Z " />
<path stroke="transparent" fill="#000000" transform="matrix(0.05 0 0 0.05 -163 -408)" d="M 4620.54,9431.92 L 4634.39,9431.95 L 4489.8,9681.01 L 4482.88,9681 L 4479.43,9674.99 L 4620.54,9431.92 Z " />
<path stroke="transparent" fill="#000000" transform="matrix(0.05 0 0 0.05 -163 -408)" d="M 4480.57,9187.99 L 4487.53,9176.01 L 4634.39,9431.95 L 4620.54,9431.92 L 4480.57,9187.99 Z " />
<path stroke="transparent" fill="#000000" transform="matrix(0.05 0 0 0.05 -163 -408)" d="M 4448.77,9236.78 L 4459.18,9230.81 L 4572.78,9428.8 L 4562.37,9434.77 L 4448.77,9236.78 Z " />
<path stroke="transparent" fill="#000000" transform="matrix(0.05 0 0 0.05 -163 -408)" d="M 4199.5,9187.33 L 4192.6,9175.31 L 4487.53,9176.01 L 4480.57,9187.99 L 4199.5,9187.33 Z " />
<path stroke="transparent" fill="#000000" transform="matrix(0.05 0 0 0.05 -163 -408)" d="M 4058.39,9430.59 L 4051.46,9430.58 L 4048.01,9424.57 L 4192.6,9175.31 L 4199.5,9187.33 L 4058.39,9430.59 Z " />
<path stroke="transparent" fill="#000000" transform="matrix(0.05 0 0 0.05 -163 -408)" d="M 4198.35,9674.33 L 4194.88,9680.32 L 4187.95,9680.3 L 4047.99,9436.57 L 4051.46,9430.58 L 4058.39,9430.59 L 4198.35,9674.33 Z " />
<path stroke="transparent" fill="#000000" transform="matrix(0.05 0 0 0.05 -163 -408)" d="M 4230.13,9625.56 L 4219.72,9631.54 L 4106.11,9433.7 L 4116.52,9427.72 L 4230.13,9625.56 Z " />
<text x="0" y="0" stroke="transparent" fill="#000000" transform="matrix(0.05 0 0 0.05 169.924 113.996)" style="font:normal normal normal 200px 'Arial'" >
O</text>
<path stroke="transparent" fill="#000000" transform="matrix(0.05 0 0 0.05 -163 -408)" d="M 6768.44,10261.3 L 6756.44,10261.3 L 6756.9,10064.8 L 6768.9,10064.8 L 6768.44,10261.3 Z " />
<path stroke="transparent" fill="#000000" transform="matrix(0.05 0 0 0.05 -163 -408)" d="M 6716.6,10261.2 L 6704.6,10261.2 L 6705.06,10064.7 L 6717.06,10064.7 L 6716.6,10261.2 Z " />
<path stroke="transparent" fill="#000000" transform="matrix(0.05 0 0 0.05 -163 -408)" d="M 4908.53,9432.6 L 4922.39,9432.63 L 5062.35,9676.36 L 5058.87,9682.35 L 5051.95,9682.34 L 4908.53,9432.6 Z " />
<text x="0" y="0" stroke="transparent" fill="#000000" transform="matrix(0.05 0 0 0.05 86.1328 54.7607)" style="font:normal normal normal 199px 'Arial'" >
OH</text>
<path stroke="transparent" fill="#000000" transform="matrix(0.05 0 0 0.05 -163 -408)" d="M 5001.46,9272.41 L 5011.84,9278.43 L 4922.39,9432.63 L 4908.53,9432.6 L 5001.46,9272.41 Z " />
<text x="0" y="0" stroke="transparent" fill="#000000" transform="matrix(0.05 0 0 0.05 2.66226 116.968)" style="font:normal normal normal 199px 'Arial'" >
HO</text>
<text x="0" y="0" stroke="transparent" fill="#000000" transform="matrix(0.05 0 0 0.05 17.5873 118.792)" style="font:normal normal normal 149.25px 'Arial'" >
3</text>
<text x="0" y="0" stroke="transparent" fill="#000000" transform="matrix(0.05 0 0 0.05 21.7375 116.968)" style="font:normal normal normal 199px 'Arial'" >
S</text>
<path stroke="transparent" fill="#000000" transform="matrix(0.05 0 0 0.05 -163 -408)" d="M 3849.23,10433.7 L 3849.26,10421.7 L 4045.67,10422.2 L 4049.12,10428.2 L 4045.64,10434.2 L 3849.23,10433.7 Z " />
<text x="0" y="0" stroke="transparent" fill="#000000" transform="matrix(0.05 0 0 0.05 24.4684 141.942)" style="font:normal normal normal 199px 'Arial'" >
H</text>
<text x="0" y="0" stroke="transparent" fill="#000000" transform="matrix(0.05 0 0 0.05 31.654 143.766)" style="font:normal normal normal 149.25px 'Arial'" >
2</text>
<text x="0" y="0" stroke="transparent" fill="#000000" transform="matrix(0.05 0 0 0.05 35.8043 141.942)" style="font:normal normal normal 199px 'Arial'" >
N</text>
<path stroke="transparent" fill="#000000" transform="matrix(0.05 0 0 0.05 -163 -408)" d="M 4114.35,10824.5 L 4103.97,10818.5 L 4185.6,10677.9 L 4192.53,10677.9 L 4195.98,10683.9 L 4114.35,10824.5 Z " />
<text x="0" y="0" stroke="transparent" fill="#000000" transform="matrix(0.05 0 0 0.05 7.48019 63.4951)" style="font:normal normal normal 149.25px 'Arial'" >
-</text>
<text x="0" y="0" stroke="transparent" fill="#000000" transform="matrix(0.05 0 0 0.05 9.96526 67.0881)" style="font:normal normal normal 199px 'Arial'" >
O</text>
<text x="0" y="0" stroke="transparent" fill="#000000" transform="matrix(0.05 0 0 0.05 17.7047 68.9123)" style="font:normal normal normal 149.25px 'Arial'" >
3</text>
<text x="0" y="0" stroke="transparent" fill="#000000" transform="matrix(0.05 0 0 0.05 21.855 67.0881)" style="font:normal normal normal 199px 'Arial'" >
S</text>
<path stroke="transparent" fill="#000000" transform="matrix(0.05 0 0 0.05 -163 -408)" d="M 3851.59,9436.11 L 3851.62,9424.11 L 4048.01,9424.57 L 4051.46,9430.58 L 4047.99,9436.57 L 3851.59,9436.11 Z " />
<text x="0" y="0" stroke="transparent" fill="#000000" transform="matrix(0.05 0 0 0.05 20.3453 38.5791)" style="font:normal normal normal 149.25px 'Arial'" >
+</text>
<text x="0" y="0" stroke="transparent" fill="#000000" transform="matrix(0.05 0 0 0.05 24.7033 42.1721)" style="font:normal normal normal 199px 'Arial'" >
H</text>
<text x="0" y="0" stroke="transparent" fill="#000000" transform="matrix(0.05 0 0 0.05 31.8889 43.9963)" style="font:normal normal normal 149.25px 'Arial'" >
2</text>
<text x="0" y="0" stroke="transparent" fill="#000000" transform="matrix(0.05 0 0 0.05 36.0392 42.1721)" style="font:normal normal normal 199px 'Arial'" >
N</text>
<path stroke="transparent" fill="#000000" transform="matrix(0.05 0 0 0.05 -163 -408)" d="M 4085.42,9052.76 L 4095.82,9046.78 L 4186.24,9204.22 L 4175.83,9210.2 L 4085.42,9052.76 Z " />
<path stroke="transparent" fill="#000000" transform="matrix(0.05 0 0 0.05 -163 -408)" d="M 4130.37,9026.94 L 4140.78,9020.97 L 4231.18,9178.4 L 4220.78,9184.38 L 4130.37,9026.94 Z " />
<text x="0" y="0" stroke="transparent" fill="#000000" transform="matrix(0.05 0 0 0.05 69.7443 67.0803)" style="font:normal normal normal 200px 'Arial'" >
O</text>
<path stroke="transparent" fill="#000000" transform="matrix(0.05 0 0 0.05 -163 -408)" d="M 4832.46,9453.6 L 4832.67,9441.61 L 4925.12,9443.24 L 4924.9,9455.24 L 4832.46,9453.6 Z " />
<path stroke="transparent" fill="#000000" transform="matrix(0.05 0 0 0.05 -163 -408)" d="M 4833.04,9420.7 L 4833.26,9408.7 L 4925.02,9410.33 L 4924.8,9422.32 L 4833.04,9420.7 Z " />
<text x="0" y="0" stroke="transparent" fill="#000000" transform="matrix(0.05 0 0 0.05 231.188 96.9574)" style="font:normal normal normal 200px 'Arial'" >
N</text>
<text x="0" y="0" stroke="transparent" fill="#000000" transform="matrix(0.05 0 0 0.05 239.652 85.3076)" style="font:normal normal normal 200px 'Arial'" >
N</text>
<text x="0" y="0" stroke="transparent" fill="#000000" transform="matrix(0.05 0 0 0.05 231.188 73.6578)" style="font:normal normal normal 200px 'Arial'" >
N</text>
<path stroke="transparent" fill="#000000" transform="matrix(0.05 0 0 0.05 -163 -408)" d="M 7857.57,9988.64 L 7853.86,10000.1 L 7683.71,9944.77 L 7682.08,9937.93 L 7688.08,9933.57 L 7857.57,9988.64 Z " />
<path stroke="transparent" fill="#000000" transform="matrix(0.05 0 0 0.05 -163 -408)" d="M 8047.46,9890.81 L 8057.17,9897.86 L 8033.37,9930.62 L 8023.66,9923.57 L 8047.46,9890.81 Z " />
<path stroke="transparent" fill="#000000" transform="matrix(0.05 0 0 0.05 -163 -408)" d="M 8005.52,9860.34 L 8015.23,9867.39 L 7991.43,9900.15 L 7981.72,9893.1 L 8005.52,9860.34 Z " />
<path stroke="transparent" fill="#000000" transform="matrix(0.05 0 0 0.05 -163 -408)" d="M 8023.24,9663.71 L 8032.95,9656.65 L 8056.75,9689.41 L 8047.04,9696.47 L 8023.24,9663.71 Z " />
<path stroke="transparent" fill="#000000" transform="matrix(0.05 0 0 0.05 -163 -408)" d="M 7688.08,9654.29 L 7682.08,9649.93 L 7683.74,9643.08 L 7853.83,9587.82 L 7857.54,9599.23 L 7688.08,9654.29 Z " />
<text x="0" y="0" stroke="transparent" fill="#000000" transform="matrix(0.05 0 0 0.05 520.096 100.538)" style="font:normal normal normal 200px 'Arial'" >
N</text>
<text x="0" y="0" stroke="transparent" fill="#000000" transform="matrix(0.05 0 0 0.05 534.496 100.548)" style="font:normal normal normal 200px 'Arial'" >
N</text>
<text x="0" y="0" stroke="transparent" fill="#000000" transform="matrix(0.05 0 0 0.05 534.506 75.5978)" style="font:normal normal normal 200px 'Arial'" >
N</text>
<text x="0" y="0" stroke="transparent" fill="#000000" transform="matrix(0.05 0 0 0.05 520.106 75.5978)" style="font:normal normal normal 200px 'Arial'" >
N</text>
<path stroke="transparent" fill="#000000" transform="matrix(0.05 0 0 0.05 -163 -408)" d="M 13931.9,10092.7 L 13931.9,10104.7 L 13821.9,10104.6 L 13821.9,10092.6 L 13931.9,10092.7 Z " />
<path stroke="transparent" fill="#000000" transform="matrix(0.05 0 0 0.05 -163 -408)" d="M 14159.2,9849.33 L 14166.1,9849.33 L 14169.6,9855.34 L 14088.6,9995.53 L 14078.3,9989.53 L 14159.2,9849.33 Z " />
<path stroke="transparent" fill="#000000" transform="matrix(0.05 0 0 0.05 -163 -408)" d="M 14101.1,9846.3 L 14111.5,9852.3 L 14043.8,9969.61 L 14033.4,9963.61 L 14101.1,9846.3 Z " />
<path stroke="transparent" fill="#000000" transform="matrix(0.05 0 0 0.05 -163 -408)" d="M 14078,9708.31 L 14088.4,9702.32 L 14169.6,9843.34 L 14166.1,9849.33 L 14159.2,9849.33 L 14078,9708.31 Z " />
<path stroke="transparent" fill="#000000" transform="matrix(0.05 0 0 0.05 -163 -408)" d="M 13822.1,9605.73 L 13822.1,9593.73 L 13932.1,9593.73 L 13932.1,9605.73 L 13822.1,9605.73 Z " />
<path stroke="transparent" fill="#000000" transform="matrix(0.05 0 0 0.05 -163 -408)" d="M 13822.1,9657.57 L 13822.1,9645.57 L 13932.1,9645.57 L 13932.1,9657.57 L 13822.1,9657.57 Z " />
<path stroke="transparent" fill="#000000" transform="matrix(0.05 0 0 0.05 -163 -408)" d="M 13597.1,9848.94 L 13590.1,9848.93 L 13586.7,9842.93 L 13667.5,9703.27 L 13677.9,9709.28 L 13597.1,9848.94 Z " />
<path stroke="transparent" fill="#000000" transform="matrix(0.05 0 0 0.05 -163 -408)" d="M 13677.4,9988.26 L 13667,9994.26 L 13586.7,9854.93 L 13590.1,9848.93 L 13597.1,9848.94 L 13677.4,9988.26 Z " />
<path stroke="transparent" fill="#000000" transform="matrix(0.05 0 0 0.05 -163 -408)" d="M 13722.4,9962.34 L 13712,9968.34 L 13644.8,9851.97 L 13655.2,9845.97 L 13722.4,9962.34 Z " />
<path stroke="transparent" fill="#000000" transform="matrix(0.05 0 0 0.05 -163 -408)" d="M 14454.1,9843.53 L 14454.1,9855.53 L 14169.6,9855.34 L 14166.1,9849.33 L 14169.6,9843.34 L 14454.1,9843.53 Z " />
<path stroke="transparent" fill="#000000" transform="matrix(0.05 0 0 0.05 -163 -408)" d="M 13305.6,9854.74 L 13302.1,9848.73 L 13305.6,9842.74 L 13586.7,9842.93 L 13590.1,9848.93 L 13586.7,9854.93 L 13305.6,9854.74 Z " />
<path stroke="transparent" fill="#000000" transform="matrix(0.05 0 0 0.05 -163 -408)" d="M 13154.9,9605.33 L 13161.8,9593.34 L 13305.6,9842.74 L 13302.1,9848.73 L 13295.2,9848.73 L 13154.9,9605.33 Z " />
<path stroke="transparent" fill="#000000" transform="matrix(0.05 0 0 0.05 -163 -408)" d="M 12873.8,9605.14 L 12866.9,9593.13 L 13161.8,9593.34 L 13154.9,9605.33 L 12873.8,9605.14 Z " />
<path stroke="transparent" fill="#000000" transform="matrix(0.05 0 0 0.05 -163 -408)" d="M 12900.2,9656.99 L 12900.2,9644.99 L 13128.4,9645.15 L 13128.4,9657.15 L 12900.2,9656.99 Z " />
<path stroke="transparent" fill="#000000" transform="matrix(0.05 0 0 0.05 -163 -408)" d="M 12733.1,9848.34 L 12726.1,9848.33 L 12722.7,9842.33 L 12866.9,9593.13 L 12873.8,9605.14 L 12733.1,9848.34 Z " />
<path stroke="transparent" fill="#000000" transform="matrix(0.05 0 0 0.05 -163 -408)" d="M 12873.6,10091.9 L 12866.7,10103.9 L 12722.7,9854.33 L 12726.1,9848.33 L 12733.1,9848.34 L 12873.6,10091.9 Z " />
<path stroke="transparent" fill="#000000" transform="matrix(0.05 0 0 0.05 -163 -408)" d="M 12905.3,10043.1 L 12894.9,10049.1 L 12780.8,9851.37 L 12791.2,9845.37 L 12905.3,10043.1 Z " />
<path stroke="transparent" fill="#000000" transform="matrix(0.05 0 0 0.05 -163 -408)" d="M 13154.7,10092.1 L 13161.6,10104.1 L 12866.7,10103.9 L 12873.6,10091.9 L 13154.7,10092.1 Z " />
<path stroke="transparent" fill="#000000" transform="matrix(0.05 0 0 0.05 -163 -408)" d="M 13295.2,9848.73 L 13302.1,9848.73 L 13305.6,9854.74 L 13161.6,10104.1 L 13154.7,10092.1 L 13295.2,9848.73 Z " />
<path stroke="transparent" fill="#000000" transform="matrix(0.05 0 0 0.05 -163 -408)" d="M 13237.1,9845.72 L 13247.5,9851.72 L 13133.4,10049.3 L 13123,10043.3 L 13237.1,9845.72 Z " />
<text x="0" y="0" stroke="transparent" fill="#000000" transform="matrix(0.05 0 0 0.05 455.017 88.0178)" style="font:normal normal normal 200px 'Arial'" >
O</text>
<path stroke="transparent" fill="#000000" transform="matrix(0.05 0 0 0.05 -163 -408)" d="M 12538.3,9854.2 L 12538.4,9842.2 L 12722.7,9842.33 L 12726.1,9848.33 L 12722.7,9854.33 L 12538.3,9854.2 Z " />
<path stroke="transparent" fill="#000000" transform="matrix(0.05 0 0 0.05 -163 -408)" d="M 12188.7,9998.86 L 12188.7,9985.01 L 12344.9,9894.97 L 12350.9,9905.37 L 12188.7,9998.86 Z " />
<path stroke="transparent" fill="#000000" transform="matrix(0.05 0 0 0.05 -163 -408)" d="M 11939.3,9854.86 L 11939.3,9841.01 L 12188.7,9985.01 L 12188.7,9998.86 L 11939.3,9854.86 Z " />
<path stroke="transparent" fill="#000000" transform="matrix(0.05 0 0 0.05 -163 -408)" d="M 11689.9,9998.66 L 11689.9,9984.81 L 11939.3,9841.01 L 11939.3,9854.86 L 11689.9,9998.66 Z " />
<text x="0" y="0" stroke="transparent" fill="#000000" transform="matrix(0.05 0 0 0.05 405.434 79.1364)" style="font:normal normal normal 199px 'Arial'" >
H</text>
<text x="0" y="0" stroke="transparent" fill="#000000" transform="matrix(0.05 0 0 0.05 405.434 87.9697)" style="font:normal normal normal 199px 'Arial'" >
N</text>
<path stroke="transparent" fill="#000000" transform="matrix(0.05 0 0 0.05 -163 -408)" d="M 11537.6,9910.56 L 11543.6,9900.17 L 11689.9,9984.81 L 11689.9,9998.66 L 11537.6,9910.56 Z " />
<path stroke="transparent" fill="#000000" transform="matrix(0.05 0 0 0.05 -163 -408)" d="M 11191.1,9998.26 L 11191.1,9984.41 L 11335.4,9901.2 L 11341.4,9911.6 L 11191.1,9998.26 Z " />
<path stroke="transparent" fill="#000000" transform="matrix(0.05 0 0 0.05 -163 -408)" d="M 10941.7,9854.06 L 10941.7,9840.21 L 11191.1,9984.41 L 11191.1,9998.26 L 10941.7,9854.06 Z " />
<path stroke="transparent" fill="#000000" transform="matrix(0.05 0 0 0.05 -163 -408)" d="M 10692.1,9997.86 L 10692.1,9984.01 L 10941.7,9840.21 L 10941.7,9854.06 L 10692.1,9997.86 Z " />
<text x="0" y="0" stroke="transparent" fill="#000000" transform="matrix(0.05 0 0 0.05 355.258 87.9578)" style="font:normal normal normal 200px 'Arial'" >
O</text>
<path stroke="transparent" fill="#000000" transform="matrix(0.05 0 0 0.05 -163 -408)" d="M 10530.3,9904.33 L 10536.3,9893.94 L 10692.1,9984.01 L 10692.1,9997.86 L 10530.3,9904.33 Z " />
<path stroke="transparent" fill="#000000" transform="matrix(0.05 0 0 0.05 -163 -408)" d="M 10193.3,9997.66 L 10193.3,9983.81 L 10349.7,9893.74 L 10355.7,9904.14 L 10193.3,9997.66 Z " />
<path stroke="transparent" fill="#000000" transform="matrix(0.05 0 0 0.05 -163 -408)" d="M 9944.13,9853.46 L 9944.14,9839.6 L 10193.3,9983.81 L 10193.3,9997.66 L 9944.13,9853.46 Z " />
<text x="0" y="0" stroke="transparent" fill="#000000" transform="matrix(0.05 0 0 0.05 317.838 95.1278)" style="font:normal normal normal 200px 'Arial'" >
O</text>
<path stroke="transparent" fill="#000000" transform="matrix(0.05 0 0 0.05 -163 -408)" d="M 9787.96,9943.43 L 9781.97,9933.03 L 9944.14,9839.6 L 9944.13,9853.46 L 9787.96,9943.43 Z " />
<path stroke="transparent" fill="#000000" transform="matrix(0.05 0 0 0.05 -163 -408)" d="M 9439.13,9849.59 L 9451.14,9842.67 L 9606.95,9932.76 L 9600.95,9943.15 L 9439.13,9849.59 Z " />
<text x="0" y="0" stroke="transparent" fill="#000000" transform="matrix(0.05 0 0 0.05 392.657 109.578)" style="font:normal normal normal 200px 'Arial'" >
O</text>
<path stroke="transparent" fill="#000000" transform="matrix(0.05 0 0 0.05 -163 -408)" d="M 11222.9,10172.9 L 11210.9,10172.9 L 11211.1,9976.38 L 11223.1,9976.39 L 11222.9,10172.9 Z " />
<path stroke="transparent" fill="#000000" transform="matrix(0.05 0 0 0.05 -163 -408)" d="M 11171.1,10172.9 L 11159.1,10172.9 L 11159.2,9976.35 L 11171.2,9976.36 L 11171.1,10172.9 Z " />
<text x="0" y="0" stroke="transparent" fill="#000000" transform="matrix(0.05 0 0 0.05 507.476 35.8578)" style="font:normal normal normal 200px 'Arial'" >
N</text>
<text x="0" y="0" stroke="transparent" fill="#000000" transform="matrix(0.05 0 0 0.05 521.876 35.8678)" style="font:normal normal normal 200px 'Arial'" >
N</text>
<text x="0" y="0" stroke="transparent" fill="#000000" transform="matrix(0.05 0 0 0.05 521.886 10.9278)" style="font:normal normal normal 200px 'Arial'" >
N</text>
<text x="0" y="0" stroke="transparent" fill="#000000" transform="matrix(0.05 0 0 0.05 507.486 10.9178)" style="font:normal normal normal 200px 'Arial'" >
N</text>
<path stroke="transparent" fill="#000000" transform="matrix(0.05 0 0 0.05 -163 -408)" d="M 13679.5,8799.07 L 13679.5,8811.07 L 13569.5,8810.99 L 13569.5,8798.99 L 13679.5,8799.07 Z " />
<path stroke="transparent" fill="#000000" transform="matrix(0.05 0 0 0.05 -163 -408)" d="M 13906.8,8555.73 L 13913.7,8555.73 L 13917.2,8561.74 L 13836.2,8701.93 L 13825.9,8695.93 L 13906.8,8555.73 Z " />
<path stroke="transparent" fill="#000000" transform="matrix(0.05 0 0 0.05 -163 -408)" d="M 13848.7,8552.72 L 13859.1,8558.72 L 13791.4,8676.01 L 13781,8670.01 L 13848.7,8552.72 Z " />
<path stroke="transparent" fill="#000000" transform="matrix(0.05 0 0 0.05 -163 -408)" d="M 13825.6,8414.89 L 13836,8408.9 L 13917.2,8549.74 L 13913.7,8555.73 L 13906.8,8555.73 L 13825.6,8414.89 Z " />
<path stroke="transparent" fill="#000000" transform="matrix(0.05 0 0 0.05 -163 -408)" d="M 13569.7,8312.19 L 13569.7,8300.19 L 13679.7,8300.27 L 13679.7,8312.27 L 13569.7,8312.19 Z " />
<path stroke="transparent" fill="#000000" transform="matrix(0.05 0 0 0.05 -163 -408)" d="M 13569.7,8364.03 L 13569.7,8352.03 L 13679.7,8352.11 L 13679.7,8364.11 L 13569.7,8364.03 Z " />
<path stroke="transparent" fill="#000000" transform="matrix(0.05 0 0 0.05 -163 -408)" d="M 13344.7,8555.34 L 13337.7,8555.33 L 13334.3,8549.33 L 13415.1,8409.67 L 13425.5,8415.68 L 13344.7,8555.34 Z " />
<path stroke="transparent" fill="#000000" transform="matrix(0.05 0 0 0.05 -163 -408)" d="M 13425,8694.66 L 13414.6,8700.66 L 13334.3,8561.33 L 13337.7,8555.33 L 13344.7,8555.34 L 13425,8694.66 Z " />
<path stroke="transparent" fill="#000000" transform="matrix(0.05 0 0 0.05 -163 -408)" d="M 13470,8668.74 L 13459.6,8674.74 L 13392.4,8558.37 L 13402.8,8552.37 L 13470,8668.74 Z " />
<path stroke="transparent" fill="#000000" transform="matrix(0.05 0 0 0.05 -163 -408)" d="M 14201.7,8549.93 L 14201.7,8561.93 L 13917.2,8561.74 L 13913.7,8555.73 L 13917.2,8549.74 L 14201.7,8549.93 Z " />
<path stroke="transparent" fill="#000000" transform="matrix(0.05 0 0 0.05 -163 -408)" d="M 13053.2,8561.14 L 13049.7,8555.13 L 13053.2,8549.14 L 13334.3,8549.33 L 13337.7,8555.33 L 13334.3,8561.33 L 13053.2,8561.14 Z " />
<path stroke="transparent" fill="#000000" transform="matrix(0.05 0 0 0.05 -163 -408)" d="M 12902.5,8311.73 L 12909.4,8299.74 L 13053.2,8549.14 L 13049.7,8555.13 L 13042.8,8555.13 L 12902.5,8311.73 Z " />
<path stroke="transparent" fill="#000000" transform="matrix(0.05 0 0 0.05 -163 -408)" d="M 12621.4,8311.54 L 12614.5,8299.53 L 12909.4,8299.74 L 12902.5,8311.73 L 12621.4,8311.54 Z " />
<path stroke="transparent" fill="#000000" transform="matrix(0.05 0 0 0.05 -163 -408)" d="M 12647.8,8363.39 L 12647.8,8351.39 L 12876,8351.55 L 12876,8363.55 L 12647.8,8363.39 Z " />
<path stroke="transparent" fill="#000000" transform="matrix(0.05 0 0 0.05 -163 -408)" d="M 12480.7,8554.74 L 12473.7,8554.73 L 12470.3,8548.73 L 12614.5,8299.53 L 12621.4,8311.54 L 12480.7,8554.74 Z " />
<path stroke="transparent" fill="#000000" transform="matrix(0.05 0 0 0.05 -163 -408)" d="M 12621.2,8798.34 L 12614.3,8810.33 L 12470.3,8560.73 L 12473.7,8554.73 L 12480.7,8554.74 L 12621.2,8798.34 Z " />
<path stroke="transparent" fill="#000000" transform="matrix(0.05 0 0 0.05 -163 -408)" d="M 12652.9,8749.49 L 12642.5,8755.48 L 12528.4,8557.77 L 12538.8,8551.77 L 12652.9,8749.49 Z " />
<path stroke="transparent" fill="#000000" transform="matrix(0.05 0 0 0.05 -163 -408)" d="M 12902.3,8798.53 L 12909.2,8810.54 L 12614.3,8810.33 L 12621.2,8798.34 L 12902.3,8798.53 Z " />
<path stroke="transparent" fill="#000000" transform="matrix(0.05 0 0 0.05 -163 -408)" d="M 13042.8,8555.13 L 13049.7,8555.13 L 13053.2,8561.14 L 12909.2,8810.54 L 12902.3,8798.53 L 13042.8,8555.13 Z " />
<path stroke="transparent" fill="#000000" transform="matrix(0.05 0 0 0.05 -163 -408)" d="M 12984.7,8552.12 L 12995.1,8558.12 L 12881,8755.67 L 12870.6,8749.67 L 12984.7,8552.12 Z " />
<text x="0" y="0" stroke="transparent" fill="#000000" transform="matrix(0.05 0 0 0.05 442.398 23.3378)" style="font:normal normal normal 200px 'Arial'" >
O</text>
<path stroke="transparent" fill="#000000" transform="matrix(0.05 0 0 0.05 -163 -408)" d="M 12285.9,8560.6 L 12286,8548.6 L 12470.3,8548.73 L 12473.7,8554.73 L 12470.3,8560.73 L 12285.9,8560.6 Z " />
<path stroke="transparent" fill="#000000" transform="matrix(0.05 0 0 0.05 -163 -408)" d="M 11936.3,8705.46 L 11936.3,8691.6 L 12092.5,8601.43 L 12098.5,8611.82 L 11936.3,8705.46 Z " />
<path stroke="transparent" fill="#000000" transform="matrix(0.05 0 0 0.05 -163 -408)" d="M 11686.9,8561.26 L 11686.9,8547.41 L 11936.3,8691.6 L 11936.3,8705.46 L 11686.9,8561.26 Z " />
<path stroke="transparent" fill="#000000" transform="matrix(0.05 0 0 0.05 -163 -408)" d="M 11437.3,8705.06 L 11437.3,8691.21 L 11686.9,8547.41 L 11686.9,8561.26 L 11437.3,8705.06 Z " />
<text x="0" y="0" stroke="transparent" fill="#000000" transform="matrix(0.05 0 0 0.05 392.804 14.4564)" style="font:normal normal normal 199px 'Arial'" >
H</text>
<text x="0" y="0" stroke="transparent" fill="#000000" transform="matrix(0.05 0 0 0.05 392.804 23.2897)" style="font:normal normal normal 199px 'Arial'" >
N</text>
<path stroke="transparent" fill="#000000" transform="matrix(0.05 0 0 0.05 -163 -408)" d="M 11285,8616.96 L 11291,8606.57 L 11437.3,8691.21 L 11437.3,8705.06 L 11285,8616.96 Z " />
<path stroke="transparent" fill="#000000" transform="matrix(0.05 0 0 0.05 -163 -408)" d="M 10938.5,8704.66 L 10938.5,8690.8 L 11082.8,8607.6 L 11088.8,8618 L 10938.5,8704.66 Z " />
<path stroke="transparent" fill="#000000" transform="matrix(0.05 0 0 0.05 -163 -408)" d="M 10689.1,8560.46 L 10689.1,8546.6 L 10938.5,8690.8 L 10938.5,8704.66 L 10689.1,8560.46 Z " />
<path stroke="transparent" fill="#000000" transform="matrix(0.05 0 0 0.05 -163 -408)" d="M 10439.7,8704.46 L 10439.7,8690.6 L 10689.1,8546.6 L 10689.1,8560.46 L 10439.7,8704.46 Z " />
<text x="0" y="0" stroke="transparent" fill="#000000" transform="matrix(0.05 0 0 0.05 342.627 23.2778)" style="font:normal normal normal 200px 'Arial'" >
O</text>
<path stroke="transparent" fill="#000000" transform="matrix(0.05 0 0 0.05 -163 -408)" d="M 10277.7,8610.75 L 10283.7,8600.36 L 10439.7,8690.6 L 10439.7,8704.46 L 10277.7,8610.75 Z " />
<path stroke="transparent" fill="#000000" transform="matrix(0.05 0 0 0.05 -163 -408)" d="M 9940.93,8704.06 L 9940.94,8690.2 L 10097.1,8600.17 L 10103.1,8610.57 L 9940.93,8704.06 Z " />
<path stroke="transparent" fill="#000000" transform="matrix(0.05 0 0 0.05 -163 -408)" d="M 9691.53,8559.86 L 9691.54,8546.01 L 9940.94,8690.2 L 9940.93,8704.06 L 9691.53,8559.86 Z " />
<text x="0" y="0" stroke="transparent" fill="#000000" transform="matrix(0.05 0 0 0.05 305.217 30.4478)" style="font:normal normal normal 200px 'Arial'" >
O</text>
<path stroke="transparent" fill="#000000" transform="matrix(0.05 0 0 0.05 -163 -408)" d="M 9535.55,8649.8 L 9529.55,8639.4 L 9691.54,8546.01 L 9691.53,8559.86 L 9535.55,8649.8 Z " />
<text x="0" y="0" stroke="transparent" fill="#000000" transform="matrix(0.05 0 0 0.05 380.028 44.8978)" style="font:normal normal normal 200px 'Arial'" >
O</text>
<path stroke="transparent" fill="#000000" transform="matrix(0.05 0 0 0.05 -163 -408)" d="M 10970.3,8879.31 L 10958.3,8879.3 L 10958.5,8682.78 L 10970.5,8682.79 L 10970.3,8879.31 Z " />
<path stroke="transparent" fill="#000000" transform="matrix(0.05 0 0 0.05 -163 -408)" d="M 10918.5,8879.28 L 10906.5,8879.27 L 10906.6,8682.75 L 10918.6,8682.76 L 10918.5,8879.28 Z " />
<path stroke="transparent" fill="#000000" transform="matrix(0.05 0 0 0.05 -163 -408)" d="M 9439.33,9561.59 L 9451.34,9554.67 L 9451.14,9842.67 L 9439.13,9849.59 L 9439.33,9561.59 Z " />
<text x="0" y="0" stroke="transparent" fill="#000000" transform="matrix(0.05 0 0 0.05 293.196 66.3078)" style="font:normal normal normal 200px 'Arial'" >
N</text>
<path stroke="transparent" fill="#000000" transform="matrix(0.05 0 0 0.05 -163 -408)" d="M 9293.63,9477.28 L 9299.64,9466.9 L 9451.34,9554.67 L 9439.33,9561.59 L 9293.63,9477.28 Z " />
<path stroke="transparent" fill="#000000" transform="matrix(0.05 0 0 0.05 -163 -408)" d="M 9190.34,9122.47 L 9202.33,9129.4 L 9202.21,9309.49 L 9190.21,9309.48 L 9190.34,9122.47 Z " />
<path stroke="transparent" fill="#000000" transform="matrix(0.05 0 0 0.05 -163 -408)" d="M 9439.69,8978.69 L 9451.78,8985.57 L 9202.33,9129.4 L 9190.34,9122.47 L 9439.69,8978.69 Z " />
<path stroke="transparent" fill="#000000" transform="matrix(0.05 0 0 0.05 -163 -408)" d="M 9437.44,8800.35 L 9449.44,8800.2 L 9451.78,8985.57 L 9439.69,8978.69 L 9437.44,8800.35 Z " />
<path stroke="transparent" fill="#000000" transform="matrix(0.05 0 0 0.05 -163 -408)" d="M 8946.53,9564.86 L 8946.54,9551 L 9090.77,9467.8 L 9096.76,9478.19 L 8946.53,9564.86 Z " />
<path stroke="transparent" fill="#000000" transform="matrix(0.05 0 0 0.05 -163 -408)" d="M 8697.33,9420.66 L 8697.34,9406.8 L 8946.54,9551 L 8946.53,9564.86 L 8697.33,9420.66 Z " />
<path stroke="transparent" fill="#000000" transform="matrix(0.05 0 0 0.05 -163 -408)" d="M 8447.73,9564.46 L 8447.74,9550.6 L 8697.34,9406.8 L 8697.33,9420.66 L 8447.73,9564.46 Z " />
<path stroke="transparent" fill="#000000" transform="matrix(0.05 0 0 0.05 -163 -408)" d="M 8198.61,9420.31 L 8198.46,9406.36 L 8447.74,9550.6 L 8447.73,9564.46 L 8198.61,9420.31 Z " />
<path stroke="transparent" fill="#000000" transform="matrix(0.05 0 0 0.05 -163 -408)" d="M 8059.32,9505.07 L 8053.08,9494.82 L 8198.46,9406.36 L 8198.61,9420.31 L 8059.32,9505.07 Z " />
</svg>
