<?xml version="1.0" standalone="no" ?>
<!DOCTYPE svg PUBLIC "-//W3C//DTD SVG 1.1//EN" "http://www.w3.org/Graphics/SVG/1.1/DTD/svg11.dtd">
<svg width="540px" height="169px" viewBox="0 0 540 169" style="background-color: #ffffffff" xmlns="http://www.w3.org/2000/svg" xmlns:xlink="http://www.w3.org/1999/xlink" version="1.1" >
<text x="0" y="0" stroke="transparent" fill="#000000" transform="matrix(0.05 0 0 0.05 160.664 93.482)" style="font:normal normal normal 200px 'Arial'" >
N</text>
<path stroke="transparent" fill="#000000" transform="matrix(0.05 0 0 0.05 -214 -589)" d="M 8251.94,13284.9 L 8257.91,13282.3 L 8263.96,13286.6 L 8266.82,13565.9 L 8260.87,13570.3 L 8254.84,13567.9 L 8251.94,13284.9 Z " />
<path stroke="transparent" fill="#000000" transform="matrix(0.05 0 0 0.05 -214 -589)" d="M 8049.61,13086.6 L 8052.04,13080.6 L 8059.52,13079.5 L 8259.5,13275.5 L 8257.91,13282.3 L 8251.94,13284.9 L 8049.61,13086.6 Z " />
<path stroke="transparent" fill="#000000" transform="matrix(0.05 0 0 0.05 -214 -589)" d="M 7766.6,13089.5 L 7764.05,13083.6 L 7767.45,13077.5 L 8048.51,13074.6 L 8052.04,13080.6 L 8049.61,13086.6 L 7766.6,13089.5 Z " />
<path stroke="transparent" fill="#000000" transform="matrix(0.05 0 0 0.05 -214 -589)" d="M 7793.51,13037.4 L 7793.39,13025.4 L 8021.52,13023.1 L 8021.64,13035.1 L 7793.51,13037.4 Z " />
<path stroke="transparent" fill="#000000" transform="matrix(0.05 0 0 0.05 -214 -589)" d="M 7568.58,13291.9 L 7556.53,13287 L 7756.54,13082.6 L 7764.05,13083.6 L 7766.6,13089.5 L 7568.58,13291.9 Z " />
<path stroke="transparent" fill="#000000" transform="matrix(0.05 0 0 0.05 -214 -589)" d="M 7570.43,13472.9 L 7558.43,13473 L 7556.53,13287 L 7568.58,13291.9 L 7570.43,13472.9 Z " />
<path stroke="transparent" fill="#000000" transform="matrix(0.05 0 0 0.05 -214 -589)" d="M 7773.6,13772.9 L 7771.18,13778.9 L 7763.69,13780 L 7648.4,13667 L 7656.79,13658.5 L 7773.6,13772.9 Z " />
<path stroke="transparent" fill="#000000" transform="matrix(0.05 0 0 0.05 -214 -589)" d="M 8056.62,13770 L 8059.16,13776 L 8055.76,13782 L 7774.7,13784.9 L 7771.18,13778.9 L 7773.6,13772.9 L 8056.62,13770 Z " />
<path stroke="transparent" fill="#000000" transform="matrix(0.05 0 0 0.05 -214 -589)" d="M 8029.71,13822.1 L 8029.83,13834.1 L 7801.7,13836.5 L 7801.58,13824.5 L 8029.71,13822.1 Z " />
<path stroke="transparent" fill="#000000" transform="matrix(0.05 0 0 0.05 -214 -589)" d="M 8254.84,13567.9 L 8260.87,13570.3 L 8262.58,13577.1 L 8066.67,13776.9 L 8059.16,13776 L 8056.62,13770 L 8254.84,13567.9 Z " />
<path stroke="transparent" fill="#000000" transform="matrix(0.05 0 0 0.05 -214 -589)" d="M 8186.54,12829.8 L 8200.4,12829.7 L 8059.52,13079.5 L 8052.04,13080.6 L 8048.51,13074.6 L 8186.54,12829.8 Z " />
<path stroke="transparent" fill="#000000" transform="matrix(0.05 0 0 0.05 -214 -589)" d="M 8043.52,12587.9 L 8050.33,12575.8 L 8200.4,12829.7 L 8186.54,12829.8 L 8043.52,12587.9 Z " />
<path stroke="transparent" fill="#000000" transform="matrix(0.05 0 0 0.05 -214 -589)" d="M 8012.36,12637 L 8022.69,12630.9 L 8138.78,12827.3 L 8128.45,12833.4 L 8012.36,12637 Z " />
<path stroke="transparent" fill="#000000" transform="matrix(0.05 0 0 0.05 -214 -589)" d="M 7762.46,12590.7 L 7755.41,12578.8 L 8050.33,12575.8 L 8043.52,12587.9 L 7762.46,12590.7 Z " />
<path stroke="transparent" fill="#000000" transform="matrix(0.05 0 0 0.05 -214 -589)" d="M 7624.43,12835.6 L 7610.57,12835.7 L 7755.41,12578.8 L 7762.46,12590.7 L 7624.43,12835.6 Z " />
<path stroke="transparent" fill="#000000" transform="matrix(0.05 0 0 0.05 -214 -589)" d="M 7682.58,12838 L 7672.13,12832.1 L 7784.17,12633.4 L 7794.62,12639.3 L 7682.58,12838 Z " />
<path stroke="transparent" fill="#000000" transform="matrix(0.05 0 0 0.05 -214 -589)" d="M 7767.45,13077.5 L 7764.05,13083.6 L 7756.54,13082.6 L 7610.57,12835.7 L 7624.43,12835.6 L 7767.45,13077.5 Z " />
<path stroke="transparent" fill="#000000" transform="matrix(0.05 0 0 0.05 -214 -589)" d="M 7636.67,14029.7 L 7622.81,14029.9 L 7763.69,13780 L 7771.18,13778.9 L 7774.7,13784.9 L 7636.67,14029.7 Z " />
<path stroke="transparent" fill="#000000" transform="matrix(0.05 0 0 0.05 -214 -589)" d="M 7779.69,14271.7 L 7772.89,14283.7 L 7622.81,14029.9 L 7636.67,14029.7 L 7779.69,14271.7 Z " />
<path stroke="transparent" fill="#000000" transform="matrix(0.05 0 0 0.05 -214 -589)" d="M 7810.85,14222.5 L 7800.52,14228.6 L 7684.43,14032.2 L 7694.76,14026.1 L 7810.85,14222.5 Z " />
<path stroke="transparent" fill="#000000" transform="matrix(0.05 0 0 0.05 -214 -589)" d="M 8060.75,14268.8 L 8067.8,14280.7 L 7772.89,14283.7 L 7779.69,14271.7 L 8060.75,14268.8 Z " />
<path stroke="transparent" fill="#000000" transform="matrix(0.05 0 0 0.05 -214 -589)" d="M 8198.78,14024 L 8212.64,14023.8 L 8067.8,14280.7 L 8060.75,14268.8 L 8198.78,14024 Z " />
<path stroke="transparent" fill="#000000" transform="matrix(0.05 0 0 0.05 -214 -589)" d="M 8140.63,14021.5 L 8151.08,14027.4 L 8039.05,14226.2 L 8028.59,14220.3 L 8140.63,14021.5 Z " />
<path stroke="transparent" fill="#000000" transform="matrix(0.05 0 0 0.05 -214 -589)" d="M 8055.76,13782 L 8059.16,13776 L 8066.67,13776.9 L 8212.64,14023.8 L 8198.78,14024 L 8055.76,13782 Z " />
<path stroke="transparent" fill="#000000" transform="matrix(0.05 0 0 0.05 -214 -589)" d="M 7317.66,13730.9 L 7317.52,13717 L 7460.42,13632.6 L 7466.52,13642.9 L 7317.66,13730.9 Z " />
<path stroke="transparent" fill="#000000" transform="matrix(0.05 0 0 0.05 -214 -589)" d="M 7066.8,13589.5 L 7066.66,13575.6 L 7317.52,13717 L 7317.66,13730.9 L 7066.8,13589.5 Z " />
<path stroke="transparent" fill="#000000" transform="matrix(0.05 0 0 0.05 -214 -589)" d="M 6818.89,13736 L 6818.75,13722.2 L 7066.66,13575.6 L 7066.8,13589.5 L 6818.89,13736 Z " />
<text x="0" y="0" stroke="transparent" fill="#000000" transform="matrix(0.05 0 0 0.05 110.805 85.1419)" style="font:normal normal normal 199px 'Arial'" >
H</text>
<text x="0" y="0" stroke="transparent" fill="#000000" transform="matrix(0.05 0 0 0.05 110.805 93.9752)" style="font:normal normal normal 199px 'Arial'" >
N</text>
<path stroke="transparent" fill="#000000" transform="matrix(0.05 0 0 0.05 -214 -589)" d="M 6665.33,13649.4 L 6671.22,13639 L 6818.75,13722.2 L 6818.89,13736 L 6665.33,13649.4 Z " />
<path stroke="transparent" fill="#000000" transform="matrix(0.05 0 0 0.05 -214 -589)" d="M 6320.12,13741.1 L 6319.97,13727.3 L 6463.15,13642.6 L 6469.25,13653 L 6320.12,13741.1 Z " />
<text x="0" y="0" stroke="transparent" fill="#000000" transform="matrix(0.05 0 0 0.05 98.2606 115.72)" style="font:normal normal normal 200px 'Arial'" >
O</text>
<path stroke="transparent" fill="#000000" transform="matrix(0.05 0 0 0.05 -214 -589)" d="M 6353.82,13915.4 L 6341.82,13915.5 L 6339.81,13719 L 6351.81,13718.9 L 6353.82,13915.4 Z " />
<path stroke="transparent" fill="#000000" transform="matrix(0.05 0 0 0.05 -214 -589)" d="M 6301.99,13915.9 L 6289.99,13916.1 L 6287.97,13719.6 L 6299.97,13719.4 L 6301.99,13915.9 Z " />
<path stroke="transparent" fill="#000000" transform="matrix(0.05 0 0 0.05 -214 -589)" d="M 6071.46,13600.9 L 6069.18,13592.8 L 6073.53,13588.3 L 6319.97,13727.3 L 6320.12,13741.1 L 6071.46,13600.9 Z " />
<path stroke="transparent" fill="#000000" transform="matrix(0.05 0 0 0.05 -214 -589)" d="M 5919.23,13350.9 L 5926.03,13338.8 L 6073.53,13588.3 L 6069.18,13592.8 L 6062.25,13592.8 L 5919.23,13350.9 Z " />
<path stroke="transparent" fill="#000000" transform="matrix(0.05 0 0 0.05 -214 -589)" d="M 5638.17,13353.8 L 5634.65,13347.8 L 5638.3,13341.8 L 5926.03,13338.8 L 5919.23,13350.9 L 5638.17,13353.8 Z " />
<path stroke="transparent" fill="#000000" transform="matrix(0.05 0 0 0.05 -214 -589)" d="M 5665.17,13405.3 L 5665.04,13393.3 L 5893.18,13391 L 5893.3,13403 L 5665.17,13405.3 Z " />
<path stroke="transparent" fill="#000000" transform="matrix(0.05 0 0 0.05 -214 -589)" d="M 5500.14,13598.6 L 5493.21,13598.7 L 5489.69,13592.7 L 5627.84,13347.7 L 5634.65,13347.8 L 5638.17,13353.8 L 5500.14,13598.6 Z " />
<path stroke="transparent" fill="#000000" transform="matrix(0.05 0 0 0.05 -214 -589)" d="M 5643.16,13840.5 L 5636.36,13852.6 L 5489.81,13604.7 L 5493.21,13598.7 L 5500.14,13598.6 L 5643.16,13840.5 Z " />
<path stroke="transparent" fill="#000000" transform="matrix(0.05 0 0 0.05 -214 -589)" d="M 5674.32,13791.4 L 5663.99,13797.5 L 5547.9,13601.1 L 5558.23,13595 L 5674.32,13791.4 Z " />
<path stroke="transparent" fill="#000000" transform="matrix(0.05 0 0 0.05 -214 -589)" d="M 5924.22,13837.7 L 5931.27,13849.6 L 5636.36,13852.6 L 5643.16,13840.5 L 5924.22,13837.7 Z " />
<path stroke="transparent" fill="#000000" transform="matrix(0.05 0 0 0.05 -214 -589)" d="M 6062.25,13592.8 L 6069.18,13592.8 L 6071.46,13600.9 L 5931.27,13849.6 L 5924.22,13837.7 L 6062.25,13592.8 Z " />
<path stroke="transparent" fill="#000000" transform="matrix(0.05 0 0 0.05 -214 -589)" d="M 6004.1,13590.4 L 6014.55,13596.3 L 5902.51,13795 L 5892.06,13789.1 L 6004.1,13590.4 Z " />
<path stroke="transparent" fill="#000000" transform="matrix(0.05 0 0 0.05 -214 -589)" d="M 5208.75,13607.6 L 5205.23,13601.6 L 5208.63,13595.6 L 5489.69,13592.7 L 5493.21,13598.7 L 5489.81,13604.7 L 5208.75,13607.6 Z " />
<text x="0" y="0" stroke="transparent" fill="#000000" transform="matrix(0.05 0 0 0.05 13.5737 94.9869)" style="font:normal normal normal 200px 'Arial'" >
O</text>
<path stroke="transparent" fill="#000000" transform="matrix(0.05 0 0 0.05 -214 -589)" d="M 5055.28,13359.7 L 5058.68,13353.7 L 5065.61,13353.6 L 5208.63,13595.6 L 5205.23,13601.6 L 5198.3,13601.7 L 5055.28,13359.7 Z " />
<path stroke="transparent" fill="#000000" transform="matrix(0.05 0 0 0.05 -214 -589)" d="M 5024.12,13408.9 L 5034.45,13402.8 L 5150.54,13599.2 L 5140.21,13605.3 L 5024.12,13408.9 Z " />
<path stroke="transparent" fill="#000000" transform="matrix(0.05 0 0 0.05 -214 -589)" d="M 4774.22,13362.6 L 4770.69,13356.7 L 4774.1,13350.6 L 5055.15,13347.7 L 5058.68,13353.7 L 5055.28,13359.7 L 4774.22,13362.6 Z " />
<path stroke="transparent" fill="#000000" transform="matrix(0.05 0 0 0.05 -214 -589)" d="M 4687.01,13517.3 L 4676.56,13511.4 L 4763.77,13356.7 L 4770.69,13356.7 L 4774.22,13362.6 L 4687.01,13517.3 Z " />
<path stroke="transparent" fill="#000000" transform="matrix(0.05 0 0 0.05 -214 -589)" d="M 4779.21,13849.4 L 4775.81,13855.4 L 4768.88,13855.5 L 4678.47,13702.6 L 4688.8,13696.5 L 4779.21,13849.4 Z " />
<path stroke="transparent" fill="#000000" transform="matrix(0.05 0 0 0.05 -214 -589)" d="M 5060.27,13846.5 L 5063.79,13852.5 L 5060.39,13858.5 L 4779.33,13861.4 L 4775.81,13855.4 L 4779.21,13849.4 L 5060.27,13846.5 Z " />
<path stroke="transparent" fill="#000000" transform="matrix(0.05 0 0 0.05 -214 -589)" d="M 5034.33,13898.6 L 5034.46,13910.6 L 4806.33,13913 L 4806.2,13901 L 5034.33,13898.6 Z " />
<path stroke="transparent" fill="#000000" transform="matrix(0.05 0 0 0.05 -214 -589)" d="M 5198.3,13601.7 L 5205.23,13601.6 L 5208.75,13607.6 L 5070.72,13852.4 L 5063.79,13852.5 L 5060.27,13846.5 L 5198.3,13601.7 Z " />
<path stroke="transparent" fill="#000000" transform="matrix(0.05 0 0 0.05 -214 -589)" d="M 4641.3,14106.2 L 4627.44,14106.4 L 4768.88,13855.5 L 4775.81,13855.4 L 4779.33,13861.4 L 4641.3,14106.2 Z " />
<path stroke="transparent" fill="#000000" transform="matrix(0.05 0 0 0.05 -214 -589)" d="M 4784.32,14348.2 L 4780.92,14354.2 L 4773.99,14354.3 L 4627.44,14106.4 L 4641.3,14106.2 L 4784.32,14348.2 Z " />
<path stroke="transparent" fill="#000000" transform="matrix(0.05 0 0 0.05 -214 -589)" d="M 4815.48,14299 L 4805.15,14305.1 L 4689.06,14108.7 L 4699.39,14102.6 L 4815.48,14299 Z " />
<path stroke="transparent" fill="#000000" transform="matrix(0.05 0 0 0.05 -214 -589)" d="M 5065.38,14345.3 L 5068.9,14351.2 L 5065.5,14357.3 L 4784.44,14360.2 L 4780.92,14354.2 L 4784.32,14348.2 L 5065.38,14345.3 Z " />
<path stroke="transparent" fill="#000000" transform="matrix(0.05 0 0 0.05 -214 -589)" d="M 5203.41,14100.5 L 5217.27,14100.3 L 5075.83,14351.2 L 5068.9,14351.2 L 5065.38,14345.3 L 5203.41,14100.5 Z " />
<path stroke="transparent" fill="#000000" transform="matrix(0.05 0 0 0.05 -214 -589)" d="M 5145.26,14098.1 L 5155.71,14103.9 L 5043.67,14302.7 L 5033.22,14296.8 L 5145.26,14098.1 Z " />
<path stroke="transparent" fill="#000000" transform="matrix(0.05 0 0 0.05 -214 -589)" d="M 5060.39,13858.5 L 5063.79,13852.5 L 5070.72,13852.4 L 5217.27,14100.3 L 5203.41,14100.5 L 5060.39,13858.5 Z " />
<path stroke="transparent" fill="#000000" transform="matrix(0.05 0 0 0.05 -214 -589)" d="M 5193.19,13102.9 L 5207.04,13102.8 L 5065.61,13353.6 L 5058.68,13353.7 L 5055.15,13347.7 L 5193.19,13102.9 Z " />
<path stroke="transparent" fill="#000000" transform="matrix(0.05 0 0 0.05 -214 -589)" d="M 5050.16,12860.8 L 5053.56,12854.7 L 5060.49,12854.7 L 5207.04,13102.8 L 5193.19,13102.9 L 5050.16,12860.8 Z " />
<path stroke="transparent" fill="#000000" transform="matrix(0.05 0 0 0.05 -214 -589)" d="M 5018.97,12910 L 5029.31,12903.8 L 5145.4,13100.4 L 5135.06,13106.5 L 5018.97,12910 Z " />
<path stroke="transparent" fill="#000000" transform="matrix(0.05 0 0 0.05 -214 -589)" d="M 4769.1,12863.6 L 4765.58,12857.7 L 4768.98,12851.6 L 5050.04,12848.8 L 5053.56,12854.7 L 5050.16,12860.8 L 4769.1,12863.6 Z " />
<path stroke="transparent" fill="#000000" transform="matrix(0.05 0 0 0.05 -214 -589)" d="M 4631.07,13108.7 L 4617.22,13108.8 L 4758.65,12857.8 L 4765.58,12857.7 L 4769.1,12863.6 L 4631.07,13108.7 Z " />
<path stroke="transparent" fill="#000000" transform="matrix(0.05 0 0 0.05 -214 -589)" d="M 4774.1,13350.6 L 4770.69,13356.7 L 4763.77,13356.7 L 4617.22,13108.8 L 4631.07,13108.7 L 4774.1,13350.6 Z " />
<path stroke="transparent" fill="#000000" transform="matrix(0.05 0 0 0.05 -214 -589)" d="M 4805.25,13301.5 L 4794.92,13307.6 L 4678.83,13111.2 L 4689.16,13105.1 L 4805.25,13301.5 Z " />
<text x="0" y="0" stroke="transparent" fill="#000000" transform="matrix(0.05 0 0 0.05 148.138 115.209)" style="font:normal normal normal 200px 'Arial'" >
O</text>
<path stroke="transparent" fill="#000000" transform="matrix(0.05 0 0 0.05 -214 -589)" d="M 7351.37,13905.2 L 7339.37,13905.3 L 7337.36,13708.8 L 7349.36,13708.7 L 7351.37,13905.2 Z " />
<path stroke="transparent" fill="#000000" transform="matrix(0.05 0 0 0.05 -214 -589)" d="M 7299.53,13905.7 L 7287.53,13905.8 L 7285.52,13709.3 L 7297.52,13709.2 L 7299.53,13905.7 Z " />
<text x="0" y="0" stroke="transparent" fill="#000000" transform="matrix(0.05 0 0 0.05 14.3633 144.864)" style="font:normal normal normal 200px 'Arial'" >
N</text>
<path stroke="transparent" fill="#000000" transform="matrix(0.05 0 0 0.05 -214 -589)" d="M 4704.87,14501.3 L 4694.42,14495.4 L 4773.99,14354.3 L 4780.92,14354.2 L 4784.44,14360.2 L 4704.87,14501.3 Z " />
<path stroke="transparent" fill="#000000" transform="matrix(0.05 0 0 0.05 -214 -589)" d="M 4789.43,14846.9 L 4786.03,14853 L 4778.52,14852.1 L 4696.39,14713.1 L 4706.72,14707 L 4789.43,14846.9 Z " />
<path stroke="transparent" fill="#000000" transform="matrix(0.05 0 0 0.05 -214 -589)" d="M 5070.49,14844.1 L 5077.54,14856 L 4796.48,14858.9 L 4786.03,14853 L 4789.43,14846.9 L 5070.49,14844.1 Z " />
<path stroke="transparent" fill="#000000" transform="matrix(0.05 0 0 0.05 -214 -589)" d="M 5208.52,14599.2 L 5215.45,14599.2 L 5218.98,14605.1 L 5077.54,14856 L 5070.49,14844.1 L 5208.52,14599.2 Z " />
<path stroke="transparent" fill="#000000" transform="matrix(0.05 0 0 0.05 -214 -589)" d="M 5150.37,14596.8 L 5160.82,14602.7 L 5048.79,14801.4 L 5038.33,14795.5 L 5150.37,14596.8 Z " />
<path stroke="transparent" fill="#000000" transform="matrix(0.05 0 0 0.05 -214 -589)" d="M 5065.5,14357.3 L 5068.9,14351.2 L 5075.83,14351.2 L 5218.85,14593.1 L 5215.45,14599.2 L 5208.52,14599.2 L 5065.5,14357.3 Z " />
<text x="0" y="0" stroke="transparent" fill="#000000" transform="matrix(0.05 0 0 0.05 13.3587 45.0815)" style="font:normal normal normal 199px 'Arial'" >
N</text>
<text x="0" y="0" stroke="transparent" fill="#000000" transform="matrix(0.05 0 0 0.05 20.5443 41.4884)" style="font:normal normal normal 149.25px 'Arial'" >
+</text>
<path stroke="transparent" fill="#000000" transform="matrix(0.05 0 0 0.05 -214 -589)" d="M 5188.07,12603.9 L 5195,12603.9 L 5198.52,12609.8 L 5060.49,12854.7 L 5053.56,12854.7 L 5050.04,12848.8 L 5188.07,12603.9 Z " />
<path stroke="transparent" fill="#000000" transform="matrix(0.05 0 0 0.05 -214 -589)" d="M 5045.05,12362 L 5051.85,12349.9 L 5198.4,12597.8 L 5195,12603.9 L 5188.07,12603.9 L 5045.05,12362 Z " />
<path stroke="transparent" fill="#000000" transform="matrix(0.05 0 0 0.05 -214 -589)" d="M 5013.89,12411.1 L 5024.22,12405 L 5140.31,12601.4 L 5129.98,12607.5 L 5013.89,12411.1 Z " />
<path stroke="transparent" fill="#000000" transform="matrix(0.05 0 0 0.05 -214 -589)" d="M 4763.99,12364.9 L 4760.47,12358.9 L 4768.22,12352.8 L 5051.85,12349.9 L 5045.05,12362 L 4763.99,12364.9 Z " />
<path stroke="transparent" fill="#000000" transform="matrix(0.05 0 0 0.05 -214 -589)" d="M 4683.92,12506.9 L 4673.47,12501 L 4752.29,12361.2 L 4760.47,12358.9 L 4763.99,12364.9 L 4683.92,12506.9 Z " />
<path stroke="transparent" fill="#000000" transform="matrix(0.05 0 0 0.05 -214 -589)" d="M 4768.98,12851.6 L 4765.58,12857.7 L 4758.65,12857.8 L 4675.69,12717.4 L 4686.02,12711.3 L 4768.98,12851.6 Z " />
<path stroke="transparent" fill="#000000" transform="matrix(0.05 0 0 0.05 -214 -589)" d="M 4800.14,12802.5 L 4789.81,12808.6 L 4720.31,12691 L 4730.64,12684.9 L 4800.14,12802.5 Z " />
<path stroke="transparent" fill="#000000" transform="matrix(0.05 0 0 0.05 -214 -589)" d="M 4937.74,15097.8 L 4927.41,15103.9 L 4784.84,14862.8 L 4786.03,14853 L 4796.48,14858.9 L 4937.74,15097.8 Z " />
<path stroke="transparent" fill="#000000" transform="matrix(0.05 0 0 0.05 -214 -589)" d="M 4588.61,15062.9 L 4580.04,15054.5 L 4778.52,14852.1 L 4786.03,14853 L 4784.84,14862.8 L 4588.61,15062.9 Z " />
<path stroke="transparent" fill="#000000" transform="matrix(0.05 0 0 0.05 -214 -589)" d="M 4351.56,14614 L 4351.44,14602 L 4549.21,14600 L 4549.33,14612 L 4351.56,14614 Z " />
<path stroke="transparent" fill="#000000" transform="matrix(0.05 0 0 0.05 -214 -589)" d="M 5506.84,14590.2 L 5500.03,14602.2 L 5218.98,14605.1 L 5215.45,14599.2 L 5218.85,14593.1 L 5506.84,14590.2 Z " />
<text x="0" y="0" stroke="transparent" fill="#000000" transform="matrix(0.05 0 0 0.05 65.181 156.799)" style="font:normal normal normal 199px 'Arial'" >
SO</text>
<text x="0" y="0" stroke="transparent" fill="#000000" transform="matrix(0.05 0 0 0.05 79.557 158.623)" style="font:normal normal normal 149.25px 'Arial'" >
3</text>
<text x="0" y="0" stroke="transparent" fill="#000000" transform="matrix(0.05 0 0 0.05 83.7073 153.206)" style="font:normal normal normal 149.25px 'Arial'" >
-</text>
<path stroke="transparent" fill="#000000" transform="matrix(0.05 0 0 0.05 -214 -589)" d="M 5600.52,14748.7 L 5590.19,14754.8 L 5500.03,14602.2 L 5506.84,14590.2 L 5600.52,14748.7 Z " />
<path stroke="transparent" fill="#000000" transform="matrix(0.05 0 0 0.05 -214 -589)" d="M 5508.03,13112.7 L 5521.64,13113 L 5638.3,13341.8 L 5634.65,13347.8 L 5627.84,13347.7 L 5508.03,13112.7 Z " />
<path stroke="transparent" fill="#000000" transform="matrix(0.05 0 0 0.05 -214 -589)" d="M 4331.11,12618.7 L 4330.98,12606.7 L 4529.12,12604.7 L 4529.24,12616.7 L 4331.11,12618.7 Z " />
<path stroke="transparent" fill="#000000" transform="matrix(0.05 0 0 0.05 -214 -589)" d="M 4506.66,12222.7 L 4512.55,12212.2 L 4756.6,12349.8 L 4760.47,12358.9 L 4752.29,12361.2 L 4506.66,12222.7 Z " />
<path stroke="transparent" fill="#000000" transform="matrix(0.05 0 0 0.05 -214 -589)" d="M 4826.2,12078.5 L 4837.82,12081.4 L 4768.22,12352.8 L 4760.47,12358.9 L 4756.6,12349.8 L 4826.2,12078.5 Z " />
<path stroke="transparent" fill="#000000" transform="matrix(0.05 0 0 0.05 -214 -589)" d="M 5479.46,12594.9 L 5486.51,12606.9 L 5198.52,12609.8 L 5195,12603.9 L 5198.4,12597.8 L 5479.46,12594.9 Z " />
<text x="0" y="0" stroke="transparent" fill="#000000" transform="matrix(0.05 0 0 0.05 63.9027 32.0955)" style="font:normal normal normal 199px 'Arial'" >
SO</text>
<text x="0" y="0" stroke="transparent" fill="#000000" transform="matrix(0.05 0 0 0.05 78.2787 33.9197)" style="font:normal normal normal 149.25px 'Arial'" >
3</text>
<text x="0" y="0" stroke="transparent" fill="#000000" transform="matrix(0.05 0 0 0.05 82.429 28.5025)" style="font:normal normal normal 149.25px 'Arial'" >
-</text>
<path stroke="transparent" fill="#000000" transform="matrix(0.05 0 0 0.05 -214 -589)" d="M 5566.63,12440.3 L 5577.08,12446.2 L 5486.51,12606.9 L 5479.46,12594.9 L 5566.63,12440.3 Z " />
<text x="0" y="0" stroke="transparent" fill="#000000" transform="matrix(0.05 0 0 0.05 64.9437 57.6906)" style="font:normal normal normal 199px 'Arial'" >
OH</text>
<path stroke="transparent" fill="#000000" transform="matrix(0.05 0 0 0.05 -214 -589)" d="M 5598.79,12951.7 L 5609.24,12957.6 L 5521.64,13113 L 5508.03,13112.7 L 5598.79,12951.7 Z " />
<text x="0" y="0" stroke="transparent" fill="#000000" transform="matrix(0.05 0 0 0.05 47.9459 70.6333)" style="font:normal normal normal 200px 'Arial'" >
O</text>
<path stroke="transparent" fill="#000000" transform="matrix(0.05 0 0 0.05 -214 -589)" d="M 5417.71,13140.4 L 5417.25,13128.4 L 5523.53,13124.3 L 5523.99,13136.3 L 5417.71,13140.4 Z " />
<path stroke="transparent" fill="#000000" transform="matrix(0.05 0 0 0.05 -214 -589)" d="M 5416.34,13104.8 L 5415.87,13092.8 L 5524.89,13088.6 L 5525.36,13100.6 L 5416.34,13104.8 Z " />
<text x="0" y="0" stroke="transparent" fill="#000000" transform="matrix(0.05 0 0 0.05 209.173 97.4349)" style="font:normal normal normal 200px 'Arial'" >
N</text>
<text x="0" y="0" stroke="transparent" fill="#000000" transform="matrix(0.05 0 0 0.05 217.517 85.6989)" style="font:normal normal normal 200px 'Arial'" >
N</text>
<text x="0" y="0" stroke="transparent" fill="#000000" transform="matrix(0.05 0 0 0.05 209.173 74.1364)" style="font:normal normal normal 200px 'Arial'" >
N</text>
<path stroke="transparent" fill="#000000" transform="matrix(0.05 0 0 0.05 -214 -589)" d="M 8437.52,13619.4 L 8433.93,13630.9 L 8262.58,13577.1 L 8260.87,13570.3 L 8266.82,13565.9 L 8437.52,13619.4 Z " />
<path stroke="transparent" fill="#000000" transform="matrix(0.05 0 0 0.05 -214 -589)" d="M 8625.78,13519.4 L 8635.56,13526.3 L 8612.04,13559.4 L 8602.26,13552.5 L 8625.78,13519.4 Z " />
<path stroke="transparent" fill="#000000" transform="matrix(0.05 0 0 0.05 -214 -589)" d="M 8583.53,13489.3 L 8593.31,13496.3 L 8569.79,13529.4 L 8560.01,13522.4 L 8583.53,13489.3 Z " />
<path stroke="transparent" fill="#000000" transform="matrix(0.05 0 0 0.05 -214 -589)" d="M 8602.59,13293.5 L 8612.32,13286.5 L 8634.38,13317 L 8624.65,13324.1 L 8602.59,13293.5 Z " />
<path stroke="transparent" fill="#000000" transform="matrix(0.05 0 0 0.05 -214 -589)" d="M 8263.96,13286.6 L 8257.91,13282.3 L 8259.5,13275.5 L 8433.47,13218 L 8437.24,13229.4 L 8263.96,13286.6 Z " />
<text x="0" y="0" stroke="transparent" fill="#000000" transform="matrix(0.05 0 0 0.05 497.766 100.874)" style="font:normal normal normal 200px 'Arial'" >
N</text>
<text x="0" y="0" stroke="transparent" fill="#000000" transform="matrix(0.05 0 0 0.05 512.166 100.884)" style="font:normal normal normal 200px 'Arial'" >
N</text>
<text x="0" y="0" stroke="transparent" fill="#000000" transform="matrix(0.05 0 0 0.05 512.176 75.9344)" style="font:normal normal normal 200px 'Arial'" >
N</text>
<text x="0" y="0" stroke="transparent" fill="#000000" transform="matrix(0.05 0 0 0.05 497.776 75.9344)" style="font:normal normal normal 200px 'Arial'" >
N</text>
<path stroke="transparent" fill="#000000" transform="matrix(0.05 0 0 0.05 -214 -589)" d="M 14505.3,13719.4 L 14505.3,13731.4 L 14395.3,13731.3 L 14395.3,13719.3 L 14505.3,13719.4 Z " />
<path stroke="transparent" fill="#000000" transform="matrix(0.05 0 0 0.05 -214 -589)" d="M 14732.6,13476.1 L 14739.5,13476.1 L 14743,13482.1 L 14662,13622.3 L 14651.7,13616.3 L 14732.6,13476.1 Z " />
<path stroke="transparent" fill="#000000" transform="matrix(0.05 0 0 0.05 -214 -589)" d="M 14674.5,13473 L 14684.9,13479 L 14617.2,13596.3 L 14606.8,13590.3 L 14674.5,13473 Z " />
<path stroke="transparent" fill="#000000" transform="matrix(0.05 0 0 0.05 -214 -589)" d="M 14651.4,13335 L 14661.8,13329.1 L 14743,13470.1 L 14739.5,13476.1 L 14732.6,13476.1 L 14651.4,13335 Z " />
<path stroke="transparent" fill="#000000" transform="matrix(0.05 0 0 0.05 -214 -589)" d="M 14395.5,13232.5 L 14395.5,13220.5 L 14505.5,13220.5 L 14505.5,13232.5 L 14395.5,13232.5 Z " />
<path stroke="transparent" fill="#000000" transform="matrix(0.05 0 0 0.05 -214 -589)" d="M 14395.5,13284.3 L 14395.5,13272.3 L 14505.5,13272.3 L 14505.5,13284.3 L 14395.5,13284.3 Z " />
<path stroke="transparent" fill="#000000" transform="matrix(0.05 0 0 0.05 -214 -589)" d="M 14170.5,13475.7 L 14163.5,13475.7 L 14160.1,13469.7 L 14240.9,13330 L 14251.3,13336 L 14170.5,13475.7 Z " />
<path stroke="transparent" fill="#000000" transform="matrix(0.05 0 0 0.05 -214 -589)" d="M 14250.8,13615 L 14240.4,13621 L 14160.1,13481.7 L 14163.5,13475.7 L 14170.5,13475.7 L 14250.8,13615 Z " />
<path stroke="transparent" fill="#000000" transform="matrix(0.05 0 0 0.05 -214 -589)" d="M 14295.8,13589.1 L 14285.4,13595.1 L 14218.2,13478.7 L 14228.6,13472.7 L 14295.8,13589.1 Z " />
<path stroke="transparent" fill="#000000" transform="matrix(0.05 0 0 0.05 -214 -589)" d="M 15027.5,13470.3 L 15027.5,13482.3 L 14743,13482.1 L 14739.5,13476.1 L 14743,13470.1 L 15027.5,13470.3 Z " />
<path stroke="transparent" fill="#000000" transform="matrix(0.05 0 0 0.05 -214 -589)" d="M 13879,13481.5 L 13875.5,13475.5 L 13879,13469.5 L 14160.1,13469.7 L 14163.5,13475.7 L 14160.1,13481.7 L 13879,13481.5 Z " />
<path stroke="transparent" fill="#000000" transform="matrix(0.05 0 0 0.05 -214 -589)" d="M 13728.3,13232.1 L 13735.2,13220.1 L 13879,13469.5 L 13875.5,13475.5 L 13868.6,13475.5 L 13728.3,13232.1 Z " />
<path stroke="transparent" fill="#000000" transform="matrix(0.05 0 0 0.05 -214 -589)" d="M 13447.2,13231.9 L 13440.3,13219.9 L 13735.2,13220.1 L 13728.3,13232.1 L 13447.2,13231.9 Z " />
<path stroke="transparent" fill="#000000" transform="matrix(0.05 0 0 0.05 -214 -589)" d="M 13473.6,13283.7 L 13473.6,13271.7 L 13701.8,13271.9 L 13701.8,13283.9 L 13473.6,13283.7 Z " />
<path stroke="transparent" fill="#000000" transform="matrix(0.05 0 0 0.05 -214 -589)" d="M 13306.5,13475.1 L 13299.5,13475.1 L 13296.1,13469.1 L 13440.3,13219.9 L 13447.2,13231.9 L 13306.5,13475.1 Z " />
<path stroke="transparent" fill="#000000" transform="matrix(0.05 0 0 0.05 -214 -589)" d="M 13447,13718.7 L 13440.1,13730.7 L 13296.1,13481.1 L 13299.5,13475.1 L 13306.5,13475.1 L 13447,13718.7 Z " />
<path stroke="transparent" fill="#000000" transform="matrix(0.05 0 0 0.05 -214 -589)" d="M 13478.7,13669.8 L 13468.3,13675.8 L 13354.2,13478.1 L 13364.6,13472.1 L 13478.7,13669.8 Z " />
<path stroke="transparent" fill="#000000" transform="matrix(0.05 0 0 0.05 -214 -589)" d="M 13728.1,13718.9 L 13735,13730.9 L 13440.1,13730.7 L 13447,13718.7 L 13728.1,13718.9 Z " />
<path stroke="transparent" fill="#000000" transform="matrix(0.05 0 0 0.05 -214 -589)" d="M 13868.6,13475.5 L 13875.5,13475.5 L 13879,13481.5 L 13735,13730.9 L 13728.1,13718.9 L 13868.6,13475.5 Z " />
<path stroke="transparent" fill="#000000" transform="matrix(0.05 0 0 0.05 -214 -589)" d="M 13810.5,13472.4 L 13820.9,13478.4 L 13706.8,13676 L 13696.4,13670 L 13810.5,13472.4 Z " />
<text x="0" y="0" stroke="transparent" fill="#000000" transform="matrix(0.05 0 0 0.05 432.687 88.3544)" style="font:normal normal normal 200px 'Arial'" >
O</text>
<path stroke="transparent" fill="#000000" transform="matrix(0.05 0 0 0.05 -214 -589)" d="M 13111.7,13480.9 L 13111.8,13468.9 L 13296.1,13469.1 L 13299.5,13475.1 L 13296.1,13481.1 L 13111.7,13480.9 Z " />
<path stroke="transparent" fill="#000000" transform="matrix(0.05 0 0 0.05 -214 -589)" d="M 12762.1,13625.6 L 12762.1,13611.7 L 12918.3,13521.7 L 12924.3,13532.1 L 12762.1,13625.6 Z " />
<path stroke="transparent" fill="#000000" transform="matrix(0.05 0 0 0.05 -214 -589)" d="M 12512.7,13481.6 L 12512.7,13467.7 L 12762.1,13611.7 L 12762.1,13625.6 L 12512.7,13481.6 Z " />
<path stroke="transparent" fill="#000000" transform="matrix(0.05 0 0 0.05 -214 -589)" d="M 12263.3,13625.4 L 12263.3,13611.5 L 12512.7,13467.7 L 12512.7,13481.6 L 12263.3,13625.4 Z " />
<text x="0" y="0" stroke="transparent" fill="#000000" transform="matrix(0.05 0 0 0.05 383.104 79.473)" style="font:normal normal normal 199px 'Arial'" >
H</text>
<text x="0" y="0" stroke="transparent" fill="#000000" transform="matrix(0.05 0 0 0.05 383.104 88.3064)" style="font:normal normal normal 199px 'Arial'" >
N</text>
<path stroke="transparent" fill="#000000" transform="matrix(0.05 0 0 0.05 -214 -589)" d="M 12111,13537.3 L 12117,13526.9 L 12263.3,13611.5 L 12263.3,13625.4 L 12111,13537.3 Z " />
<path stroke="transparent" fill="#000000" transform="matrix(0.05 0 0 0.05 -214 -589)" d="M 11764.5,13625 L 11764.5,13611.1 L 11908.8,13527.9 L 11914.8,13538.3 L 11764.5,13625 Z " />
<path stroke="transparent" fill="#000000" transform="matrix(0.05 0 0 0.05 -214 -589)" d="M 11515.1,13480.8 L 11515.1,13466.9 L 11764.5,13611.1 L 11764.5,13625 L 11515.1,13480.8 Z " />
<path stroke="transparent" fill="#000000" transform="matrix(0.05 0 0 0.05 -214 -589)" d="M 11265.5,13624.6 L 11265.5,13610.7 L 11515.1,13466.9 L 11515.1,13480.8 L 11265.5,13624.6 Z " />
<text x="0" y="0" stroke="transparent" fill="#000000" transform="matrix(0.05 0 0 0.05 332.928 88.2944)" style="font:normal normal normal 200px 'Arial'" >
O</text>
<path stroke="transparent" fill="#000000" transform="matrix(0.05 0 0 0.05 -214 -589)" d="M 11103.7,13531.1 L 11109.7,13520.7 L 11265.5,13610.7 L 11265.5,13624.6 L 11103.7,13531.1 Z " />
<path stroke="transparent" fill="#000000" transform="matrix(0.05 0 0 0.05 -214 -589)" d="M 10766.7,13624.4 L 10766.7,13610.5 L 10923.1,13520.5 L 10929.1,13530.9 L 10766.7,13624.4 Z " />
<path stroke="transparent" fill="#000000" transform="matrix(0.05 0 0 0.05 -214 -589)" d="M 10517.5,13480.2 L 10517.5,13466.3 L 10766.7,13610.5 L 10766.7,13624.4 L 10517.5,13480.2 Z " />
<text x="0" y="0" stroke="transparent" fill="#000000" transform="matrix(0.05 0 0 0.05 295.508 95.4644)" style="font:normal normal normal 200px 'Arial'" >
O</text>
<path stroke="transparent" fill="#000000" transform="matrix(0.05 0 0 0.05 -214 -589)" d="M 10361.4,13570.2 L 10355.4,13559.8 L 10517.5,13466.3 L 10517.5,13480.2 L 10361.4,13570.2 Z " />
<path stroke="transparent" fill="#000000" transform="matrix(0.05 0 0 0.05 -214 -589)" d="M 10012.5,13476.3 L 10024.5,13469.4 L 10180.4,13559.5 L 10174.3,13569.9 L 10012.5,13476.3 Z " />
<text x="0" y="0" stroke="transparent" fill="#000000" transform="matrix(0.05 0 0 0.05 370.327 109.914)" style="font:normal normal normal 200px 'Arial'" >
O</text>
<path stroke="transparent" fill="#000000" transform="matrix(0.05 0 0 0.05 -214 -589)" d="M 11796.3,13799.6 L 11784.3,13799.6 L 11784.5,13603.1 L 11796.5,13603.1 L 11796.3,13799.6 Z " />
<path stroke="transparent" fill="#000000" transform="matrix(0.05 0 0 0.05 -214 -589)" d="M 11744.5,13799.6 L 11732.5,13799.6 L 11732.6,13603.1 L 11744.6,13603.1 L 11744.5,13799.6 Z " />
<text x="0" y="0" stroke="transparent" fill="#000000" transform="matrix(0.05 0 0 0.05 485.146 36.1944)" style="font:normal normal normal 200px 'Arial'" >
N</text>
<text x="0" y="0" stroke="transparent" fill="#000000" transform="matrix(0.05 0 0 0.05 499.546 36.2044)" style="font:normal normal normal 200px 'Arial'" >
N</text>
<text x="0" y="0" stroke="transparent" fill="#000000" transform="matrix(0.05 0 0 0.05 499.556 11.2644)" style="font:normal normal normal 200px 'Arial'" >
N</text>
<text x="0" y="0" stroke="transparent" fill="#000000" transform="matrix(0.05 0 0 0.05 485.156 11.2544)" style="font:normal normal normal 200px 'Arial'" >
N</text>
<path stroke="transparent" fill="#000000" transform="matrix(0.05 0 0 0.05 -214 -589)" d="M 14252.9,12425.8 L 14252.9,12437.8 L 14142.9,12437.7 L 14142.9,12425.7 L 14252.9,12425.8 Z " />
<path stroke="transparent" fill="#000000" transform="matrix(0.05 0 0 0.05 -214 -589)" d="M 14480.2,12182.5 L 14487.1,12182.5 L 14490.6,12188.5 L 14409.6,12328.7 L 14399.3,12322.7 L 14480.2,12182.5 Z " />
<path stroke="transparent" fill="#000000" transform="matrix(0.05 0 0 0.05 -214 -589)" d="M 14422.1,12179.4 L 14432.5,12185.4 L 14364.8,12302.7 L 14354.4,12296.7 L 14422.1,12179.4 Z " />
<path stroke="transparent" fill="#000000" transform="matrix(0.05 0 0 0.05 -214 -589)" d="M 14399,12041.6 L 14409.4,12035.6 L 14490.6,12176.5 L 14487.1,12182.5 L 14480.2,12182.5 L 14399,12041.6 Z " />
<path stroke="transparent" fill="#000000" transform="matrix(0.05 0 0 0.05 -214 -589)" d="M 14143.1,11938.9 L 14143.1,11926.9 L 14253.1,11927 L 14253.1,11939 L 14143.1,11938.9 Z " />
<path stroke="transparent" fill="#000000" transform="matrix(0.05 0 0 0.05 -214 -589)" d="M 14143.1,11990.8 L 14143.1,11978.8 L 14253.1,11978.8 L 14253.1,11990.8 L 14143.1,11990.8 Z " />
<path stroke="transparent" fill="#000000" transform="matrix(0.05 0 0 0.05 -214 -589)" d="M 13918.1,12182.1 L 13911.1,12182.1 L 13907.7,12176.1 L 13988.5,12036.4 L 13998.9,12042.4 L 13918.1,12182.1 Z " />
<path stroke="transparent" fill="#000000" transform="matrix(0.05 0 0 0.05 -214 -589)" d="M 13998.4,12321.4 L 13988,12327.4 L 13907.7,12188.1 L 13911.1,12182.1 L 13918.1,12182.1 L 13998.4,12321.4 Z " />
<path stroke="transparent" fill="#000000" transform="matrix(0.05 0 0 0.05 -214 -589)" d="M 14043.4,12295.5 L 14033,12301.5 L 13965.8,12185.1 L 13976.2,12179.1 L 14043.4,12295.5 Z " />
<path stroke="transparent" fill="#000000" transform="matrix(0.05 0 0 0.05 -214 -589)" d="M 14775.1,12176.7 L 14775.1,12188.7 L 14490.6,12188.5 L 14487.1,12182.5 L 14490.6,12176.5 L 14775.1,12176.7 Z " />
<path stroke="transparent" fill="#000000" transform="matrix(0.05 0 0 0.05 -214 -589)" d="M 13626.6,12187.9 L 13623.1,12181.9 L 13626.6,12175.9 L 13907.7,12176.1 L 13911.1,12182.1 L 13907.7,12188.1 L 13626.6,12187.9 Z " />
<path stroke="transparent" fill="#000000" transform="matrix(0.05 0 0 0.05 -214 -589)" d="M 13475.9,11938.5 L 13482.8,11926.5 L 13626.6,12175.9 L 13623.1,12181.9 L 13616.2,12181.9 L 13475.9,11938.5 Z " />
<path stroke="transparent" fill="#000000" transform="matrix(0.05 0 0 0.05 -214 -589)" d="M 13194.8,11938.3 L 13187.9,11926.3 L 13482.8,11926.5 L 13475.9,11938.5 L 13194.8,11938.3 Z " />
<path stroke="transparent" fill="#000000" transform="matrix(0.05 0 0 0.05 -214 -589)" d="M 13221.2,11990.1 L 13221.2,11978.1 L 13449.4,11978.3 L 13449.4,11990.3 L 13221.2,11990.1 Z " />
<path stroke="transparent" fill="#000000" transform="matrix(0.05 0 0 0.05 -214 -589)" d="M 13054.1,12181.5 L 13047.1,12181.5 L 13043.7,12175.5 L 13187.9,11926.3 L 13194.8,11938.3 L 13054.1,12181.5 Z " />
<path stroke="transparent" fill="#000000" transform="matrix(0.05 0 0 0.05 -214 -589)" d="M 13194.6,12425.1 L 13187.7,12437.1 L 13043.7,12187.5 L 13047.1,12181.5 L 13054.1,12181.5 L 13194.6,12425.1 Z " />
<path stroke="transparent" fill="#000000" transform="matrix(0.05 0 0 0.05 -214 -589)" d="M 13226.3,12376.2 L 13215.9,12382.2 L 13101.8,12184.5 L 13112.2,12178.5 L 13226.3,12376.2 Z " />
<path stroke="transparent" fill="#000000" transform="matrix(0.05 0 0 0.05 -214 -589)" d="M 13475.7,12425.3 L 13482.6,12437.3 L 13187.7,12437.1 L 13194.6,12425.1 L 13475.7,12425.3 Z " />
<path stroke="transparent" fill="#000000" transform="matrix(0.05 0 0 0.05 -214 -589)" d="M 13616.2,12181.9 L 13623.1,12181.9 L 13626.6,12187.9 L 13482.6,12437.3 L 13475.7,12425.3 L 13616.2,12181.9 Z " />
<path stroke="transparent" fill="#000000" transform="matrix(0.05 0 0 0.05 -214 -589)" d="M 13558.1,12178.8 L 13568.5,12184.8 L 13454.4,12382.4 L 13444,12376.4 L 13558.1,12178.8 Z " />
<text x="0" y="0" stroke="transparent" fill="#000000" transform="matrix(0.05 0 0 0.05 420.067 23.6744)" style="font:normal normal normal 200px 'Arial'" >
O</text>
<path stroke="transparent" fill="#000000" transform="matrix(0.05 0 0 0.05 -214 -589)" d="M 12859.3,12187.3 L 12859.4,12175.3 L 13043.7,12175.5 L 13047.1,12181.5 L 13043.7,12187.5 L 12859.3,12187.3 Z " />
<path stroke="transparent" fill="#000000" transform="matrix(0.05 0 0 0.05 -214 -589)" d="M 12509.7,12332.2 L 12509.7,12318.3 L 12665.9,12228.2 L 12671.9,12238.6 L 12509.7,12332.2 Z " />
<path stroke="transparent" fill="#000000" transform="matrix(0.05 0 0 0.05 -214 -589)" d="M 12260.3,12188 L 12260.3,12174.1 L 12509.7,12318.3 L 12509.7,12332.2 L 12260.3,12188 Z " />
<path stroke="transparent" fill="#000000" transform="matrix(0.05 0 0 0.05 -214 -589)" d="M 12010.7,12331.8 L 12010.7,12317.9 L 12260.3,12174.1 L 12260.3,12188 L 12010.7,12331.8 Z " />
<text x="0" y="0" stroke="transparent" fill="#000000" transform="matrix(0.05 0 0 0.05 370.474 14.7931)" style="font:normal normal normal 199px 'Arial'" >
H</text>
<text x="0" y="0" stroke="transparent" fill="#000000" transform="matrix(0.05 0 0 0.05 370.474 23.6264)" style="font:normal normal normal 199px 'Arial'" >
N</text>
<path stroke="transparent" fill="#000000" transform="matrix(0.05 0 0 0.05 -214 -589)" d="M 11858.4,12243.7 L 11864.4,12233.3 L 12010.7,12317.9 L 12010.7,12331.8 L 11858.4,12243.7 Z " />
<path stroke="transparent" fill="#000000" transform="matrix(0.05 0 0 0.05 -214 -589)" d="M 11511.9,12331.4 L 11511.9,12317.5 L 11656.2,12234.3 L 11662.2,12244.7 L 11511.9,12331.4 Z " />
<path stroke="transparent" fill="#000000" transform="matrix(0.05 0 0 0.05 -214 -589)" d="M 11262.5,12187.2 L 11262.5,12173.3 L 11511.9,12317.5 L 11511.9,12331.4 L 11262.5,12187.2 Z " />
<path stroke="transparent" fill="#000000" transform="matrix(0.05 0 0 0.05 -214 -589)" d="M 11013.1,12331.2 L 11013.1,12317.3 L 11262.5,12173.3 L 11262.5,12187.2 L 11013.1,12331.2 Z " />
<text x="0" y="0" stroke="transparent" fill="#000000" transform="matrix(0.05 0 0 0.05 320.297 23.6144)" style="font:normal normal normal 200px 'Arial'" >
O</text>
<path stroke="transparent" fill="#000000" transform="matrix(0.05 0 0 0.05 -214 -589)" d="M 10851.1,12237.5 L 10857.1,12227.1 L 11013.1,12317.3 L 11013.1,12331.2 L 10851.1,12237.5 Z " />
<path stroke="transparent" fill="#000000" transform="matrix(0.05 0 0 0.05 -214 -589)" d="M 10514.3,12330.8 L 10514.3,12316.9 L 10670.5,12226.9 L 10676.5,12237.3 L 10514.3,12330.8 Z " />
<path stroke="transparent" fill="#000000" transform="matrix(0.05 0 0 0.05 -214 -589)" d="M 10264.9,12186.6 L 10264.9,12172.7 L 10514.3,12316.9 L 10514.3,12330.8 L 10264.9,12186.6 Z " />
<text x="0" y="0" stroke="transparent" fill="#000000" transform="matrix(0.05 0 0 0.05 282.887 30.7844)" style="font:normal normal normal 200px 'Arial'" >
O</text>
<path stroke="transparent" fill="#000000" transform="matrix(0.05 0 0 0.05 -214 -589)" d="M 10108.9,12276.5 L 10103,12266.1 L 10264.9,12172.7 L 10264.9,12186.6 L 10108.9,12276.5 Z " />
<text x="0" y="0" stroke="transparent" fill="#000000" transform="matrix(0.05 0 0 0.05 357.698 45.2344)" style="font:normal normal normal 200px 'Arial'" >
O</text>
<path stroke="transparent" fill="#000000" transform="matrix(0.05 0 0 0.05 -214 -589)" d="M 11543.7,12506 L 11531.7,12506 L 11531.9,12309.5 L 11543.9,12309.5 L 11543.7,12506 Z " />
<path stroke="transparent" fill="#000000" transform="matrix(0.05 0 0 0.05 -214 -589)" d="M 11491.9,12506 L 11479.9,12506 L 11480,12309.5 L 11492,12309.5 L 11491.9,12506 Z " />
<path stroke="transparent" fill="#000000" transform="matrix(0.05 0 0 0.05 -214 -589)" d="M 10012.7,13188.3 L 10024.7,13181.4 L 10024.5,13469.4 L 10012.5,13476.3 L 10012.7,13188.3 Z " />
<text x="0" y="0" stroke="transparent" fill="#000000" transform="matrix(0.05 0 0 0.05 270.866 66.6444)" style="font:normal normal normal 200px 'Arial'" >
N</text>
<path stroke="transparent" fill="#000000" transform="matrix(0.05 0 0 0.05 -214 -589)" d="M 9867.03,13104 L 9873.04,13093.6 L 10024.7,13181.4 L 10012.7,13188.3 L 9867.03,13104 Z " />
<path stroke="transparent" fill="#000000" transform="matrix(0.05 0 0 0.05 -214 -589)" d="M 9763.74,12749.2 L 9775.73,12756.1 L 9775.61,12936.2 L 9763.61,12936.2 L 9763.74,12749.2 Z " />
<path stroke="transparent" fill="#000000" transform="matrix(0.05 0 0 0.05 -214 -589)" d="M 10013.1,12605.4 L 10025.2,12612.3 L 9775.73,12756.1 L 9763.74,12749.2 L 10013.1,12605.4 Z " />
<path stroke="transparent" fill="#000000" transform="matrix(0.05 0 0 0.05 -214 -589)" d="M 10010.8,12427.1 L 10022.8,12426.9 L 10025.2,12612.3 L 10013.1,12605.4 L 10010.8,12427.1 Z " />
<path stroke="transparent" fill="#000000" transform="matrix(0.05 0 0 0.05 -214 -589)" d="M 9519.93,13191.6 L 9519.94,13177.7 L 9664.17,13094.5 L 9670.16,13104.9 L 9519.93,13191.6 Z " />
<path stroke="transparent" fill="#000000" transform="matrix(0.05 0 0 0.05 -214 -589)" d="M 9270.73,13047.4 L 9270.74,13033.5 L 9519.94,13177.7 L 9519.93,13191.6 L 9270.73,13047.4 Z " />
<path stroke="transparent" fill="#000000" transform="matrix(0.05 0 0 0.05 -214 -589)" d="M 9021.13,13191.2 L 9021.14,13177.3 L 9270.74,13033.5 L 9270.73,13047.4 L 9021.13,13191.2 Z " />
<path stroke="transparent" fill="#000000" transform="matrix(0.05 0 0 0.05 -214 -589)" d="M 8772.08,13047.1 L 8771.78,13033 L 9021.14,13177.3 L 9021.13,13191.2 L 8772.08,13047.1 Z " />
<path stroke="transparent" fill="#000000" transform="matrix(0.05 0 0 0.05 -214 -589)" d="M 8638.4,13132.2 L 8631.95,13122.1 L 8771.78,13033 L 8772.08,13047.1 L 8638.4,13132.2 Z " />
</svg>
