<?xml version="1.0" standalone="no" ?>
<!DOCTYPE svg PUBLIC "-//W3C//DTD SVG 1.1//EN" "http://www.w3.org/Graphics/SVG/1.1/DTD/svg11.dtd">
<svg width="363px" height="112px" viewBox="0 0 363 112" style="background-color: #ffffffff" xmlns="http://www.w3.org/2000/svg" xmlns:xlink="http://www.w3.org/1999/xlink" version="1.1" >
<text x="0" y="0" stroke="transparent" fill="#000000" transform="matrix(0.05 0 0 0.05 320.425 100.868)" style="font:normal normal normal 200px 'Arial'" >
N</text>
<text x="0" y="0" stroke="transparent" fill="#000000" transform="matrix(0.05 0 0 0.05 334.825 100.877)" style="font:normal normal normal 200px 'Arial'" >
N</text>
<text x="0" y="0" stroke="transparent" fill="#000000" transform="matrix(0.05 0 0 0.05 334.841 75.9359)" style="font:normal normal normal 200px 'Arial'" >
N</text>
<text x="0" y="0" stroke="transparent" fill="#000000" transform="matrix(0.05 0 0 0.05 320.441 75.9262)" style="font:normal normal normal 200px 'Arial'" >
N</text>
<path stroke="transparent" fill="#000000" transform="matrix(0.05 0 0 0.05 -110 -51)" d="M 8878.49,2959.27 L 8878.49,2971.27 L 8768.49,2971.19 L 8768.49,2959.19 L 8878.49,2959.27 Z " />
<path stroke="transparent" fill="#000000" transform="matrix(0.05 0 0 0.05 -110 -51)" d="M 9105.95,2716 L 9112.87,2716.01 L 9116.33,2722.01 L 9035.29,2862.16 L 9024.9,2856.16 L 9105.95,2716 Z " />
<path stroke="transparent" fill="#000000" transform="matrix(0.05 0 0 0.05 -110 -51)" d="M 9047.82,2712.96 L 9058.21,2718.97 L 8990.41,2836.21 L 8980.03,2830.21 L 9047.82,2712.96 Z " />
<path stroke="transparent" fill="#000000" transform="matrix(0.05 0 0 0.05 -110 -51)" d="M 9024.7,2575.06 L 9035.09,2569.07 L 9116.34,2710.01 L 9112.87,2716.01 L 9105.95,2716 L 9024.7,2575.06 Z " />
<path stroke="transparent" fill="#000000" transform="matrix(0.05 0 0 0.05 -110 -51)" d="M 8768.82,2472.36 L 8768.83,2460.36 L 8878.83,2460.44 L 8878.82,2472.44 L 8768.82,2472.36 Z " />
<path stroke="transparent" fill="#000000" transform="matrix(0.05 0 0 0.05 -110 -51)" d="M 8768.79,2524.2 L 8768.79,2512.2 L 8878.79,2512.28 L 8878.79,2524.28 L 8768.79,2524.2 Z " />
<path stroke="transparent" fill="#000000" transform="matrix(0.05 0 0 0.05 -110 -51)" d="M 8543.8,2715.63 L 8536.87,2715.62 L 8533.41,2709.62 L 8614.23,2569.85 L 8624.62,2575.86 L 8543.8,2715.63 Z " />
<path stroke="transparent" fill="#000000" transform="matrix(0.05 0 0 0.05 -110 -51)" d="M 8624.06,2854.85 L 8613.66,2860.84 L 8533.41,2721.62 L 8536.87,2715.62 L 8543.8,2715.63 L 8624.06,2854.85 Z " />
<path stroke="transparent" fill="#000000" transform="matrix(0.05 0 0 0.05 -110 -51)" d="M 8668.97,2828.96 L 8658.57,2834.95 L 8591.54,2718.66 L 8601.93,2712.67 L 8668.97,2828.96 Z " />
<path stroke="transparent" fill="#000000" transform="matrix(0.05 0 0 0.05 -110 -51)" d="M 9400.88,2710.2 L 9400.87,2722.2 L 9116.33,2722.01 L 9112.87,2716.01 L 9116.34,2710.01 L 9400.88,2710.2 Z " />
<path stroke="transparent" fill="#000000" transform="matrix(0.05 0 0 0.05 -110 -51)" d="M 8252.33,2721.43 L 8248.87,2715.43 L 8252.34,2709.43 L 8533.41,2709.62 L 8536.87,2715.62 L 8533.41,2721.62 L 8252.33,2721.43 Z " />
<path stroke="transparent" fill="#000000" transform="matrix(0.05 0 0 0.05 -110 -51)" d="M 8101.57,2471.91 L 8108.51,2459.92 L 8252.34,2709.43 L 8248.87,2715.43 L 8241.95,2715.42 L 8101.57,2471.91 Z " />
<path stroke="transparent" fill="#000000" transform="matrix(0.05 0 0 0.05 -110 -51)" d="M 7820.5,2471.73 L 7813.58,2459.72 L 8108.51,2459.92 L 8101.57,2471.91 L 7820.5,2471.73 Z " />
<path stroke="transparent" fill="#000000" transform="matrix(0.05 0 0 0.05 -110 -51)" d="M 7846.93,2523.58 L 7846.94,2511.58 L 8075.08,2511.74 L 8075.07,2523.74 L 7846.93,2523.58 Z " />
<path stroke="transparent" fill="#000000" transform="matrix(0.05 0 0 0.05 -110 -51)" d="M 7679.8,2715.05 L 7672.88,2715.04 L 7669.42,2709.04 L 7813.58,2459.72 L 7820.5,2471.73 L 7679.8,2715.05 Z " />
<path stroke="transparent" fill="#000000" transform="matrix(0.05 0 0 0.05 -110 -51)" d="M 7820.18,2958.56 L 7813.24,2970.55 L 7669.41,2721.04 L 7672.88,2715.04 L 7679.8,2715.05 L 7820.18,2958.56 Z " />
<path stroke="transparent" fill="#000000" transform="matrix(0.05 0 0 0.05 -110 -51)" d="M 7851.87,2909.74 L 7841.47,2915.73 L 7727.54,2718.08 L 7737.93,2712.09 L 7851.87,2909.74 Z " />
<path stroke="transparent" fill="#000000" transform="matrix(0.05 0 0 0.05 -110 -51)" d="M 8101.25,2958.74 L 8108.17,2970.75 L 7813.24,2970.55 L 7820.18,2958.56 L 8101.25,2958.74 Z " />
<path stroke="transparent" fill="#000000" transform="matrix(0.05 0 0 0.05 -110 -51)" d="M 8241.95,2715.42 L 8248.87,2715.43 L 8252.33,2721.43 L 8108.17,2970.75 L 8101.25,2958.74 L 8241.95,2715.42 Z " />
<path stroke="transparent" fill="#000000" transform="matrix(0.05 0 0 0.05 -110 -51)" d="M 8183.82,2712.38 L 8194.21,2718.39 L 8080.01,2915.89 L 8069.62,2909.88 L 8183.82,2712.38 Z " />
<text x="0" y="0" stroke="transparent" fill="#000000" transform="matrix(0.05 0 0 0.05 255.355 88.3535)" style="font:normal normal normal 200px 'Arial'" >
O</text>
<path stroke="transparent" fill="#000000" transform="matrix(0.05 0 0 0.05 -110 -51)" d="M 7485.09,2720.92 L 7485.1,2708.92 L 7669.42,2709.04 L 7672.88,2715.04 L 7669.41,2721.04 L 7485.09,2720.92 Z " />
<path stroke="transparent" fill="#000000" transform="matrix(0.05 0 0 0.05 -110 -51)" d="M 7135.36,2865.61 L 7135.37,2851.75 L 7291.62,2761.68 L 7297.61,2772.08 L 7135.36,2865.61 Z " />
<path stroke="transparent" fill="#000000" transform="matrix(0.05 0 0 0.05 -110 -51)" d="M 6886.04,2721.44 L 6886.05,2707.59 L 7135.37,2851.75 L 7135.36,2865.61 L 6886.04,2721.44 Z " />
<path stroke="transparent" fill="#000000" transform="matrix(0.05 0 0 0.05 -110 -51)" d="M 6636.53,2865.27 L 6636.54,2851.42 L 6886.05,2707.59 L 6886.04,2721.44 L 6636.53,2865.27 Z " />
<text x="0" y="0" stroke="transparent" fill="#000000" transform="matrix(0.05 0 0 0.05 205.75 79.4867)" style="font:normal normal normal 200px 'Arial'" >
H</text>
<text x="0" y="0" stroke="transparent" fill="#000000" transform="matrix(0.05 0 0 0.05 205.75 88.3201)" style="font:normal normal normal 200px 'Arial'" >
N</text>
<path stroke="transparent" fill="#000000" transform="matrix(0.05 0 0 0.05 -110 -51)" d="M 6484.87,2777.58 L 6490.88,2767.19 L 6636.54,2851.42 L 6636.53,2865.27 L 6484.87,2777.58 Z " />
<path stroke="transparent" fill="#000000" transform="matrix(0.05 0 0 0.05 -110 -51)" d="M 6137.7,2864.94 L 6137.71,2851.08 L 6281.69,2768.08 L 6287.69,2778.48 L 6137.7,2864.94 Z " />
<path stroke="transparent" fill="#000000" transform="matrix(0.05 0 0 0.05 -110 -51)" d="M 5888.38,2720.77 L 5888.39,2706.92 L 6137.71,2851.08 L 6137.7,2864.94 L 5888.38,2720.77 Z " />
<path stroke="transparent" fill="#000000" transform="matrix(0.05 0 0 0.05 -110 -51)" d="M 5638.87,2864.61 L 5638.88,2850.75 L 5888.39,2706.92 L 5888.38,2720.77 L 5638.87,2864.61 Z " />
<text x="0" y="0" stroke="transparent" fill="#000000" transform="matrix(0.05 0 0 0.05 155.589 88.2866)" style="font:normal normal normal 200px 'Arial'" >
O</text>
<path stroke="transparent" fill="#000000" transform="matrix(0.05 0 0 0.05 -110 -51)" d="M 5476.87,2770.93 L 5482.88,2760.54 L 5638.88,2850.75 L 5638.87,2864.61 L 5476.87,2770.93 Z " />
<path stroke="transparent" fill="#000000" transform="matrix(0.05 0 0 0.05 -110 -51)" d="M 5140.04,2864.27 L 5140.05,2850.41 L 5296.3,2760.34 L 5302.29,2770.74 L 5140.04,2864.27 Z " />
<path stroke="transparent" fill="#000000" transform="matrix(0.05 0 0 0.05 -110 -51)" d="M 4890.72,2720.1 L 4890.73,2706.25 L 5140.05,2850.41 L 5140.04,2864.27 L 4890.72,2720.1 Z " />
<text x="0" y="0" stroke="transparent" fill="#000000" transform="matrix(0.05 0 0 0.05 118.171 95.4615)" style="font:normal normal normal 200px 'Arial'" >
O</text>
<path stroke="transparent" fill="#000000" transform="matrix(0.05 0 0 0.05 -110 -51)" d="M 4734.63,2810.08 L 4728.64,2799.69 L 4890.73,2706.25 L 4890.72,2720.1 L 4734.63,2810.08 Z " />
<path stroke="transparent" fill="#000000" transform="matrix(0.05 0 0 0.05 -110 -51)" d="M 4385.89,2716.3 L 4397.9,2709.38 L 4553.63,2799.44 L 4547.63,2809.82 L 4385.89,2716.3 Z " />
<text x="0" y="0" stroke="transparent" fill="#000000" transform="matrix(0.05 0 0 0.05 192.986 109.912)" style="font:normal normal normal 200px 'Arial'" >
O</text>
<path stroke="transparent" fill="#000000" transform="matrix(0.05 0 0 0.05 -110 -51)" d="M 6169.5,3039.59 L 6157.5,3039.58 L 6157.63,2843.06 L 6169.63,2843.07 L 6169.5,3039.59 Z " />
<path stroke="transparent" fill="#000000" transform="matrix(0.05 0 0 0.05 -110 -51)" d="M 6117.66,3039.55 L 6105.66,3039.55 L 6105.79,2843.03 L 6117.79,2843.03 L 6117.66,3039.55 Z " />
<text x="0" y="0" stroke="transparent" fill="#000000" transform="matrix(0.05 0 0 0.05 307.805 36.1885)" style="font:normal normal normal 200px 'Arial'" >
N</text>
<text x="0" y="0" stroke="transparent" fill="#000000" transform="matrix(0.05 0 0 0.05 322.205 36.1982)" style="font:normal normal normal 200px 'Arial'" >
N</text>
<text x="0" y="0" stroke="transparent" fill="#000000" transform="matrix(0.05 0 0 0.05 322.221 11.2582)" style="font:normal normal normal 200px 'Arial'" >
N</text>
<text x="0" y="0" stroke="transparent" fill="#000000" transform="matrix(0.05 0 0 0.05 307.821 11.2485)" style="font:normal normal normal 200px 'Arial'" >
N</text>
<path stroke="transparent" fill="#000000" transform="matrix(0.05 0 0 0.05 -110 -51)" d="M 8626.1,1665.68 L 8626.09,1677.68 L 8516.09,1677.61 L 8516.09,1665.61 L 8626.1,1665.68 Z " />
<path stroke="transparent" fill="#000000" transform="matrix(0.05 0 0 0.05 -110 -51)" d="M 8853.55,1422.43 L 8860.48,1422.44 L 8863.94,1428.44 L 8782.9,1568.58 L 8772.51,1562.57 L 8853.55,1422.43 Z " />
<path stroke="transparent" fill="#000000" transform="matrix(0.05 0 0 0.05 -110 -51)" d="M 8795.42,1419.39 L 8805.81,1425.4 L 8738.02,1542.63 L 8727.63,1536.62 L 8795.42,1419.39 Z " />
<path stroke="transparent" fill="#000000" transform="matrix(0.05 0 0 0.05 -110 -51)" d="M 8772.3,1281.5 L 8782.7,1275.51 L 8863.94,1416.44 L 8860.48,1422.44 L 8853.55,1422.43 L 8772.3,1281.5 Z " />
<path stroke="transparent" fill="#000000" transform="matrix(0.05 0 0 0.05 -110 -51)" d="M 8516.42,1178.81 L 8516.43,1166.81 L 8626.43,1166.88 L 8626.42,1178.88 L 8516.42,1178.81 Z " />
<path stroke="transparent" fill="#000000" transform="matrix(0.05 0 0 0.05 -110 -51)" d="M 8516.39,1230.65 L 8516.39,1218.65 L 8626.4,1218.72 L 8626.39,1230.72 L 8516.39,1230.65 Z " />
<path stroke="transparent" fill="#000000" transform="matrix(0.05 0 0 0.05 -110 -51)" d="M 8291.4,1422.06 L 8284.48,1422.05 L 8281.02,1416.05 L 8361.83,1276.3 L 8372.22,1282.31 L 8291.4,1422.06 Z " />
<path stroke="transparent" fill="#000000" transform="matrix(0.05 0 0 0.05 -110 -51)" d="M 8371.66,1561.27 L 8361.26,1567.26 L 8281.01,1428.05 L 8284.48,1422.05 L 8291.4,1422.06 L 8371.66,1561.27 Z " />
<path stroke="transparent" fill="#000000" transform="matrix(0.05 0 0 0.05 -110 -51)" d="M 8416.57,1535.38 L 8406.17,1541.37 L 8339.14,1425.09 L 8349.53,1419.1 L 8416.57,1535.38 Z " />
<path stroke="transparent" fill="#000000" transform="matrix(0.05 0 0 0.05 -110 -51)" d="M 9148.48,1416.63 L 9148.47,1428.63 L 8863.94,1428.44 L 8860.48,1422.44 L 8863.94,1416.44 L 9148.48,1416.63 Z " />
<path stroke="transparent" fill="#000000" transform="matrix(0.05 0 0 0.05 -110 -51)" d="M 7999.94,1427.86 L 7996.48,1421.86 L 7999.94,1415.86 L 8281.02,1416.05 L 8284.48,1422.05 L 8281.01,1428.05 L 7999.94,1427.86 Z " />
<path stroke="transparent" fill="#000000" transform="matrix(0.05 0 0 0.05 -110 -51)" d="M 7849.17,1178.36 L 7856.11,1166.36 L 7999.94,1415.86 L 7996.48,1421.86 L 7989.55,1421.85 L 7849.17,1178.36 Z " />
<path stroke="transparent" fill="#000000" transform="matrix(0.05 0 0 0.05 -110 -51)" d="M 7568.1,1178.17 L 7561.18,1166.17 L 7856.11,1166.36 L 7849.17,1178.36 L 7568.1,1178.17 Z " />
<path stroke="transparent" fill="#000000" transform="matrix(0.05 0 0 0.05 -110 -51)" d="M 7594.53,1230.03 L 7594.54,1218.03 L 7822.68,1218.18 L 7822.68,1230.18 L 7594.53,1230.03 Z " />
<path stroke="transparent" fill="#000000" transform="matrix(0.05 0 0 0.05 -110 -51)" d="M 7427.4,1421.48 L 7420.48,1421.47 L 7417.02,1415.47 L 7561.18,1166.17 L 7568.1,1178.17 L 7427.4,1421.48 Z " />
<path stroke="transparent" fill="#000000" transform="matrix(0.05 0 0 0.05 -110 -51)" d="M 7567.78,1664.97 L 7560.84,1676.97 L 7417.01,1427.47 L 7420.48,1421.47 L 7427.4,1421.48 L 7567.78,1664.97 Z " />
<path stroke="transparent" fill="#000000" transform="matrix(0.05 0 0 0.05 -110 -51)" d="M 7599.47,1616.15 L 7589.07,1622.15 L 7475.14,1424.51 L 7485.53,1418.52 L 7599.47,1616.15 Z " />
<path stroke="transparent" fill="#000000" transform="matrix(0.05 0 0 0.05 -110 -51)" d="M 7848.85,1665.16 L 7855.77,1677.16 L 7560.84,1676.97 L 7567.78,1664.97 L 7848.85,1665.16 Z " />
<path stroke="transparent" fill="#000000" transform="matrix(0.05 0 0 0.05 -110 -51)" d="M 7989.55,1421.85 L 7996.48,1421.86 L 7999.94,1427.86 L 7855.77,1677.16 L 7848.85,1665.16 L 7989.55,1421.85 Z " />
<path stroke="transparent" fill="#000000" transform="matrix(0.05 0 0 0.05 -110 -51)" d="M 7931.42,1418.81 L 7941.81,1424.82 L 7827.61,1622.31 L 7817.22,1616.3 L 7931.42,1418.81 Z " />
<text x="0" y="0" stroke="transparent" fill="#000000" transform="matrix(0.05 0 0 0.05 242.735 23.6751)" style="font:normal normal normal 200px 'Arial'" >
O</text>
<path stroke="transparent" fill="#000000" transform="matrix(0.05 0 0 0.05 -110 -51)" d="M 7232.69,1427.35 L 7232.7,1415.35 L 7417.02,1415.47 L 7420.48,1421.47 L 7417.01,1427.47 L 7232.69,1427.35 Z " />
<path stroke="transparent" fill="#000000" transform="matrix(0.05 0 0 0.05 -110 -51)" d="M 6882.97,1572.04 L 6882.98,1558.18 L 7039.22,1468.11 L 7045.22,1478.51 L 6882.97,1572.04 Z " />
<path stroke="transparent" fill="#000000" transform="matrix(0.05 0 0 0.05 -110 -51)" d="M 6633.67,1427.87 L 6633.68,1414.02 L 6882.98,1558.18 L 6882.97,1572.04 L 6633.67,1427.87 Z " />
<path stroke="transparent" fill="#000000" transform="matrix(0.05 0 0 0.05 -110 -51)" d="M 6383.97,1571.7 L 6383.99,1557.85 L 6633.68,1414.02 L 6633.67,1427.87 L 6383.97,1571.7 Z " />
<text x="0" y="0" stroke="transparent" fill="#000000" transform="matrix(0.05 0 0 0.05 193.141 14.7902)" style="font:normal normal normal 199px 'Arial'" >
H</text>
<text x="0" y="0" stroke="transparent" fill="#000000" transform="matrix(0.05 0 0 0.05 193.141 23.6235)" style="font:normal normal normal 199px 'Arial'" >
N</text>
<path stroke="transparent" fill="#000000" transform="matrix(0.05 0 0 0.05 -110 -51)" d="M 6231.7,1483.65 L 6237.7,1473.26 L 6383.99,1557.85 L 6383.97,1571.7 L 6231.7,1483.65 Z " />
<path stroke="transparent" fill="#000000" transform="matrix(0.05 0 0 0.05 -110 -51)" d="M 5885.17,1571.37 L 5885.18,1557.51 L 6029.58,1474.27 L 6035.58,1484.67 L 5885.17,1571.37 Z " />
<path stroke="transparent" fill="#000000" transform="matrix(0.05 0 0 0.05 -110 -51)" d="M 5635.87,1427.2 L 5635.88,1413.35 L 5885.18,1557.51 L 5885.17,1571.37 L 5635.87,1427.2 Z " />
<path stroke="transparent" fill="#000000" transform="matrix(0.05 0 0 0.05 -110 -51)" d="M 5386.37,1571.04 L 5386.38,1557.18 L 5635.88,1413.35 L 5635.87,1427.2 L 5386.37,1571.04 Z " />
<text x="0" y="0" stroke="transparent" fill="#000000" transform="matrix(0.05 0 0 0.05 142.965 23.6081)" style="font:normal normal normal 200px 'Arial'" >
O</text>
<path stroke="transparent" fill="#000000" transform="matrix(0.05 0 0 0.05 -110 -51)" d="M 5224.39,1477.37 L 5230.4,1466.98 L 5386.38,1557.18 L 5386.37,1571.04 L 5224.39,1477.37 Z " />
<path stroke="transparent" fill="#000000" transform="matrix(0.05 0 0 0.05 -110 -51)" d="M 4887.57,1570.7 L 4887.58,1556.85 L 5043.82,1466.77 L 5049.82,1477.17 L 4887.57,1570.7 Z " />
<path stroke="transparent" fill="#000000" transform="matrix(0.05 0 0 0.05 -110 -51)" d="M 4638.27,1426.53 L 4638.28,1412.68 L 4887.58,1556.85 L 4887.57,1570.7 L 4638.27,1426.53 Z " />
<text x="0" y="0" stroke="transparent" fill="#000000" transform="matrix(0.05 0 0 0.05 105.55 30.783)" style="font:normal normal normal 200px 'Arial'" >
O</text>
<path stroke="transparent" fill="#000000" transform="matrix(0.05 0 0 0.05 -110 -51)" d="M 4482.2,1516.51 L 4476.2,1506.11 L 4638.28,1412.68 L 4638.27,1426.53 L 4482.2,1516.51 Z " />
<text x="0" y="0" stroke="transparent" fill="#000000" transform="matrix(0.05 0 0 0.05 180.36 45.2332)" style="font:normal normal normal 200px 'Arial'" >
O</text>
<path stroke="transparent" fill="#000000" transform="matrix(0.05 0 0 0.05 -110 -51)" d="M 5916.98,1746.02 L 5904.98,1746.01 L 5905.11,1549.49 L 5917.11,1549.5 L 5916.98,1746.02 Z " />
<path stroke="transparent" fill="#000000" transform="matrix(0.05 0 0 0.05 -110 -51)" d="M 5865.14,1745.98 L 5853.14,1745.98 L 5853.27,1549.46 L 5865.27,1549.46 L 5865.14,1745.98 Z " />
<path stroke="transparent" fill="#000000" transform="matrix(0.05 0 0 0.05 -110 -51)" d="M 4386.08,2428.3 L 4398.09,2421.38 L 4397.9,2709.38 L 4385.89,2716.3 L 4386.08,2428.3 Z " />
<text x="0" y="0" stroke="transparent" fill="#000000" transform="matrix(0.05 0 0 0.05 93.5276 66.6448)" style="font:normal normal normal 200px 'Arial'" >
N</text>
<path stroke="transparent" fill="#000000" transform="matrix(0.05 0 0 0.05 -110 -51)" d="M 4240.28,2343.99 L 4246.29,2333.6 L 4398.09,2421.38 L 4386.08,2428.3 L 4240.28,2343.99 Z " />
<path stroke="transparent" fill="#000000" transform="matrix(0.05 0 0 0.05 -110 -51)" d="M 4136.96,1989.21 L 4148.96,1996.14 L 4148.84,2176.23 L 4136.84,2176.23 L 4136.96,1989.21 Z " />
<path stroke="transparent" fill="#000000" transform="matrix(0.05 0 0 0.05 -110 -51)" d="M 4386.43,1845.4 L 4398.52,1852.28 L 4148.96,1996.14 L 4136.96,1989.21 L 4386.43,1845.4 Z " />
<path stroke="transparent" fill="#000000" transform="matrix(0.05 0 0 0.05 -110 -51)" d="M 4384.12,1667.06 L 4396.12,1666.9 L 4398.52,1852.28 L 4386.43,1845.4 L 4384.12,1667.06 Z " />
<path stroke="transparent" fill="#000000" transform="matrix(0.05 0 0 0.05 -110 -51)" d="M 3893.25,2431.43 L 3893.26,2417.58 L 4037.39,2334.49 L 4043.38,2344.89 L 3893.25,2431.43 Z " />
<path stroke="transparent" fill="#000000" transform="matrix(0.05 0 0 0.05 -110 -51)" d="M 3643.93,2287.27 L 3643.94,2273.41 L 3893.26,2417.58 L 3893.25,2431.43 L 3643.93,2287.27 Z " />
<path stroke="transparent" fill="#000000" transform="matrix(0.05 0 0 0.05 -110 -51)" d="M 3394.42,2431.1 L 3394.43,2417.24 L 3643.94,2273.41 L 3643.93,2287.27 L 3394.42,2431.1 Z " />
<path stroke="transparent" fill="#000000" transform="matrix(0.05 0 0 0.05 -110 -51)" d="M 3145.1,2286.93 L 3145.11,2273.08 L 3394.43,2417.24 L 3394.42,2431.1 L 3145.1,2286.93 Z " />
<text x="0" y="0" stroke="transparent" fill="#000000" transform="matrix(0.05 0 0 0.05 31.1689 73.803)" style="font:normal normal normal 200px 'Arial'" >
N</text>
<path stroke="transparent" fill="#000000" transform="matrix(0.05 0 0 0.05 -110 -51)" d="M 2999.53,2370.85 L 2993.54,2360.45 L 3145.11,2273.08 L 3145.1,2286.93 L 2999.53,2370.85 Z " />
<text x="0" y="0" stroke="transparent" fill="#000000" transform="matrix(0.05 0 0 0.05 18.6799 66.6348)" style="font:normal normal normal 200px 'Arial'" >
N</text>
<text x="0" y="0" stroke="transparent" fill="#000000" transform="matrix(0.05 0 0 0.05 25.9015 63.0237)" style="font:normal normal normal 150px 'Arial'" >
+</text>
<path stroke="transparent" fill="#000000" transform="matrix(0.05 0 0 0.05 -110 -51)" d="M 2730.53,2365.9 L 2736.5,2355.49 L 2782.86,2382.1 L 2776.89,2392.51 L 2730.53,2365.9 Z " />
<path stroke="transparent" fill="#000000" transform="matrix(0.05 0 0 0.05 -110 -51)" d="M 2756.34,2320.94 L 2762.31,2310.53 L 2808.66,2337.14 L 2802.69,2347.55 L 2756.34,2320.94 Z " />
<text x="0" y="0" stroke="transparent" fill="#000000" transform="matrix(0.05 0 0 0.05 2.01961 55.8302)" style="font:normal normal normal 150px 'Arial'" >
–</text>
<text x="0" y="0" stroke="transparent" fill="#000000" transform="matrix(0.05 0 0 0.05 6.19075 59.4413)" style="font:normal normal normal 200px 'Arial'" >
N</text>
<path stroke="transparent" fill="#000000" transform="matrix(0.05 0 0 0.05 -110 -51)" d="M 2480.34,2222.02 L 2486.32,2211.63 L 2533.08,2238.56 L 2527.1,2248.96 L 2480.34,2222.02 Z " />
<path stroke="transparent" fill="#000000" transform="matrix(0.05 0 0 0.05 -110 -51)" d="M 2506.23,2177.06 L 2512.22,2166.66 L 2558.98,2193.6 L 2552.99,2204 L 2506.23,2177.06 Z " />
</svg>
