<?xml version="1.0" standalone="no" ?>
<!DOCTYPE svg PUBLIC "-//W3C//DTD SVG 1.1//EN" "http://www.w3.org/Graphics/SVG/1.1/DTD/svg11.dtd">
<svg width="363px" height="112px" viewBox="0 0 363 112" style="background-color: #ffffffff" xmlns="http://www.w3.org/2000/svg" xmlns:xlink="http://www.w3.org/1999/xlink" version="1.1" >
<text x="0" y="0" stroke="transparent" fill="#000000" transform="matrix(0.05 0 0 0.05 35.0909 19.8385)" style="font:normal normal normal 200px 'Arial'" >
N</text>
<text x="0" y="0" stroke="transparent" fill="#000000" transform="matrix(0.05 0 0 0.05 20.6909 19.8219)" style="font:normal normal normal 200px 'Arial'" >
N</text>
<text x="0" y="0" stroke="transparent" fill="#000000" transform="matrix(0.05 0 0 0.05 20.6623 44.7634)" style="font:normal normal normal 200px 'Arial'" >
N</text>
<text x="0" y="0" stroke="transparent" fill="#000000" transform="matrix(0.05 0 0 0.05 35.0623 44.78)" style="font:normal normal normal 200px 'Arial'" >
N</text>
<path stroke="transparent" fill="#000000" transform="matrix(0.05 0 0 0.05 -20 -54)" d="M 973.812,1410.32 L 973.825,1398.32 L 1083.83,1398.44 L 1083.81,1410.44 L 973.812,1410.32 Z " />
<path stroke="transparent" fill="#000000" transform="matrix(0.05 0 0 0.05 -20 -54)" d="M 748.677,1653.47 L 741.749,1653.47 L 738.292,1647.46 L 819.174,1507.74 L 829.559,1513.75 L 748.677,1653.47 Z " />
<path stroke="transparent" fill="#000000" transform="matrix(0.05 0 0 0.05 -20 -54)" d="M 806.802,1656.54 L 796.416,1650.53 L 864.039,1533.71 L 874.424,1539.73 L 806.802,1656.54 Z " />
<path stroke="transparent" fill="#000000" transform="matrix(0.05 0 0 0.05 -20 -54)" d="M 828.87,1792.74 L 818.471,1798.73 L 738.278,1659.46 L 741.749,1653.47 L 748.677,1653.47 L 828.87,1792.74 Z " />
<path stroke="transparent" fill="#000000" transform="matrix(0.05 0 0 0.05 -20 -54)" d="M 1083.25,1897.27 L 1083.24,1909.27 L 973.239,1909.15 L 973.253,1897.15 L 1083.25,1897.27 Z " />
<path stroke="transparent" fill="#000000" transform="matrix(0.05 0 0 0.05 -20 -54)" d="M 1083.31,1845.43 L 1083.3,1857.43 L 973.299,1857.31 L 973.312,1845.31 L 1083.31,1845.43 Z " />
<path stroke="transparent" fill="#000000" transform="matrix(0.05 0 0 0.05 -20 -54)" d="M 1310.82,1654.12 L 1317.75,1654.13 L 1321.21,1660.13 L 1240.1,1800.24 L 1229.71,1794.23 L 1310.82,1654.12 Z " />
<path stroke="transparent" fill="#000000" transform="matrix(0.05 0 0 0.05 -20 -54)" d="M 1229.64,1513.13 L 1240.04,1507.14 L 1321.22,1648.13 L 1317.75,1654.13 L 1310.82,1654.12 L 1229.64,1513.13 Z " />
<path stroke="transparent" fill="#000000" transform="matrix(0.05 0 0 0.05 -20 -54)" d="M 1184.71,1539 L 1195.11,1533.01 L 1263.09,1651.06 L 1252.69,1657.05 L 1184.71,1539 Z " />
<path stroke="transparent" fill="#000000" transform="matrix(0.05 0 0 0.05 -20 -54)" d="M 453.743,1659.14 L 453.757,1647.14 L 738.292,1647.46 L 741.749,1653.47 L 738.278,1659.46 L 453.743,1659.14 Z " />
<path stroke="transparent" fill="#000000" transform="matrix(0.05 0 0 0.05 -20 -54)" d="M 1602.29,1648.45 L 1605.75,1654.46 L 1602.28,1660.45 L 1321.21,1660.13 L 1317.75,1654.13 L 1321.22,1648.13 L 1602.29,1648.45 Z " />
<path stroke="transparent" fill="#000000" transform="matrix(0.05 0 0 0.05 -20 -54)" d="M 1752.93,1898.04 L 1745.99,1910.03 L 1602.28,1660.45 L 1605.75,1654.46 L 1612.68,1654.47 L 1752.93,1898.04 Z " />
<path stroke="transparent" fill="#000000" transform="matrix(0.05 0 0 0.05 -20 -54)" d="M 2034,1898.36 L 2040.92,1910.37 L 1745.99,1910.03 L 1752.93,1898.04 L 2034,1898.36 Z " />
<path stroke="transparent" fill="#000000" transform="matrix(0.05 0 0 0.05 -20 -54)" d="M 2007.6,1846.49 L 2007.58,1858.49 L 1779.44,1858.23 L 1779.46,1846.23 L 2007.6,1846.49 Z " />
<path stroke="transparent" fill="#000000" transform="matrix(0.05 0 0 0.05 -20 -54)" d="M 2174.82,1655.11 L 2181.75,1655.12 L 2185.2,1661.12 L 2040.92,1910.37 L 2034,1898.36 L 2174.82,1655.11 Z " />
<path stroke="transparent" fill="#000000" transform="matrix(0.05 0 0 0.05 -20 -54)" d="M 2034.56,1411.53 L 2041.51,1399.54 L 2185.22,1649.12 L 2181.75,1655.12 L 2174.82,1655.11 L 2034.56,1411.53 Z " />
<path stroke="transparent" fill="#000000" transform="matrix(0.05 0 0 0.05 -20 -54)" d="M 2002.85,1460.34 L 2013.24,1454.35 L 2127.09,1652.06 L 2116.69,1658.04 L 2002.85,1460.34 Z " />
<path stroke="transparent" fill="#000000" transform="matrix(0.05 0 0 0.05 -20 -54)" d="M 1753.49,1411.21 L 1746.58,1399.2 L 2041.51,1399.54 L 2034.56,1411.53 L 1753.49,1411.21 Z " />
<path stroke="transparent" fill="#000000" transform="matrix(0.05 0 0 0.05 -20 -54)" d="M 1612.68,1654.47 L 1605.75,1654.46 L 1602.29,1648.45 L 1746.58,1399.2 L 1753.49,1411.21 L 1612.68,1654.47 Z " />
<path stroke="transparent" fill="#000000" transform="matrix(0.05 0 0 0.05 -20 -54)" d="M 1670.8,1657.53 L 1660.42,1651.52 L 1774.71,1454.08 L 1785.1,1460.09 L 1670.8,1657.53 Z " />
<text x="0" y="0" stroke="transparent" fill="#000000" transform="matrix(0.05 0 0 0.05 99.5982 32.3836)" style="font:normal normal normal 200px 'Arial'" >
O</text>
<path stroke="transparent" fill="#000000" transform="matrix(0.05 0 0 0.05 -20 -54)" d="M 2368.97,1649.33 L 2368.96,1661.33 L 2185.2,1661.12 L 2181.75,1655.12 L 2185.22,1649.12 L 2368.97,1649.33 Z " />
<path stroke="transparent" fill="#000000" transform="matrix(0.05 0 0 0.05 -20 -54)" d="M 2719.34,1504.81 L 2719.32,1518.66 L 2563.18,1608.57 L 2557.2,1598.17 L 2719.34,1504.81 Z " />
<path stroke="transparent" fill="#000000" transform="matrix(0.05 0 0 0.05 -20 -54)" d="M 2968.59,1649.09 L 2968.57,1662.95 L 2719.32,1518.66 L 2719.34,1504.81 L 2968.59,1649.09 Z " />
<path stroke="transparent" fill="#000000" transform="matrix(0.05 0 0 0.05 -20 -54)" d="M 3218.17,1505.38 L 3218.15,1519.24 L 2968.57,1662.95 L 2968.59,1649.09 L 3218.17,1505.38 Z " />
<text x="0" y="0" stroke="transparent" fill="#000000" transform="matrix(0.05 0 0 0.05 149.76 32.4408)" style="font:normal normal normal 200px 'Arial'" >
N</text>
<text x="0" y="0" stroke="transparent" fill="#000000" transform="matrix(0.05 0 0 0.05 149.76 41.2742)" style="font:normal normal normal 200px 'Arial'" >
H</text>
<path stroke="transparent" fill="#000000" transform="matrix(0.05 0 0 0.05 -20 -54)" d="M 3367.7,1591.94 L 3361.69,1602.33 L 3218.15,1519.24 L 3218.17,1505.38 L 3367.7,1591.94 Z " />
<path stroke="transparent" fill="#000000" transform="matrix(0.05 0 0 0.05 -20 -54)" d="M 3717,1505.95 L 3716.98,1519.81 L 3571.35,1603.66 L 3565.37,1593.26 L 3717,1505.95 Z " />
<path stroke="transparent" fill="#000000" transform="matrix(0.05 0 0 0.05 -20 -54)" d="M 3966.25,1650.24 L 3966.23,1664.09 L 3716.98,1519.81 L 3717,1505.95 L 3966.25,1650.24 Z " />
<path stroke="transparent" fill="#000000" transform="matrix(0.05 0 0 0.05 -20 -54)" d="M 4215.83,1506.53 L 4215.81,1520.38 L 3966.23,1664.09 L 3966.25,1650.24 L 4215.83,1506.53 Z " />
<text x="0" y="0" stroke="transparent" fill="#000000" transform="matrix(0.05 0 0 0.05 199.364 32.4981)" style="font:normal normal normal 200px 'Arial'" >
O</text>
<path stroke="transparent" fill="#000000" transform="matrix(0.05 0 0 0.05 -20 -54)" d="M 4377.51,1600.12 L 4371.5,1610.51 L 4215.81,1520.38 L 4215.83,1506.53 L 4377.51,1600.12 Z " />
<path stroke="transparent" fill="#000000" transform="matrix(0.05 0 0 0.05 -20 -54)" d="M 4714.66,1507.1 L 4714.64,1520.95 L 4558.5,1610.86 L 4552.52,1600.46 L 4714.66,1507.1 Z " />
<path stroke="transparent" fill="#000000" transform="matrix(0.05 0 0 0.05 -20 -54)" d="M 4963.91,1651.38 L 4963.89,1665.24 L 4714.64,1520.95 L 4714.66,1507.1 L 4963.91,1651.38 Z " />
<text x="0" y="0" stroke="transparent" fill="#000000" transform="matrix(0.05 0 0 0.05 236.785 25.341)" style="font:normal normal normal 200px 'Arial'" >
O</text>
<path stroke="transparent" fill="#000000" transform="matrix(0.05 0 0 0.05 -20 -54)" d="M 5120.2,1561.38 L 5126.19,1571.78 L 4963.89,1665.24 L 4963.91,1651.38 L 5120.2,1561.38 Z " />
<path stroke="transparent" fill="#000000" transform="matrix(0.05 0 0 0.05 -20 -54)" d="M 5468.73,1655.43 L 5456.72,1662.34 L 5300.77,1572.07 L 5306.79,1561.68 L 5468.73,1655.43 Z " />
<text x="0" y="0" stroke="transparent" fill="#000000" transform="matrix(0.05 0 0 0.05 161.977 10.8552)" style="font:normal normal normal 200px 'Arial'" >
O</text>
<path stroke="transparent" fill="#000000" transform="matrix(0.05 0 0 0.05 -20 -54)" d="M 3685.28,1328.4 L 3697.28,1328.41 L 3697.05,1527.82 L 3685.05,1527.81 L 3685.28,1328.4 Z " />
<path stroke="transparent" fill="#000000" transform="matrix(0.05 0 0 0.05 -20 -54)" d="M 3737.12,1328.46 L 3749.12,1328.47 L 3748.89,1527.88 L 3736.89,1527.87 L 3737.12,1328.46 Z " />
<text x="0" y="0" stroke="transparent" fill="#000000" transform="matrix(0.05 0 0 0.05 47.68 84.5237)" style="font:normal normal normal 200px 'Arial'" >
N</text>
<text x="0" y="0" stroke="transparent" fill="#000000" transform="matrix(0.05 0 0 0.05 33.28 84.5072)" style="font:normal normal normal 200px 'Arial'" >
N</text>
<text x="0" y="0" stroke="transparent" fill="#000000" transform="matrix(0.05 0 0 0.05 33.2514 109.447)" style="font:normal normal normal 200px 'Arial'" >
N</text>
<text x="0" y="0" stroke="transparent" fill="#000000" transform="matrix(0.05 0 0 0.05 47.6514 109.464)" style="font:normal normal normal 200px 'Arial'" >
N</text>
<path stroke="transparent" fill="#000000" transform="matrix(0.05 0 0 0.05 -20 -54)" d="M 1225.59,2704.02 L 1225.61,2692.02 L 1335.61,2692.15 L 1335.59,2704.15 L 1225.59,2704.02 Z " />
<path stroke="transparent" fill="#000000" transform="matrix(0.05 0 0 0.05 -20 -54)" d="M 1000.46,2947.16 L 993.532,2947.16 L 990.074,2941.15 L 1070.95,2801.45 L 1081.34,2807.46 L 1000.46,2947.16 Z " />
<path stroke="transparent" fill="#000000" transform="matrix(0.05 0 0 0.05 -20 -54)" d="M 1058.58,2950.23 L 1048.2,2944.22 L 1115.82,2827.42 L 1126.2,2833.43 L 1058.58,2950.23 Z " />
<path stroke="transparent" fill="#000000" transform="matrix(0.05 0 0 0.05 -20 -54)" d="M 1080.65,3086.42 L 1070.25,3092.41 L 990.061,2953.15 L 993.532,2947.16 L 1000.46,2947.16 L 1080.65,3086.42 Z " />
<path stroke="transparent" fill="#000000" transform="matrix(0.05 0 0 0.05 -20 -54)" d="M 1335.04,3190.95 L 1335.02,3202.95 L 1225.02,3202.82 L 1225.03,3190.82 L 1335.04,3190.95 Z " />
<path stroke="transparent" fill="#000000" transform="matrix(0.05 0 0 0.05 -20 -54)" d="M 1335.09,3139.11 L 1335.08,3151.11 L 1225.08,3150.98 L 1225.09,3138.98 L 1335.09,3139.11 Z " />
<path stroke="transparent" fill="#000000" transform="matrix(0.05 0 0 0.05 -20 -54)" d="M 1562.6,2947.81 L 1569.53,2947.82 L 1572.99,2953.82 L 1491.88,3093.92 L 1481.5,3087.9 L 1562.6,2947.81 Z " />
<path stroke="transparent" fill="#000000" transform="matrix(0.05 0 0 0.05 -20 -54)" d="M 1481.42,2806.84 L 1491.82,2800.85 L 1573,2941.82 L 1569.53,2947.82 L 1562.6,2947.81 L 1481.42,2806.84 Z " />
<path stroke="transparent" fill="#000000" transform="matrix(0.05 0 0 0.05 -20 -54)" d="M 1436.5,2832.7 L 1446.9,2826.72 L 1514.87,2944.75 L 1504.47,2950.74 L 1436.5,2832.7 Z " />
<path stroke="transparent" fill="#000000" transform="matrix(0.05 0 0 0.05 -20 -54)" d="M 705.525,2952.83 L 705.539,2940.83 L 990.074,2941.15 L 993.532,2947.16 L 990.061,2953.15 L 705.525,2952.83 Z " />
<path stroke="transparent" fill="#000000" transform="matrix(0.05 0 0 0.05 -20 -54)" d="M 1854.07,2942.14 L 1857.53,2948.15 L 1854.06,2954.14 L 1572.99,2953.82 L 1569.53,2947.82 L 1573,2941.82 L 1854.07,2942.14 Z " />
<path stroke="transparent" fill="#000000" transform="matrix(0.05 0 0 0.05 -20 -54)" d="M 2004.72,3191.72 L 1997.77,3203.71 L 1854.06,2954.14 L 1857.53,2948.15 L 1864.46,2948.16 L 2004.72,3191.72 Z " />
<path stroke="transparent" fill="#000000" transform="matrix(0.05 0 0 0.05 -20 -54)" d="M 2285.79,3192.04 L 2292.7,3204.05 L 1997.77,3203.71 L 2004.72,3191.72 L 2285.79,3192.04 Z " />
<path stroke="transparent" fill="#000000" transform="matrix(0.05 0 0 0.05 -20 -54)" d="M 2259.38,3140.17 L 2259.37,3152.17 L 2031.23,3151.91 L 2031.24,3139.91 L 2259.38,3140.17 Z " />
<path stroke="transparent" fill="#000000" transform="matrix(0.05 0 0 0.05 -20 -54)" d="M 2426.6,2948.8 L 2433.53,2948.81 L 2436.99,2954.81 L 2292.7,3204.05 L 2285.79,3192.04 L 2426.6,2948.8 Z " />
<path stroke="transparent" fill="#000000" transform="matrix(0.05 0 0 0.05 -20 -54)" d="M 2286.35,2705.24 L 2293.29,2693.25 L 2437,2942.81 L 2433.53,2948.81 L 2426.6,2948.8 L 2286.35,2705.24 Z " />
<path stroke="transparent" fill="#000000" transform="matrix(0.05 0 0 0.05 -20 -54)" d="M 2254.63,2754.04 L 2265.03,2748.05 L 2378.87,2945.75 L 2368.47,2951.73 L 2254.63,2754.04 Z " />
<path stroke="transparent" fill="#000000" transform="matrix(0.05 0 0 0.05 -20 -54)" d="M 2005.27,2704.92 L 1998.36,2692.91 L 2293.29,2693.25 L 2286.35,2705.24 L 2005.27,2704.92 Z " />
<path stroke="transparent" fill="#000000" transform="matrix(0.05 0 0 0.05 -20 -54)" d="M 1864.46,2948.16 L 1857.53,2948.15 L 1854.07,2942.14 L 1998.36,2692.91 L 2005.27,2704.92 L 1864.46,2948.16 Z " />
<path stroke="transparent" fill="#000000" transform="matrix(0.05 0 0 0.05 -20 -54)" d="M 1922.58,2951.22 L 1912.2,2945.21 L 2026.49,2747.78 L 2036.88,2753.79 L 1922.58,2951.22 Z " />
<text x="0" y="0" stroke="transparent" fill="#000000" transform="matrix(0.05 0 0 0.05 112.187 97.0681)" style="font:normal normal normal 200px 'Arial'" >
O</text>
<path stroke="transparent" fill="#000000" transform="matrix(0.05 0 0 0.05 -20 -54)" d="M 2620.75,2943.02 L 2620.74,2955.02 L 2436.99,2954.81 L 2433.53,2948.81 L 2437,2942.81 L 2620.75,2943.02 Z " />
<path stroke="transparent" fill="#000000" transform="matrix(0.05 0 0 0.05 -20 -54)" d="M 2971.1,2798.5 L 2971.09,2812.35 L 2814.97,2902.26 L 2808.98,2891.86 L 2971.1,2798.5 Z " />
<path stroke="transparent" fill="#000000" transform="matrix(0.05 0 0 0.05 -20 -54)" d="M 3220.34,2942.78 L 3220.32,2956.64 L 2971.09,2812.35 L 2971.1,2798.5 L 3220.34,2942.78 Z " />
<path stroke="transparent" fill="#000000" transform="matrix(0.05 0 0 0.05 -20 -54)" d="M 3470.1,2799.07 L 3470.09,2812.93 L 3220.32,2956.64 L 3220.34,2942.78 L 3470.1,2799.07 Z " />
<text x="0" y="0" stroke="transparent" fill="#000000" transform="matrix(0.05 0 0 0.05 162.374 97.1073)" style="font:normal normal normal 199px 'Arial'" >
N</text>
<text x="0" y="0" stroke="transparent" fill="#000000" transform="matrix(0.05 0 0 0.05 162.374 105.941)" style="font:normal normal normal 199px 'Arial'" >
H</text>
<path stroke="transparent" fill="#000000" transform="matrix(0.05 0 0 0.05 -20 -54)" d="M 3620.17,2885.95 L 3614.16,2896.33 L 3470.09,2812.93 L 3470.1,2799.07 L 3620.17,2885.95 Z " />
<path stroke="transparent" fill="#000000" transform="matrix(0.05 0 0 0.05 -20 -54)" d="M 3968.9,2799.64 L 3968.89,2813.5 L 3822.52,2897.79 L 3816.53,2887.39 L 3968.9,2799.64 Z " />
<path stroke="transparent" fill="#000000" transform="matrix(0.05 0 0 0.05 -20 -54)" d="M 4218.14,2943.93 L 4218.12,2957.78 L 3968.89,2813.5 L 3968.9,2799.64 L 4218.14,2943.93 Z " />
<path stroke="transparent" fill="#000000" transform="matrix(0.05 0 0 0.05 -20 -54)" d="M 4467.7,2800.21 L 4467.69,2814.07 L 4218.12,2957.78 L 4218.14,2943.93 L 4467.7,2800.21 Z " />
<text x="0" y="0" stroke="transparent" fill="#000000" transform="matrix(0.05 0 0 0.05 211.957 97.1826)" style="font:normal normal normal 200px 'Arial'" >
O</text>
<path stroke="transparent" fill="#000000" transform="matrix(0.05 0 0 0.05 -20 -54)" d="M 4629.38,2893.81 L 4623.36,2904.2 L 4467.69,2814.07 L 4467.7,2800.21 L 4629.38,2893.81 Z " />
<path stroke="transparent" fill="#000000" transform="matrix(0.05 0 0 0.05 -20 -54)" d="M 4966.5,2800.79 L 4966.49,2814.64 L 4810.36,2904.55 L 4804.38,2894.15 L 4966.5,2800.79 Z " />
<path stroke="transparent" fill="#000000" transform="matrix(0.05 0 0 0.05 -20 -54)" d="M 5215.74,2945.07 L 5215.72,2958.93 L 4966.49,2814.64 L 4966.5,2800.79 L 5215.74,2945.07 Z " />
<text x="0" y="0" stroke="transparent" fill="#000000" transform="matrix(0.05 0 0 0.05 249.376 90.0255)" style="font:normal normal normal 200px 'Arial'" >
O</text>
<path stroke="transparent" fill="#000000" transform="matrix(0.05 0 0 0.05 -20 -54)" d="M 5372.02,2855.08 L 5378.01,2865.47 L 5215.72,2958.93 L 5215.74,2945.07 L 5372.02,2855.08 Z " />
<text x="0" y="0" stroke="transparent" fill="#000000" transform="matrix(0.05 0 0 0.05 174.572 75.5396)" style="font:normal normal normal 200px 'Arial'" >
O</text>
<path stroke="transparent" fill="#000000" transform="matrix(0.05 0 0 0.05 -20 -54)" d="M 3937.19,2622.09 L 3949.19,2622.1 L 3948.96,2821.51 L 3936.96,2821.5 L 3937.19,2622.09 Z " />
<path stroke="transparent" fill="#000000" transform="matrix(0.05 0 0 0.05 -20 -54)" d="M 3989.03,2622.15 L 4001.03,2622.16 L 4000.8,2821.57 L 3988.8,2821.56 L 3989.03,2622.15 Z " />
<path stroke="transparent" fill="#000000" transform="matrix(0.05 0 0 0.05 -20 -54)" d="M 5468.4,1943.43 L 5456.39,1950.34 L 5456.72,1662.34 L 5468.73,1655.43 L 5468.4,1943.43 Z " />
<text x="0" y="0" stroke="transparent" fill="#000000" transform="matrix(0.05 0 0 0.05 261.972 54.1696)" style="font:normal normal normal 200px 'Arial'" >
N</text>
<path stroke="transparent" fill="#000000" transform="matrix(0.05 0 0 0.05 -20 -54)" d="M 5611.94,2026.52 L 5605.93,2036.91 L 5456.39,1950.34 L 5468.4,1943.43 L 5611.94,2026.52 Z " />
<path stroke="transparent" fill="#000000" transform="matrix(0.05 0 0 0.05 -20 -54)" d="M 5717.31,2382.64 L 5705.32,2375.7 L 5705.53,2194.72 L 5717.53,2194.73 L 5717.31,2382.64 Z " />
<path stroke="transparent" fill="#000000" transform="matrix(0.05 0 0 0.05 -20 -54)" d="M 5467.78,2526.33 L 5455.69,2519.44 L 5705.32,2375.7 L 5717.31,2382.64 L 5467.78,2526.33 Z " />
<path stroke="transparent" fill="#000000" transform="matrix(0.05 0 0 0.05 -20 -54)" d="M 5469.97,2701.78 L 5457.97,2701.93 L 5455.69,2519.44 L 5467.78,2526.33 L 5469.97,2701.78 Z " />
<path stroke="transparent" fill="#000000" transform="matrix(0.05 0 0 0.05 -20 -54)" d="M 5961.24,1940.53 L 5961.22,1954.38 L 5815.59,2038.24 L 5809.6,2027.84 L 5961.24,1940.53 Z " />
<path stroke="transparent" fill="#000000" transform="matrix(0.05 0 0 0.05 -20 -54)" d="M 6210.49,2084.81 L 6210.47,2098.67 L 5961.22,1954.38 L 5961.24,1940.53 L 6210.49,2084.81 Z " />
<path stroke="transparent" fill="#000000" transform="matrix(0.05 0 0 0.05 -20 -54)" d="M 6460.07,1941.1 L 6460.05,1954.96 L 6210.47,2098.67 L 6210.49,2084.81 L 6460.07,1941.1 Z " />
<path stroke="transparent" fill="#000000" transform="matrix(0.05 0 0 0.05 -20 -54)" d="M 6709.32,2085.39 L 6709.3,2099.24 L 6460.05,1954.96 L 6460.07,1941.1 L 6709.32,2085.39 Z " />
<text x="0" y="0" stroke="transparent" fill="#000000" transform="matrix(0.05 0 0 0.05 324.334 47.0412)" style="font:normal normal normal 200px 'Arial'" >
N</text>
<path stroke="transparent" fill="#000000" transform="matrix(0.05 0 0 0.05 -20 -54)" d="M 6853.5,2002.36 L 6859.49,2012.76 L 6709.3,2099.24 L 6709.32,2085.39 L 6853.5,2002.36 Z " />
<text x="0" y="0" stroke="transparent" fill="#000000" transform="matrix(0.05 0 0 0.05 336.819 54.2153)" style="font:normal normal normal 200px 'Arial'" >
N</text>
<text x="0" y="0" stroke="transparent" fill="#000000" transform="matrix(0.05 0 0 0.05 344.041 50.6042)" style="font:normal normal normal 150px 'Arial'" >
+</text>
<path stroke="transparent" fill="#000000" transform="matrix(0.05 0 0 0.05 -20 -54)" d="M 7121.7,2005.34 L 7115.72,2015.74 L 7069.41,1989.13 L 7075.38,1978.72 L 7121.7,2005.34 Z " />
<path stroke="transparent" fill="#000000" transform="matrix(0.05 0 0 0.05 -20 -54)" d="M 7095.87,2050.28 L 7089.89,2060.69 L 7043.58,2034.08 L 7049.56,2023.67 L 7095.87,2050.28 Z " />
<text x="0" y="0" stroke="transparent" fill="#000000" transform="matrix(0.05 0 0 0.05 349.305 61.4147)" style="font:normal normal normal 200px 'Arial'" >
N</text>
<text x="0" y="0" stroke="transparent" fill="#000000" transform="matrix(0.05 0 0 0.05 356.527 57.8036)" style="font:normal normal normal 150px 'Arial'" >
–</text>
<path stroke="transparent" fill="#000000" transform="matrix(0.05 0 0 0.05 -20 -54)" d="M 7371.51,2149.15 L 7365.52,2159.54 L 7319.11,2132.79 L 7325.11,2122.39 L 7371.51,2149.15 Z " />
<path stroke="transparent" fill="#000000" transform="matrix(0.05 0 0 0.05 -20 -54)" d="M 7345.59,2194.1 L 7339.6,2204.49 L 7293.2,2177.73 L 7299.19,2167.34 L 7345.59,2194.1 Z " />
</svg>
